<svg width="24" height="24" viewBox="0 0 24 24" fill="none" xmlns="http://www.w3.org/2000/svg">
<path d="M3 5.5C3 4.672 3.672 4 4.5 4C5.328 4 6 4.672 6 5.5C6 6.328 5.328 7 4.5 7C3.672 7 3 6.328 3 5.5ZM8.5 7C9.328 7 10 6.328 10 5.5C10 4.672 9.328 4 8.5 4C7.672 4 7 4.672 7 5.5C7 6.328 7.672 7 8.5 7ZM24 6V18C24 20.757 21.757 23 19 23H5C2.243 23 0 20.757 0 18V6C0 3.243 2.243 1 5 1H19C21.757 1 24 3.243 24 6ZM2 6V8H22V6C22 4.346 20.654 3 19 3H5C3.346 3 2 4.346 2 6ZM22 18V10H2V18C2 19.654 3.346 21 5 21H19C20.654 21 22 19.654 22 18ZM10.207 13.207C10.598 12.816 10.598 12.184 10.207 11.793C9.816 11.402 9.184 11.402 8.793 11.793L6.612 13.974C5.74 14.846 5.74 16.264 6.631 17.154L8.812 19.225C9.211 19.606 9.845 19.59 10.225 19.189C10.606 18.789 10.589 18.156 10.189 17.776L8.027 15.722C7.935 15.63 7.935 15.48 8.027 15.388L10.208 13.207H10.207ZM15.207 11.793C14.816 11.402 14.184 11.402 13.793 11.793C13.402 12.184 13.402 12.816 13.793 13.207L15.974 15.388C16.066 15.48 16.066 15.63 15.985 15.711L13.826 17.804C13.43 18.188 13.42 18.822 13.805 19.218C14.19 19.615 14.823 19.624 15.219 19.239L17.389 17.135C18.261 16.263 18.261 14.845 17.389 13.973L15.208 11.792L15.207 11.793Z" fill="#48ACF0"/>
</svg>
