<svg width="475" height="475" viewBox="0 0 475 475" fill="none" xmlns="http://www.w3.org/2000/svg">
<circle cx="237.5" cy="237.5" r="237.5" fill="#C8E6FB" fill-opacity="0.24"/>
<circle cx="238.364" cy="233.182" r="172.727" fill="#A4D6F8" fill-opacity="0.22"/>
<g clip-path="url(#clip0_98_980)">
<path d="M295.185 177.161H293.919V142.478C293.919 139.842 293.399 137.232 292.391 134.796C291.382 132.361 289.903 130.148 288.039 128.284C286.175 126.42 283.962 124.941 281.527 123.933C279.092 122.924 276.481 122.405 273.845 122.405H200.364C195.041 122.405 189.935 124.52 186.17 128.284C182.406 132.049 180.291 137.154 180.291 142.478V332.752C180.291 338.076 182.406 343.182 186.17 346.946C189.935 350.711 195.04 352.826 200.364 352.826H273.845C279.169 352.826 284.275 350.711 288.039 346.946C291.804 343.182 293.919 338.076 293.919 332.752V201.849H295.185L295.185 177.161Z" fill="#E6E6E6"/>
<path d="M289.646 142.618V332.612C289.646 336.588 288.067 340.401 285.255 343.213C282.444 346.024 278.631 347.604 274.655 347.604H200.822C196.846 347.604 193.032 346.024 190.221 343.213C187.41 340.401 185.83 336.588 185.83 332.612V142.618C185.83 138.642 187.41 134.829 190.221 132.018C193.032 129.207 196.846 127.627 200.822 127.627H209.778C209.338 128.708 209.171 129.882 209.29 131.043C209.41 132.205 209.813 133.319 210.465 134.288C211.116 135.257 211.995 136.051 213.026 136.601C214.056 137.15 215.206 137.438 216.373 137.439H258.47C259.637 137.438 260.787 137.15 261.817 136.601C262.847 136.051 263.727 135.257 264.378 134.288C265.03 133.319 265.433 132.205 265.553 131.043C265.672 129.882 265.505 128.708 265.065 127.627H274.655C278.631 127.627 282.444 129.207 285.255 132.018C288.067 134.829 289.646 138.642 289.646 142.618Z" fill="white"/>
<path d="M217.349 179.723H206.011C205.077 179.722 204.181 179.351 203.52 178.69C202.86 178.03 202.488 177.134 202.487 176.2V164.861C202.488 163.927 202.86 163.032 203.52 162.371C204.181 161.71 205.077 161.339 206.011 161.338H217.349C218.283 161.339 219.179 161.71 219.84 162.371C220.5 163.032 220.872 163.927 220.873 164.861V176.2C220.872 177.134 220.5 178.03 219.84 178.69C219.179 179.351 218.283 179.722 217.349 179.723Z" fill="#48ACF0"/>
<path d="M243.407 179.723H232.069C231.135 179.722 230.239 179.351 229.578 178.69C228.918 178.03 228.546 177.134 228.545 176.2V164.861C228.546 163.927 228.918 163.032 229.578 162.371C230.239 161.71 231.135 161.339 232.069 161.338H243.407C244.341 161.339 245.237 161.71 245.898 162.371C246.558 163.032 246.93 163.927 246.931 164.861V176.2C246.93 177.134 246.558 178.03 245.898 178.69C245.237 179.351 244.341 179.722 243.407 179.723Z" fill="#48ACF0"/>
<path d="M269.465 179.723H258.127C257.193 179.722 256.297 179.351 255.637 178.69C254.976 178.03 254.604 177.134 254.603 176.2V164.861C254.604 163.927 254.976 163.032 255.637 162.371C256.297 161.71 257.193 161.339 258.127 161.338H269.465C270.4 161.339 271.295 161.71 271.956 162.371C272.616 163.032 272.988 163.927 272.989 164.861V176.2C272.988 177.134 272.616 178.03 271.956 178.69C271.295 179.351 270.4 179.722 269.465 179.723Z" fill="#E6E6E6"/>
<path d="M217.349 208.696H206.011C205.077 208.695 204.181 208.323 203.52 207.663C202.86 207.002 202.488 206.106 202.487 205.172V193.834C202.488 192.9 202.86 192.004 203.52 191.344C204.181 190.683 205.077 190.311 206.011 190.31H217.349C218.283 190.311 219.179 190.683 219.84 191.344C220.5 192.004 220.872 192.9 220.873 193.834V205.172C220.872 206.106 220.5 207.002 219.84 207.663C219.179 208.323 218.283 208.695 217.349 208.696Z" fill="#E6E6E6"/>
<path d="M243.407 208.696H232.069C231.135 208.695 230.239 208.323 229.578 207.663C228.918 207.002 228.546 206.106 228.545 205.172V193.834C228.546 192.9 228.918 192.004 229.578 191.344C230.239 190.683 231.135 190.311 232.069 190.31H243.407C244.341 190.311 245.237 190.683 245.898 191.344C246.558 192.004 246.93 192.9 246.931 193.834V205.172C246.93 206.106 246.558 207.002 245.898 207.663C245.237 208.323 244.341 208.695 243.407 208.696Z" fill="#E6E6E6"/>
<path d="M269.465 208.696H258.127C257.193 208.695 256.297 208.323 255.637 207.663C254.976 207.002 254.604 206.106 254.603 205.172V193.834C254.604 192.9 254.976 192.004 255.637 191.344C256.297 190.683 257.193 190.311 258.127 190.31H269.465C270.4 190.311 271.295 190.683 271.956 191.344C272.616 192.004 272.988 192.9 272.989 193.834V205.172C272.988 206.106 272.616 207.002 271.956 207.663C271.295 208.323 270.4 208.695 269.465 208.696Z" fill="#E6E6E6"/>
<path d="M217.349 237.663H206.011C205.077 237.662 204.181 237.29 203.52 236.63C202.86 235.969 202.488 235.073 202.487 234.139V222.801C202.488 221.867 202.86 220.971 203.52 220.31C204.181 219.65 205.077 219.278 206.011 219.277H217.349C218.283 219.278 219.179 219.65 219.84 220.31C220.5 220.971 220.872 221.867 220.873 222.801V234.139C220.872 235.073 220.5 235.969 219.84 236.63C219.179 237.29 218.283 237.662 217.349 237.663Z" fill="#E6E6E6"/>
<path d="M243.407 237.663H232.069C231.135 237.662 230.239 237.29 229.578 236.63C228.918 235.969 228.546 235.073 228.545 234.139V222.801C228.546 221.867 228.918 220.971 229.578 220.31C230.239 219.65 231.135 219.278 232.069 219.277H243.407C244.341 219.278 245.237 219.65 245.898 220.31C246.558 220.971 246.93 221.867 246.931 222.801V234.139C246.93 235.073 246.558 235.969 245.898 236.63C245.237 237.29 244.341 237.662 243.407 237.663Z" fill="#E6E6E6"/>
<path d="M269.465 237.663H258.127C257.193 237.662 256.297 237.29 255.637 236.63C254.976 235.969 254.604 235.073 254.603 234.139V222.801C254.604 221.867 254.976 220.971 255.637 220.31C256.297 219.65 257.193 219.278 258.127 219.277H269.465C270.4 219.278 271.295 219.65 271.956 220.31C272.616 220.971 272.988 221.867 272.989 222.801V234.139C272.988 235.073 272.616 235.969 271.956 236.63C271.295 237.29 270.4 237.662 269.465 237.663Z" fill="#E6E6E6"/>
<path d="M217.349 266.635H206.011C205.077 266.634 204.181 266.263 203.52 265.602C202.86 264.941 202.488 264.046 202.487 263.112V251.773C202.488 250.839 202.86 249.943 203.52 249.283C204.181 248.622 205.077 248.251 206.011 248.25H217.349C218.283 248.251 219.179 248.622 219.84 249.283C220.5 249.943 220.872 250.839 220.873 251.773V263.112C220.872 264.046 220.5 264.941 219.84 265.602C219.179 266.263 218.283 266.634 217.349 266.635Z" fill="#E6E6E6"/>
<path d="M243.407 266.635H232.069C231.135 266.634 230.239 266.263 229.578 265.602C228.918 264.941 228.546 264.046 228.545 263.112V251.773C228.546 250.839 228.918 249.943 229.578 249.283C230.239 248.622 231.135 248.251 232.069 248.25H243.407C244.341 248.251 245.237 248.622 245.898 249.283C246.558 249.943 246.93 250.839 246.931 251.773V263.112C246.93 264.046 246.558 264.941 245.898 265.602C245.237 266.263 244.341 266.634 243.407 266.635Z" fill="#E6E6E6"/>
<path d="M269.465 266.635H258.127C257.193 266.634 256.297 266.263 255.637 265.602C254.976 264.941 254.604 264.046 254.603 263.112V251.773C254.604 250.839 254.976 249.943 255.637 249.283C256.297 248.622 257.193 248.251 258.127 248.25H269.465C270.4 248.251 271.295 248.622 271.956 249.283C272.616 249.943 272.988 250.839 272.989 251.773V263.112C272.988 264.046 272.616 264.941 271.956 265.602C271.295 266.263 270.4 266.634 269.465 266.635Z" fill="#E6E6E6"/>
<path d="M250.7 263.275H239.362C238.386 263.274 237.45 262.886 236.759 262.196C236.069 261.506 235.681 260.57 235.68 259.593V248.255C235.681 247.279 236.069 246.343 236.759 245.653C237.45 244.963 238.386 244.574 239.362 244.573H250.7C251.676 244.574 252.612 244.963 253.302 245.653C253.993 246.343 254.381 247.279 254.382 248.255V259.593C254.381 260.57 253.993 261.506 253.302 262.196C252.612 262.886 251.676 263.274 250.7 263.275Z" fill="#48ACF0"/>
<path d="M197.052 292.535C197.481 292.322 197.857 292.017 198.155 291.643C198.454 291.268 198.666 290.833 198.778 290.367C198.889 289.902 198.897 289.417 198.802 288.948C198.706 288.479 198.508 288.037 198.223 287.653L200.672 263.714H195.38L193.434 287.089C192.82 287.611 192.419 288.34 192.307 289.138C192.194 289.936 192.378 290.748 192.824 291.419C193.27 292.09 193.947 292.575 194.726 292.78C195.505 292.986 196.333 292.899 197.052 292.535Z" fill="#FFB8B8"/>
<path d="M201.911 250.502C206.045 250.502 209.397 247.15 209.397 243.016C209.397 238.881 206.045 235.53 201.911 235.53C197.776 235.53 194.424 238.881 194.424 243.016C194.424 247.15 197.776 250.502 201.911 250.502Z" fill="#FFB8B8"/>
<path d="M203.32 277.655C203.02 277.655 202.729 277.556 202.491 277.375C202.252 277.193 202.08 276.938 202.001 276.649C201.401 274.47 199.84 270.786 197.363 265.698C196.803 264.548 196.494 263.293 196.454 262.014C196.414 260.736 196.645 259.464 197.132 258.281C197.618 257.099 198.349 256.032 199.277 255.152C200.204 254.272 201.307 253.597 202.514 253.174C203.657 252.77 204.87 252.6 206.08 252.673C207.291 252.746 208.474 253.061 209.56 253.6C210.647 254.138 211.614 254.889 212.405 255.808C213.196 256.727 213.795 257.795 214.166 258.95C216.086 264.971 215.993 271.42 215.864 273.914C215.848 274.214 215.734 274.501 215.54 274.73C215.345 274.959 215.081 275.118 214.787 275.183L203.614 277.623C203.518 277.644 203.419 277.655 203.32 277.655Z" fill="#CCCCCC"/>
<path d="M214.14 348.743L217.877 348.743L219.654 334.33L214.139 334.33L214.14 348.743Z" fill="#FFB8B8"/>
<path d="M225.083 352.213L213.339 352.213L213.339 347.676L220.546 347.675C221.141 347.675 221.732 347.793 222.282 348.021C222.833 348.249 223.333 348.583 223.754 349.004C224.176 349.425 224.51 349.926 224.738 350.476C224.966 351.027 225.083 351.617 225.083 352.213Z" fill="#2F2E41"/>
<path d="M176.774 343.9L180.048 345.7L188.551 333.927L183.718 331.27L176.774 343.9Z" fill="#FFB8B8"/>
<path d="M184.692 352.213L174.4 346.555L176.586 342.579L182.902 346.051C183.956 346.631 184.737 347.606 185.073 348.761C185.409 349.917 185.272 351.159 184.692 352.213Z" fill="#2F2E41"/>
<path d="M213.965 340.743C213.632 340.743 213.311 340.621 213.061 340.401C212.811 340.181 212.649 339.878 212.606 339.548L207.933 303.536C207.912 303.377 207.842 303.228 207.732 303.111C207.621 302.994 207.477 302.915 207.319 302.885C207.162 302.855 206.998 302.876 206.853 302.945C206.708 303.013 206.588 303.125 206.51 303.266L187.034 338.602C186.873 338.89 186.614 339.112 186.304 339.225C185.994 339.339 185.653 339.338 185.344 339.222L181.099 337.604C180.928 337.539 180.772 337.441 180.64 337.315C180.508 337.189 180.402 337.037 180.329 336.87C180.257 336.702 180.218 336.522 180.216 336.339C180.214 336.156 180.248 335.975 180.317 335.806L193.809 302.662C193.843 302.578 193.866 302.49 193.878 302.4C195.705 288.256 200.354 281.064 201.736 279.196C201.837 279.059 201.903 278.899 201.929 278.731C201.956 278.563 201.941 278.39 201.887 278.229L201.697 277.659C201.621 277.433 201.606 277.191 201.652 276.957C201.698 276.723 201.805 276.505 201.961 276.325C206.939 270.655 215.615 273.749 215.702 273.781L215.745 273.797L215.773 273.834C225.501 287.176 221.904 330.51 221.084 339.062C221.054 339.383 220.911 339.683 220.68 339.909C220.449 340.135 220.146 340.272 219.824 340.296L214.072 340.739C214.036 340.742 214 340.743 213.965 340.743Z" fill="#2F2E41"/>
<path d="M231.014 251.712C230.977 251.876 230.952 252.043 230.941 252.212L217.848 259.765L214.665 257.933L211.273 262.375L216.591 266.166C217.021 266.472 217.539 266.631 218.066 266.618C218.594 266.605 219.103 266.421 219.517 266.095L233.019 255.443C233.628 255.669 234.291 255.703 234.921 255.542C235.551 255.382 236.116 255.033 236.543 254.543C236.969 254.053 237.237 253.445 237.309 252.799C237.381 252.153 237.255 251.501 236.948 250.928C236.64 250.356 236.166 249.891 235.588 249.595C235.009 249.298 234.355 249.185 233.71 249.27C233.066 249.356 232.463 249.635 231.982 250.071C231.5 250.507 231.163 251.079 231.014 251.712Z" fill="#FFB8B8"/>
<path d="M217.41 260.123L213.178 265.608C213.058 265.764 212.905 265.892 212.731 265.984C212.556 266.075 212.364 266.128 212.167 266.139C211.971 266.15 211.774 266.118 211.59 266.046C211.407 265.974 211.241 265.863 211.105 265.721L206.314 260.746C205.519 260.126 205.003 259.215 204.879 258.215C204.754 257.214 205.032 256.205 205.65 255.409C206.268 254.612 207.177 254.094 208.177 253.966C209.177 253.838 210.187 254.113 210.985 254.728L216.994 258.088C217.166 258.184 217.315 258.317 217.432 258.476C217.548 258.635 217.629 258.817 217.668 259.01C217.708 259.203 217.705 259.403 217.66 259.595C217.616 259.787 217.531 259.967 217.41 260.123Z" fill="#CCCCCC"/>
<path d="M201.008 269.652L194.191 268.421C193.997 268.386 193.813 268.309 193.651 268.197C193.49 268.084 193.354 267.938 193.254 267.768C193.154 267.599 193.091 267.409 193.071 267.213C193.05 267.017 193.072 266.819 193.135 266.632L195.345 260.089C195.53 259.098 196.101 258.22 196.932 257.649C197.763 257.077 198.786 256.858 199.778 257.041C200.77 257.223 201.649 257.791 202.223 258.62C202.797 259.449 203.018 260.472 202.839 261.465L202.623 268.345C202.617 268.542 202.568 268.736 202.48 268.912C202.393 269.089 202.268 269.244 202.115 269.368C201.962 269.492 201.783 269.582 201.593 269.631C201.402 269.68 201.202 269.687 201.008 269.652Z" fill="#CCCCCC"/>
<path d="M203.096 241.294C205.02 242.611 207.546 243.964 209.511 242.562C210.126 242.094 210.573 241.439 210.784 240.696C210.996 239.953 210.961 239.161 210.685 238.44C209.744 235.749 207.159 234.564 204.686 233.656C201.472 232.475 197.973 231.536 194.655 232.382C191.337 233.227 188.405 236.439 189.004 239.811C189.485 242.522 192.043 244.777 191.68 247.507C191.314 250.254 188.225 251.699 185.498 252.19C182.771 252.681 179.719 252.839 177.759 254.798C175.258 257.297 175.883 261.764 178.235 264.402C180.588 267.041 184.138 268.237 187.579 269.05C192.137 270.127 197.067 270.693 201.396 268.905C205.725 267.117 209.094 262.305 207.84 257.792C207.31 255.886 206.062 254.275 204.856 252.707C203.65 251.139 202.429 249.498 201.969 247.574C201.586 245.971 201.87 244.109 202.933 242.906C203.126 242.696 203.248 242.429 203.281 242.145C203.313 241.861 203.255 241.574 203.114 241.326L203.096 241.294Z" fill="#2F2E41"/>
<path d="M279.214 349.242H275.332L273.485 334.27H279.214L279.214 349.242Z" fill="#FFB8B8"/>
<path d="M272.559 348.133H280.045V352.846H267.846C267.846 352.227 267.968 351.614 268.205 351.042C268.442 350.47 268.789 349.951 269.227 349.513C269.664 349.076 270.184 348.728 270.756 348.491C271.328 348.255 271.94 348.133 272.559 348.133Z" fill="#2F2E41"/>
<path d="M293.778 349.242H289.896L288.049 334.27H293.778L293.778 349.242Z" fill="#FFB8B8"/>
<path d="M287.123 348.133H294.609V352.846H282.41C282.41 352.227 282.532 351.614 282.769 351.042C283.006 350.47 283.353 349.951 283.791 349.513C284.228 349.076 284.748 348.728 285.32 348.491C285.892 348.255 286.504 348.133 287.123 348.133Z" fill="#2F2E41"/>
<path d="M293.303 304.651C292.885 304.382 292.531 304.025 292.266 303.604C292.001 303.183 291.831 302.71 291.769 302.216C291.707 301.723 291.753 301.222 291.906 300.749C292.058 300.275 292.312 299.841 292.651 299.477L290.095 263.207L297.457 263.921L297.659 299.44C298.234 300.049 298.565 300.847 298.59 301.684C298.615 302.521 298.333 303.338 297.796 303.98C297.259 304.623 296.505 305.046 295.677 305.169C294.849 305.293 294.005 305.109 293.303 304.651Z" fill="#FFB8B8"/>
<path d="M279.03 341.699L274.757 341.496C274.393 341.478 274.05 341.322 273.797 341.06C273.545 340.797 273.403 340.447 273.4 340.083L273.102 296.848C273.101 296.642 273.143 296.439 273.228 296.252C273.312 296.065 273.436 295.898 273.591 295.764C273.745 295.629 273.927 295.529 274.124 295.471C274.321 295.413 274.528 295.398 274.731 295.428L291.826 297.909C292.164 297.956 292.473 298.124 292.698 298.381C292.922 298.638 293.045 298.967 293.046 299.309L295.245 339.37C295.246 339.558 295.211 339.745 295.14 339.919C295.069 340.093 294.964 340.251 294.831 340.385C294.699 340.518 294.541 340.624 294.368 340.696C294.194 340.769 294.008 340.806 293.82 340.806H289.214C288.874 340.807 288.545 340.687 288.286 340.466C288.028 340.245 287.858 339.938 287.806 339.603L284.964 321.535C284.922 321.27 284.787 321.03 284.582 320.858C284.377 320.686 284.116 320.594 283.849 320.599C283.581 320.603 283.324 320.705 283.126 320.885C282.927 321.064 282.801 321.309 282.769 321.575L280.513 340.446C280.47 340.791 280.303 341.11 280.042 341.341C279.782 341.572 279.446 341.7 279.098 341.701C279.075 341.701 279.053 341.701 279.03 341.699Z" fill="#2F2E41"/>
<path d="M282.038 299.31C278.271 297.217 275.327 296.667 273.908 296.526C273.719 296.507 273.536 296.451 273.37 296.36C273.204 296.269 273.058 296.145 272.941 295.996C272.822 295.846 272.734 295.673 272.683 295.488C272.632 295.303 272.62 295.109 272.646 294.919L276.742 264.508C276.978 262.729 277.665 261.04 278.738 259.602C279.812 258.163 281.235 257.023 282.873 256.29C284.459 255.561 286.205 255.25 287.944 255.387C289.684 255.523 291.36 256.102 292.813 257.069C292.953 257.163 293.091 257.258 293.226 257.355C294.899 258.581 296.172 260.275 296.884 262.223C297.596 264.171 297.715 266.286 297.227 268.302C294.715 278.577 293.853 295.423 293.705 298.696C293.693 298.975 293.6 299.244 293.435 299.47C293.271 299.695 293.043 299.867 292.781 299.964C291.236 300.525 289.605 300.816 287.961 300.822C285.889 300.835 283.85 300.314 282.038 299.31Z" fill="#48ACF0"/>
<path d="M291.761 275.394C291.589 275.27 291.447 275.109 291.345 274.923C291.243 274.736 291.184 274.529 291.173 274.317L290.633 264.542C290.58 263.573 290.887 262.619 291.495 261.864C292.104 261.108 292.97 260.605 293.928 260.45C294.885 260.296 295.866 260.501 296.681 261.027C297.496 261.553 298.088 262.362 298.342 263.298L300.711 272.038C300.81 272.403 300.76 272.792 300.572 273.12C300.384 273.447 300.074 273.687 299.709 273.786L292.968 275.614C292.763 275.67 292.549 275.679 292.34 275.641C292.131 275.603 291.933 275.519 291.761 275.394Z" fill="#48ACF0"/>
<path d="M285.465 252.161C289.759 252.161 293.241 248.679 293.241 244.385C293.241 240.09 289.759 236.609 285.465 236.609C281.17 236.609 277.688 240.09 277.688 244.385C277.688 248.679 281.17 252.161 285.465 252.161Z" fill="#FFB8B8"/>
<path d="M257.285 259.663C257.324 259.833 257.349 260.007 257.361 260.182L270.962 268.028L274.267 266.125L277.792 270.739L270.72 275.779L255.203 263.538C254.57 263.773 253.881 263.808 253.227 263.641C252.574 263.474 251.986 263.112 251.543 262.603C251.1 262.094 250.823 261.462 250.748 260.792C250.672 260.121 250.803 259.444 251.123 258.849C251.442 258.255 251.935 257.772 252.535 257.464C253.136 257.156 253.816 257.039 254.485 257.127C255.154 257.216 255.78 257.505 256.28 257.958C256.78 258.411 257.131 259.006 257.285 259.663Z" fill="#FFB8B8"/>
<path d="M271.447 267.361C271.425 267.15 271.45 266.936 271.521 266.736C271.591 266.536 271.706 266.354 271.857 266.204L278.779 259.281C279.465 258.595 280.38 258.187 281.349 258.136C282.318 258.085 283.271 258.395 284.025 259.005C284.779 259.615 285.28 260.483 285.432 261.441C285.584 262.399 285.376 263.379 284.848 264.193L279.918 271.789C279.712 272.106 279.389 272.328 279.02 272.406C278.65 272.485 278.265 272.414 277.947 272.209L272.089 268.407C271.91 268.292 271.76 268.138 271.649 267.957C271.538 267.776 271.469 267.572 271.447 267.361Z" fill="#48ACF0"/>
<path d="M290.967 250.537C289.517 252.082 286.823 251.253 286.634 249.142C286.619 248.978 286.62 248.813 286.637 248.649C286.734 247.714 287.275 246.865 287.145 245.878C287.116 245.632 287.024 245.398 286.879 245.197C285.723 243.649 283.01 245.89 281.918 244.488C281.249 243.629 282.036 242.276 281.523 241.316C280.845 240.048 278.838 240.673 277.58 239.979C276.179 239.207 276.263 237.058 277.185 235.752C278.309 234.158 280.28 233.308 282.226 233.185C284.173 233.062 286.106 233.589 287.923 234.297C289.987 235.101 292.035 236.213 293.305 238.029C294.85 240.237 294.999 243.205 294.226 245.786C293.756 247.357 292.152 249.275 290.967 250.537Z" fill="#2F2E41"/>
<path d="M354.25 353.227H121.226C121.142 353.227 121.061 353.194 121.002 353.134C120.942 353.075 120.909 352.995 120.909 352.911C120.909 352.827 120.942 352.746 121.002 352.687C121.061 352.627 121.142 352.594 121.226 352.594H354.25C354.334 352.594 354.414 352.627 354.474 352.687C354.533 352.746 354.566 352.827 354.566 352.911C354.566 352.995 354.533 353.075 354.474 353.134C354.414 353.194 354.334 353.227 354.25 353.227Z" fill="#CCCCCC"/>
</g>
<defs>
<clipPath id="clip0_98_980">
<rect width="233.657" height="230.823" fill="white" transform="translate(120.909 122.405)"/>
</clipPath>
</defs>
</svg>
