<svg width="24" height="24" viewBox="0 0 24 24" fill="none" xmlns="http://www.w3.org/2000/svg">
<g clip-path="url(#clip0_245_1965)">
<path d="M19 2H5C2.24 2 0 4.24 0 7V17C0 19.76 2.24 22 5 22H12C12.55 22 13 21.55 13 21C13 20.45 12.55 20 12 20H5C3.35 20 2 18.65 2 17V9H22V14C22 14.55 22.45 15 23 15C23.55 15 24 14.55 24 14V7C24 4.24 21.76 2 19 2ZM2 7C2 5.35 3.35 4 5 4H19C20.65 4 22 5.35 22 7H2ZM16.41 12.17C15.65 11.41 14.65 11 13.58 11H11.99C11.44 11 10.99 11.45 10.99 12V13.59C10.99 14.66 11.41 15.66 12.16 16.42L18.87 23.13C19.44 23.7 20.19 24.01 20.99 24.01C21.79 24.01 22.54 23.7 23.11 23.13C23.68 22.56 23.99 21.81 23.99 21.01C23.99 20.21 23.68 19.46 23.11 18.89L16.4 12.18L16.41 12.17ZM21.7 21.71C21.32 22.09 20.66 22.09 20.29 21.71L13.58 15C13.2 14.62 12.99 14.12 12.99 13.59V13H13.58C14.11 13 14.62 13.21 14.99 13.59L21.7 20.3C21.89 20.49 21.99 20.74 21.99 21.01C21.99 21.28 21.89 21.53 21.7 21.72V21.71Z" fill="#48ACF0"/>
</g>
<defs>
<clipPath id="clip0_245_1965">
<rect width="24" height="24" fill="white"/>
</clipPath>
</defs>
</svg>
