<svg width="110" height="111" viewBox="0 0 110 111" fill="none" xmlns="http://www.w3.org/2000/svg">
<circle cx="55" cy="55.9487" r="55" fill="#EDF7FE"/>
<path d="M44.191 56.1017C46.3833 56.1017 48.2103 55.3056 49.6719 53.7136C51.1334 52.1215 52.1513 50.2293 52.7255 48.0369L48.1842 46.9407C47.9232 48.0891 47.4665 49.12 46.814 50.0335C46.1615 50.947 45.2872 51.4038 44.191 51.4038C43.0948 51.4038 42.2205 50.947 41.568 50.0335C40.9155 49.12 40.4587 48.0891 40.1977 46.9407L35.6564 48.0369C36.2306 50.2293 37.2485 52.1215 38.7101 53.7136C40.1716 55.3056 41.9986 56.1017 44.191 56.1017ZM55.1528 73.3274C57.1885 73.3274 59.146 72.8706 61.0252 71.9571C62.9043 71.0437 64.653 69.6734 66.2712 67.8465L62.826 64.7145C61.6777 65.9673 60.451 66.9199 59.146 67.5724C57.841 68.2249 56.51 68.5511 55.1528 68.5511C53.7956 68.5511 52.4645 68.2249 51.1595 67.5724C49.8546 66.9199 48.6279 65.9673 47.4795 64.7145L44.0344 67.8465C45.7047 69.6734 47.4665 71.0437 49.3195 71.9571C51.1726 72.8706 53.117 73.3274 55.1528 73.3274ZM66.1146 56.1017C68.3069 56.1017 70.1339 55.3056 71.5955 53.7136C73.0571 52.1215 74.0749 50.2293 74.6491 48.0369L70.1078 46.9407C69.8468 48.0891 69.3901 49.12 68.7376 50.0335C68.0851 50.947 67.2108 51.4038 66.1146 51.4038C65.0184 51.4038 64.1441 50.947 63.4916 50.0335C62.8391 49.12 62.3824 48.0891 62.1214 46.9407L57.58 48.0369C58.1542 50.2293 59.1721 52.1215 60.6337 53.7136C62.0953 55.3056 63.9222 56.1017 66.1146 56.1017ZM55.1528 87.4211C50.8203 87.4211 46.7487 86.599 42.9382 84.9547C39.1277 83.3104 35.813 81.0789 32.9943 78.2602C30.1755 75.4414 27.944 72.1268 26.2997 68.3163C24.6555 64.5057 23.8333 60.4342 23.8333 56.1017C23.8333 51.7691 24.6555 47.6976 26.2997 43.8871C27.944 40.0766 30.1755 36.7619 32.9943 33.9432C35.813 31.1244 39.1277 28.8929 42.9382 27.2486C46.7487 25.6044 50.8203 24.7822 55.1528 24.7822C59.4853 24.7822 63.5568 25.6044 67.3674 27.2486C71.1779 28.8929 74.4925 31.1244 77.3113 33.9432C80.13 36.7619 82.3615 40.0766 84.0058 43.8871C85.6501 47.6976 86.4722 51.7691 86.4722 56.1017C86.4722 60.4342 85.6501 64.5057 84.0058 68.3163C82.3615 72.1268 80.13 75.4414 77.3113 78.2602C74.4925 81.0789 71.1779 83.3104 67.3674 84.9547C63.5568 86.599 59.4853 87.4211 55.1528 87.4211ZM55.1528 81.1572C62.1475 81.1572 68.072 78.73 72.9266 73.8755C77.7811 69.0209 80.2083 63.0963 80.2083 56.1017C80.2083 49.107 77.7811 43.1824 72.9266 38.3279C68.072 33.4734 62.1475 31.0461 55.1528 31.0461C48.1581 31.0461 42.2335 33.4734 37.379 38.3279C32.5245 43.1824 30.0972 49.107 30.0972 56.1017C30.0972 63.0963 32.5245 69.0209 37.379 73.8755C42.2335 78.73 48.1581 81.1572 55.1528 81.1572Z" fill="#48ACF0"/>
</svg>
