<svg width="24" height="24" viewBox="0 0 24 24" fill="none" xmlns="http://www.w3.org/2000/svg">
<g clip-path="url(#clip0_245_1664)">
<path d="M18 9V1C18 0.447 18.448 0 19 0C19.66 0 19.815 0.128 20.426 0.377L23.521 1.636C24.16 2.035 24.16 2.965 23.521 3.365L20 5.245V9C20 9.553 19.552 10 19 10C18.448 10 18 9.553 18 9ZM20 14H16C14.897 14 14 13.103 14 12C14 11.111 14.586 10.207 15.333 9.942C15.854 9.758 16.126 9.187 15.942 8.667C15.757 8.145 15.186 7.873 14.666 8.058C13.121 8.604 11.999 10.262 11.999 12C11.999 14.206 13.793 16 15.999 16H19.999C21.102 16 21.999 16.897 21.999 18C21.999 19.103 21.102 20 19.999 20H14.999C14.447 20 13.999 20.447 13.999 21C13.999 21.553 14.447 22 14.999 22H19.999C22.205 22 23.999 20.206 23.999 18C23.999 15.794 22.206 14 20 14ZM12 17V21C12 22.654 10.654 24 9 24H3C1.346 24 0 22.654 0 21V17C0 15.346 1.346 14 3 14C3 12.897 3.897 12 5 12H7C8.103 12 9 12.897 9 14C10.654 14 12 15.346 12 17ZM2 17V18H10V17C10 16.448 9.551 16 9 16H3C2.449 16 2 16.448 2 17ZM10 21V20H7C7 20.553 6.552 21 6 21C5.448 21 5 20.553 5 20H2V21C2 21.552 2.449 22 3 22H9C9.551 22 10 21.552 10 21Z" fill="#48ACF0"/>
</g>
<defs>
<clipPath id="clip0_245_1664">
<rect width="24" height="24" fill="white"/>
</clipPath>
</defs>
</svg>
