<svg width="449" height="449" viewBox="0 0 449 449" fill="none" xmlns="http://www.w3.org/2000/svg">
<path d="M352.079 348.038H383.653V337.989H352.079V348.038Z" fill="#EBEBEB"/>
<path d="M369.689 360.699C374.933 360.618 388.376 360.394 393.441 360.331H401.262L400.849 360.735V350.687L401.298 351.136C396.054 351.136 382.683 351.073 377.618 351.001L369.725 350.902L369.94 350.687L369.725 360.735L369.689 360.699ZM369.689 360.699L369.482 350.651V350.444H369.698C373.64 350.39 381.551 350.3 385.484 350.264L401.271 350.202H401.72V350.651V360.699V361.112H401.316H393.351C388.322 361.058 374.942 360.825 369.743 360.735L369.689 360.699Z" fill="#EBEBEB"/>
<path d="M226.916 238.589C221.662 238.679 208.399 238.904 203.307 238.958H195.351H194.938V238.545V228.496V228.092H195.396L211.174 228.155C215.107 228.155 223.036 228.271 226.961 228.325H227.185V228.532L226.969 238.58L226.916 238.589ZM226.916 238.589L226.709 228.541L226.916 228.756C222.982 228.81 215.071 228.9 211.129 228.927L195.351 228.99L195.791 228.541V238.589L195.387 238.185H203.208C208.21 238.239 221.779 238.464 226.952 238.553L226.916 238.589Z" fill="#EBEBEB"/>
<path d="M209.306 251.26C204.044 251.35 190.78 251.575 185.697 251.629L177.732 251.673H177.328V251.26L177.283 241.212V240.763H177.732L193.519 240.826C197.452 240.826 205.373 240.942 209.306 240.996H209.521V241.203L209.306 251.251V251.26ZM209.306 251.26L209.09 241.212L209.306 241.427C205.373 241.481 197.461 241.562 193.519 241.598L177.732 241.661L178.181 241.212V251.26L177.768 250.856H185.59C190.6 250.91 204.169 251.135 209.342 251.224L209.306 251.26Z" fill="#EBEBEB"/>
<path d="M191.768 228.541H160.194V238.59H191.768V228.541Z" fill="#EBEBEB"/>
<path d="M47.7377 360.708H79.3114V350.66H47.7377V360.708Z" fill="#EBEBEB"/>
<path d="M65.3475 50.4048L96.9211 50.4048V40.3562H65.3475V50.4048Z" fill="#EBEBEB"/>
<path d="M47.7377 63.0663C52.982 62.9765 66.4251 62.752 71.4898 62.6981H79.3114L78.8983 63.1022V53.0536L79.3473 53.5026C74.103 53.5026 60.7317 53.4397 55.667 53.3679L47.7736 53.2691L47.9532 52.9817L47.7377 63.0303V63.0663ZM47.7377 63.0663L47.5222 52.9817V52.7752H47.7377C51.6799 52.7213 59.5823 52.6315 63.5245 52.5956L79.3114 52.5327H79.7604V52.9817V63.0303V63.4434H79.3563H71.391C66.3622 63.3806 52.973 63.1561 47.7826 63.0663H47.7377Z" fill="#EBEBEB"/>
<path d="M352.079 50.3956C357.323 50.3058 370.766 50.0902 375.831 50.0274H383.653L383.239 50.4315V40.3829L383.688 40.8319L367.902 40.769C363.968 40.769 356.048 40.6523 352.115 40.5984L352.33 40.3829L352.115 50.4315L352.079 50.3956ZM352.079 50.3956L351.863 40.3469V40.1404H352.079C356.021 40.0865 363.932 39.9967 367.866 39.9608L383.653 39.8979H384.102V40.3469L384.057 50.3956V50.8087H383.653H375.687C370.658 50.7458 357.278 50.5213 352.079 50.4315V50.3956Z" fill="#EBEBEB"/>
<path d="M109.43 67.1973H48.7345V140.824H109.43V67.1973Z" fill="#EBEBEB"/>
<path d="M102.507 73.9141H55.676V134.098H102.507V73.9141Z" fill="white"/>
<path d="M57.4989 73.9141H55.676V134.098H57.4989V73.9141Z" fill="#C7C7C7"/>
<path d="M111.262 67.1973H109.439V140.824H111.262V67.1973Z" fill="#C7C7C7"/>
<path d="M80.1285 120.727H91.1739V87.8333H80.1285V120.727Z" fill="#EBEBEB"/>
<path d="M96.4452 98.7798H66.1018V81.7178H96.4452V98.7798ZM66.9998 97.8818H95.5472V82.6158H66.9998V97.8818Z" fill="#EBEBEB"/>
<path d="M145.35 248.647H84.6545V322.274H145.35V248.647Z" fill="#EBEBEB"/>
<path d="M138.427 255.364H91.596V315.548H138.427V255.364Z" fill="white"/>
<path d="M93.4189 255.364H91.596V315.548H93.4189V255.364Z" fill="#C7C7C7"/>
<path d="M147.182 248.647H145.359V322.274H147.182V248.647Z" fill="#C7C7C7"/>
<path d="M118.329 269.283H107.284V302.177H118.329V269.283Z" fill="#EBEBEB"/>
<path d="M132.365 280.23H102.022V263.212H132.365V280.23ZM102.92 279.332H131.467V264.11H102.92V279.332Z" fill="#EBEBEB"/>
<path d="M127.39 158.254H66.6945V231.881H127.39V158.254Z" fill="#EBEBEB"/>
<path d="M120.467 164.971H73.636V225.155H120.467V164.971Z" fill="white"/>
<path d="M75.4589 164.971H73.636V225.155H75.4589V164.971Z" fill="#C7C7C7"/>
<path d="M129.222 158.254H127.399V231.881H129.222V158.254Z" fill="#C7C7C7"/>
<path d="M101.968 180.534H92.512V204.447H101.968V180.534Z" fill="#EBEBEB"/>
<path d="M112.385 212H86.0733V194.614H112.385V212ZM86.9713 211.102H111.487V195.512H86.9713V211.102Z" fill="#DBDBDB"/>
<path d="M41.0835 399.466C158.596 398.91 290.404 398.91 407.917 399.466C290.404 400.014 158.596 400.014 41.0835 399.466Z" fill="#263238"/>
<path d="M360.87 314.497C374.897 328.228 377.25 349.474 374.295 368.09C374.215 368.512 373.568 368.395 373.568 368C373.568 363.761 373.694 359.559 373.685 355.374C373.604 355.186 373.541 355.006 373.46 354.817C369.805 352.123 366.438 349.142 364.355 345.02C362.011 340.413 361.086 335.214 359.299 330.41C359.128 329.943 359.622 330.078 359.945 330.32C368.476 336.606 371.197 343.386 373.64 352.438C373.592 347.702 373.095 342.981 372.158 338.339C370.317 329.754 366.662 321.277 360.484 314.865C360.269 314.623 360.628 314.3 360.87 314.497Z" fill="#263238"/>
<path d="M358.23 316.096C355.815 316.177 354.306 320.038 352.429 321.161C352.233 321.329 352.002 321.454 351.753 321.525C351.504 321.596 351.243 321.612 350.987 321.573C350.731 321.534 350.487 321.44 350.271 321.297C350.055 321.155 349.872 320.967 349.735 320.748C347.867 318.144 350.427 314.929 352.833 313.142C351.109 313.842 349.69 315.09 347.831 315.441C347.594 315.519 347.343 315.546 347.095 315.518C346.846 315.49 346.607 315.409 346.393 315.281C346.179 315.152 345.995 314.978 345.854 314.772C345.713 314.565 345.619 314.331 345.577 314.085C344.76 310.538 349.169 308.966 352.258 308.885C350.777 307.861 346.538 305.069 348.792 303.686C351.046 302.303 356.048 306.308 357.673 307.628C360.062 309.559 362.9 312.45 363.008 315.477C363.178 319.015 360.098 316.841 358.23 316.096Z" fill="#48ACF0"/>
<path opacity="0.1" d="M358.23 316.096C355.815 316.177 354.306 320.038 352.429 321.161C352.233 321.329 352.002 321.454 351.753 321.525C351.504 321.596 351.243 321.612 350.987 321.573C350.731 321.534 350.487 321.44 350.271 321.297C350.055 321.155 349.872 320.967 349.735 320.748C347.867 318.144 350.427 314.929 352.833 313.142C351.109 313.842 349.69 315.09 347.831 315.441C347.594 315.519 347.343 315.546 347.095 315.518C346.846 315.49 346.607 315.409 346.393 315.281C346.179 315.152 345.995 314.978 345.854 314.772C345.713 314.565 345.619 314.331 345.577 314.085C344.76 310.538 349.169 308.966 352.258 308.885C350.777 307.861 346.538 305.069 348.792 303.686C351.046 302.303 356.048 306.308 357.673 307.628C360.062 309.559 362.9 312.45 363.008 315.477C363.178 319.015 360.098 316.841 358.23 316.096Z" fill="black"/>
<path d="M358.931 316.689C355.841 315.288 349.951 317.308 349.412 316.141C348.388 313.761 353.13 312.136 355.698 311.821C353.336 311.184 348.828 310.16 348.963 307.897C349.133 305.122 355.886 307.502 359.308 310.124C363.609 313.429 363.582 316.608 362.9 317.245C361.894 318.125 359.442 316.922 358.931 316.689Z" fill="#48ACF0"/>
<path d="M392.812 313.142C378.274 326.324 375.113 347.472 377.358 366.178C377.42 366.6 378.076 366.51 378.094 366.115C378.256 361.885 378.283 357.682 378.462 353.498L378.696 352.95C382.458 350.427 385.933 347.562 388.178 343.512C390.693 339.022 391.815 333.832 393.782 329.144C393.971 328.686 393.477 328.803 393.144 329.027C384.38 334.99 381.399 341.653 378.606 350.579C378.84 345.851 379.517 341.155 380.626 336.553C382.799 328.039 386.769 319.679 393.198 313.537C393.224 313.511 393.245 313.481 393.259 313.448C393.273 313.414 393.281 313.379 393.281 313.342C393.282 313.306 393.275 313.27 393.262 313.236C393.248 313.203 393.228 313.172 393.203 313.146C393.177 313.12 393.147 313.1 393.114 313.085C393.08 313.071 393.045 313.063 393.008 313.063C392.972 313.063 392.936 313.069 392.902 313.083C392.869 313.096 392.838 313.116 392.812 313.142Z" fill="#263238"/>
<path d="M395.389 314.839C397.796 315.009 399.161 318.924 401.002 320.119C401.192 320.292 401.417 320.423 401.662 320.502C401.906 320.58 402.165 320.606 402.421 320.576C402.676 320.546 402.922 320.462 403.142 320.329C403.362 320.196 403.551 320.017 403.696 319.805C405.654 317.272 403.22 313.968 400.885 312.082C402.582 312.854 403.956 314.156 405.797 314.578C406.032 314.656 406.28 314.685 406.526 314.662C406.772 314.64 407.011 314.567 407.227 314.448C407.444 314.329 407.634 314.167 407.785 313.972C407.936 313.776 408.045 313.552 408.105 313.312C409.057 309.792 404.675 308.05 401.621 307.861C403.139 306.891 407.485 304.269 405.285 302.796C403.085 301.324 397.931 305.131 396.26 306.388C393.8 308.229 390.872 311.013 390.63 314.039C390.334 317.56 393.504 315.503 395.389 314.839Z" fill="#48ACF0"/>
<path opacity="0.1" d="M395.389 314.839C397.796 315.009 399.161 318.924 401.002 320.119C401.192 320.292 401.417 320.423 401.662 320.502C401.906 320.58 402.165 320.606 402.421 320.576C402.676 320.546 402.922 320.462 403.142 320.329C403.362 320.196 403.551 320.017 403.696 319.805C405.654 317.272 403.22 313.968 400.885 312.082C402.582 312.854 403.956 314.156 405.797 314.578C406.032 314.656 406.28 314.685 406.526 314.662C406.772 314.64 407.011 314.567 407.227 314.448C407.444 314.329 407.634 314.167 407.785 313.972C407.936 313.776 408.045 313.552 408.105 313.312C409.057 309.792 404.675 308.05 401.621 307.861C403.139 306.891 407.485 304.269 405.285 302.796C403.085 301.324 397.931 305.131 396.26 306.388C393.8 308.229 390.872 311.013 390.63 314.039C390.334 317.56 393.504 315.503 395.389 314.839Z" fill="black"/>
<path d="M394.671 315.405C397.805 314.121 403.651 316.366 404.199 315.216C405.312 312.881 400.607 311.067 398.101 310.654C400.472 310.106 405.025 309.262 404.971 306.99C404.908 304.216 398.065 306.344 394.554 308.831C390.127 311.965 390.064 315.117 390.72 315.809C391.663 316.725 394.15 315.62 394.671 315.405Z" fill="#48ACF0"/>
<path d="M377.95 347.975C376.973 355.027 375.472 361.997 373.46 368.827C373.421 368.949 373.338 369.053 373.228 369.117C373.117 369.182 372.986 369.204 372.86 369.179C372.734 369.153 372.623 369.082 372.546 368.979C372.469 368.876 372.434 368.748 372.445 368.62C373.397 362.199 375.139 355.887 376.091 349.466C377.115 342.961 377.473 336.368 377.16 329.791C376.549 318.961 373.568 307.439 366.537 298.962C366.384 298.765 366.707 298.477 366.869 298.666C381.021 315.162 378.767 335.385 378.758 337.199C380.761 330.374 382.826 322.544 390.432 315.593C390.765 315.288 391.016 315.432 390.962 315.943C389.606 328.605 386.086 335.224 378.74 341.985C378.531 344.003 378.268 346 377.95 347.975Z" fill="#263238"/>
<path d="M366.438 300.83C363.888 299.698 360.376 302.94 357.862 303.156C357.575 303.224 357.277 303.23 356.987 303.174C356.698 303.118 356.424 303.002 356.183 302.832C355.942 302.662 355.739 302.443 355.589 302.189C355.439 301.935 355.344 301.653 355.312 301.36C354.683 297.768 358.958 295.684 362.352 295.074C360.215 294.948 358.104 295.514 356.003 294.948C355.718 294.909 355.445 294.809 355.201 294.655C354.958 294.501 354.751 294.297 354.593 294.056C354.436 293.815 354.332 293.543 354.289 293.259C354.245 292.974 354.263 292.684 354.342 292.407C355.285 288.321 360.691 288.922 363.897 290.377C362.882 288.581 359.882 283.534 362.918 283.238C365.953 282.942 369.132 289.605 370.147 291.796C371.655 295.002 373.146 299.438 371.736 302.626C370.102 306.38 367.991 302.563 366.438 300.83Z" fill="#48ACF0"/>
<path opacity="0.1" d="M366.438 300.83C363.888 299.698 360.376 302.94 357.862 303.156C357.575 303.224 357.277 303.23 356.987 303.174C356.698 303.118 356.424 303.002 356.183 302.832C355.942 302.662 355.739 302.443 355.589 302.189C355.439 301.935 355.344 301.653 355.312 301.36C354.683 297.768 358.958 295.684 362.352 295.074C360.215 294.948 358.104 295.514 356.003 294.948C355.718 294.909 355.445 294.809 355.201 294.655C354.958 294.501 354.751 294.297 354.593 294.056C354.436 293.815 354.332 293.543 354.289 293.259C354.245 292.974 354.263 292.684 354.342 292.407C355.285 288.321 360.691 288.922 363.897 290.377C362.882 288.581 359.882 283.534 362.918 283.238C365.953 282.942 369.132 289.605 370.147 291.796C371.655 295.002 373.146 299.438 371.736 302.626C370.102 306.38 367.991 302.563 366.438 300.83Z" fill="black"/>
<path d="M366.86 301.827C364.364 298.818 357.197 297.929 357.26 296.439C357.404 293.457 363.133 294.149 365.944 295.11C363.825 293.26 359.658 289.937 360.942 287.656C362.514 284.864 368.315 290.737 370.542 295.173C373.352 300.767 371.718 304.054 370.659 304.359C369.204 304.799 367.282 302.33 366.86 301.827Z" fill="#48ACF0"/>
<path d="M387.254 351.782L393.495 399.466H355.527C356.308 395.237 363.376 351.729 363.376 351.729L387.254 351.782Z" fill="#48ACF0"/>
<path d="M142.926 248.746C150.909 293.745 169.39 348.137 177.948 357.242C188.813 368.764 259.36 388.942 263.105 389.57C272.39 390.98 297.445 333.194 287.584 331.254C272.57 328.318 218.726 317.784 215.601 314.246C212.359 310.537 190.609 280.122 168.393 245.827C153.1 222.093 137.969 220.809 142.926 248.746Z" fill="#D3766A"/>
<path d="M258.076 388.286C259.073 388.69 273.27 394.293 281.882 395.973C288.312 397.221 306.909 400.328 308.984 393.386C310.412 388.654 299.69 385.547 292.155 383.176C288.186 381.928 283.112 378.345 284.019 375.786C285.609 371.296 295.837 374.735 302.653 377.914C315.827 384.065 333.688 395.658 340.764 388.618C343.458 385.924 339.686 381.883 334.388 378.04C342.812 382.314 351.675 385.655 354.764 382.808C356.56 381.192 356.443 379.216 355.177 377.025C357.709 377.609 359.874 377.249 361.247 375.516C363.591 372.571 361.966 368.682 358.769 364.839C359.253 364.737 359.706 364.52 360.091 364.208C360.475 363.896 360.779 363.496 360.978 363.043C365.711 354.18 336.094 332.646 326.396 331.254C297.858 327.132 268.538 331.02 268.538 331.02C258.355 340.809 258.049 388.277 258.076 388.286Z" fill="#D3766A"/>
<path d="M296.834 358.876C303.572 359.316 310.138 361.186 316.096 364.363C323.603 368.404 328.794 373.451 335.232 378.426C335.394 378.552 335.232 378.821 335.035 378.695C331.964 376.325 319.347 367.542 316.114 365.576C310.262 361.941 303.66 359.687 296.807 358.984C296.744 358.984 296.762 358.867 296.834 358.876Z" fill="#263238"/>
<path d="M300.974 346.547C308.499 347.894 316.24 349.241 323.325 352.105C331.128 355.24 337.522 360.906 343.799 366.348C347.571 369.616 351.265 372.969 354.881 376.405C355.033 376.549 354.881 376.818 354.683 376.675C348.307 371.047 341.764 365.608 335.053 360.358C328.859 355.454 321.758 351.823 314.156 349.672C309.81 348.451 305.383 347.562 300.956 346.682C300.942 346.675 300.931 346.664 300.924 346.651C300.917 346.638 300.915 346.623 300.917 346.608C300.919 346.593 300.925 346.579 300.935 346.568C300.946 346.557 300.959 346.55 300.974 346.547Z" fill="#263238"/>
<path d="M307.879 335.475C315.144 336.301 321.484 336.992 328.147 340.243C336.966 344.553 345.802 352.348 348.909 355.123C352.339 358.176 355.662 361.346 358.94 364.57C359.074 364.696 358.85 364.929 358.706 364.803C351.235 357.77 343.32 351.225 335.008 345.209C331.091 342.288 326.748 339.989 322.131 338.393C317.515 336.884 312.657 336.229 307.879 335.529V335.475Z" fill="#263238"/>
<path d="M276.018 322.166L249.078 394.617C249.078 394.617 187.116 373.505 176.197 360.493C165.277 347.481 147.317 282.439 142.629 251.099C137.942 219.759 153.594 221.312 167.028 241.598C180.462 261.884 213.993 311.094 215.951 312.226C217.909 313.357 276.018 322.166 276.018 322.166Z" fill="#48ACF0"/>
<path d="M243.627 360.682C246.672 352.6 249.779 344.518 252.518 336.328C254.08 331.667 255.661 327.007 257.178 322.337C257.232 322.158 256.936 322.032 256.864 322.202C253.487 330.195 250.12 338.223 247.112 346.377C244.103 354.53 241.05 362.541 238.132 370.712C236.485 375.346 234.989 380.025 233.642 384.748C233.64 384.768 233.644 384.788 233.654 384.804C233.664 384.821 233.68 384.834 233.698 384.841C233.717 384.849 233.737 384.85 233.756 384.844C233.775 384.838 233.792 384.827 233.803 384.811C237.476 376.927 240.565 368.827 243.627 360.682Z" fill="#263238"/>
<path opacity="0.1" d="M217.873 382.907L215.134 381.794C209.988 379.656 204.744 377.384 199.814 375.068C199.176 374.78 198.548 374.484 197.937 374.17C196.94 373.703 195.953 373.218 195.001 372.742C194.516 372.508 194.049 372.257 193.573 372.023L193.07 371.772L191.588 371C189.64 369.976 187.79 368.961 186.075 367.946C185.679 367.722 185.266 367.479 184.88 367.237C182.195 365.676 179.682 363.837 177.382 361.75C177.166 361.535 176.96 361.328 176.771 361.122C176.583 360.915 176.385 360.709 176.215 360.511C165.34 347.535 147.326 282.457 142.638 251.117C142.593 250.748 142.54 250.389 142.486 250.03C142.481 249.952 142.481 249.874 142.486 249.797C142.18 247.417 141.956 244.48 141.812 241.31C141.713 225.829 149.149 223.674 157.841 230.912C177.984 280.356 208.462 361.894 217.873 382.907Z" fill="black"/>
<path d="M188.58 399.224H41.0835C47.3156 371.431 73.1601 267.218 118.886 225.488L119.901 224.59C126.537 218.699 141.516 220.019 151.331 224.877C152.012 225.283 152.62 225.803 153.127 226.413C157.042 230.741 164.154 242.792 168.106 255.149C168.8 257.288 169.384 259.461 169.857 261.659C169.955 262.081 170.054 262.557 170.153 263.159C170.252 263.59 170.333 264.057 170.431 264.605C170.557 265.35 170.692 266.167 170.845 267.065C174.805 291.006 184.907 369.15 188.58 399.224Z" fill="#48ACF0"/>
<path d="M142.396 261.991L149.364 251.377L156.611 259.881L154.779 267.936L146.572 269.274L142.396 261.991Z" fill="#263238"/>
<path d="M146.572 269.274L145.754 362.055L157.77 390.908L168.662 359.685L154.779 267.936L146.572 269.274Z" fill="#263238"/>
<path d="M102.318 250.371C79.6167 299.833 64.216 381.856 78.2787 394.33C93.9398 408.213 123.448 349.986 122.173 347.077C121.203 344.877 121.912 291.958 122.981 253.272C124.05 214.586 107.931 238.14 102.318 250.371Z" fill="#D3766A"/>
<path d="M122.523 347.005C122.245 341.482 123.924 271.429 123.726 249.545C123.529 227.661 114.998 223.961 101.896 248.827C88.7942 273.692 69.4962 336.31 71.1575 371.368C72.756 405.133 88.471 402.744 104.006 381.246C111.655 370.694 117.88 359.182 122.523 347.005Z" fill="#48ACF0"/>
<path d="M122.353 356.048C121.508 329.862 121.898 303.674 123.52 277.482C124.37 303.668 123.981 329.856 122.353 356.048Z" fill="#263238"/>
<path d="M123.565 292.685C123.993 289.261 124.763 285.888 125.864 282.618C125.663 286.078 124.886 289.481 123.565 292.685Z" fill="#263238"/>
<path d="M82.2388 395.03C95.0353 403.911 121.85 399.053 182.815 389.175C191.247 387.801 193.591 324.223 184.494 325.22C173.054 326.477 128.935 333.822 125.783 334.774C99.1212 342.74 73.5552 389.005 82.2388 395.03Z" fill="#D3766A"/>
<path d="M195.935 321.484C213.661 318.089 218.735 319.939 232.169 309.136C240.996 302.042 249.312 304.646 244.615 315.422C236.946 333.086 214.981 342.263 206.468 343.26L195.935 321.484Z" fill="#D3766A"/>
<path d="M157.006 336.633C157.006 336.633 168.878 328.874 187.413 323.387C200.227 319.598 229.035 314.452 258.22 341.653C265.143 348.1 270.433 362.208 255.301 355.778C244.525 351.208 239.137 345.065 232.375 343.548C232.375 343.548 236.982 362.289 230.247 368.97C224.356 374.816 218.054 380.232 211.389 385.179C210.203 384.169 209.085 383.083 208.04 381.928C208.04 381.928 201.888 388.959 181.638 389.381L157.006 336.633Z" fill="#D3766A"/>
<path d="M200.254 321.726C206.621 324.645 220.01 331.056 229.152 340.117C239.29 350.184 256.092 372.292 248.611 379.71C243.107 385.143 235.941 377.258 235.941 377.258C235.941 377.258 240.969 387.873 234.926 391.689C229.421 395.173 224.24 388.744 224.24 388.744C224.24 388.744 226.179 395.703 220.234 398.038C213.05 400.84 210.177 385.798 200.478 382.368C198.251 381.65 200.254 321.726 200.254 321.726Z" fill="#D3766A"/>
<path d="M216.696 349.061C222.228 352.788 232.636 364.489 235.985 376.98C236.066 377.259 235.887 377.465 235.77 377.223C230.539 367.126 224.101 357.703 216.598 349.16C216.544 349.097 216.634 349.016 216.696 349.061Z" fill="#263238"/>
<path d="M206.836 359.595C211.281 363.304 221.474 375.84 224.428 388.609C224.491 388.897 224.311 389.094 224.195 388.843C219.492 378.497 213.636 368.716 206.738 359.685C206.684 359.622 206.773 359.55 206.836 359.595Z" fill="#263238"/>
<path d="M232.375 343.431C238.275 344.85 242.253 347.508 247.291 350.669C249.788 352.269 252.373 353.729 255.032 355.042C257.466 356.201 261.058 357.961 263.482 355.823C264.829 354.638 264.703 352.6 264.308 351.019C263.483 348.693 262.292 346.513 260.779 344.563C260.716 344.482 260.842 344.383 260.905 344.455C262.363 346.227 263.636 348.144 264.703 350.175C265.397 351.563 265.66 353.127 265.458 354.665C264.766 357.925 260.968 358.535 258.274 357.79C256.646 357.288 255.072 356.623 253.577 355.806C252.122 355.069 250.713 354.261 249.321 353.417C246.456 351.693 243.699 349.825 240.862 348.029C238.101 346.371 235.236 344.892 232.286 343.602C232.187 343.575 232.259 343.404 232.375 343.431Z" fill="#263238"/>
<path d="M245.594 363.286C243.924 360.044 235.069 346.637 232.259 343.575C232.243 343.559 232.235 343.538 232.235 343.516C232.235 343.494 232.243 343.473 232.259 343.458C232.274 343.442 232.295 343.434 232.317 343.434C232.339 343.434 232.36 343.442 232.375 343.458C237.135 347.526 245.001 358.571 246.878 362.145C248.755 365.719 250.91 370.227 251.117 374.232C251.431 380.312 247.453 381.668 245.98 382.036C244.225 382.444 242.384 382.238 240.763 381.452C238.858 380.414 237.186 378.996 235.851 377.285C235.779 377.205 235.851 377.088 235.958 377.16C238.186 379.45 241.813 381.65 245.091 381.039C245.817 380.93 246.514 380.678 247.141 380.297C247.769 379.917 248.314 379.415 248.746 378.821C249.573 377.312 249.831 375.556 249.473 373.873C248.962 370.119 247.318 366.617 245.594 363.286Z" fill="#263238"/>
<path d="M174.05 324.124L145.476 398.272C145.476 398.272 91.4793 405.456 79.1856 395.416C71.1036 388.807 95.2239 340.521 125.262 333.652L174.05 324.124Z" fill="#48ACF0"/>
<path d="M94.6941 355.608C98.0167 350.525 108.002 337.818 125.307 333.598C125.46 333.598 125.549 333.795 125.397 333.849C112.825 338.24 98.5016 351.154 94.8647 355.769C94.7839 355.886 94.6043 355.724 94.6941 355.608Z" fill="#263238"/>
<path d="M128.414 394.222C131.108 385.897 134.26 377.734 137.394 369.572C140.528 361.409 143.68 353.237 147.083 345.146C148.996 340.575 150.873 335.995 152.938 331.496C152.948 331.467 152.969 331.442 152.997 331.428C153.024 331.413 153.057 331.411 153.087 331.42C153.116 331.43 153.141 331.451 153.155 331.478C153.17 331.506 153.172 331.539 153.163 331.568C150.469 339.875 147.353 348.065 144.246 356.236C141.139 364.408 137.96 372.58 134.646 380.707C132.796 385.296 130.857 389.857 128.791 394.356C128.719 394.554 128.324 394.437 128.414 394.222Z" fill="#263238"/>
<path d="M173.862 323.37C170.466 323.621 167.091 324.098 163.759 324.798C160.401 325.408 157.06 326.073 153.72 326.764C147.083 328.147 132.868 330.311 121.329 334.747C121.203 334.792 122.092 335.17 122.227 335.107C127.615 332.718 170 325.543 173.332 324.537C173.276 324.797 173.243 325.062 173.233 325.327C173.233 325.507 173.467 325.66 173.592 325.48C173.889 325.049 174.05 324.582 174.32 324.151C174.372 324.072 174.402 323.981 174.405 323.886C174.408 323.792 174.384 323.698 174.336 323.617C174.288 323.535 174.218 323.469 174.134 323.425C174.051 323.381 173.956 323.362 173.862 323.37Z" fill="#263238"/>
<path d="M89.7371 399.664C79.2216 397.949 74.552 394.087 72.0555 383.563C68.8676 369.554 70.7893 355.015 72.8727 340.997C76.7072 318.547 82.8495 296.636 89.782 275.003C87.3305 284.881 83.7834 298.298 81.5204 308.023C76.7341 329.575 66.0479 371.323 75.881 391.187C78.7726 396.664 84.1157 398.227 89.7371 399.664Z" fill="#263238"/>
<path d="M86.7558 277.006C86.3607 280.481 85.759 283.822 86.1272 287.315C84.8161 284.028 85.4537 280.203 86.7558 277.006Z" fill="#263238"/>
<path d="M149.625 251.269C140.86 252.032 128.225 236.955 124.032 225.622C123.744 224.841 125.962 217.424 128.225 208.282C129.581 202.732 130.964 196.518 131.817 190.762C131.988 189.577 166.651 204.851 166.651 204.851C166.651 204.851 161.326 216.4 159.916 226.457C159.808 227.252 159.775 228.054 159.817 228.855C159.817 228.963 159.817 229.097 159.817 229.25C159.844 233.848 158.093 250.542 149.625 251.269Z" fill="#D3766A"/>
<path d="M134.009 191.274C134.251 201.26 136.846 225.676 156.063 228.945C157.293 229.169 158.54 229.286 159.79 229.295C159.808 229.161 159.808 229.025 159.79 228.891C159.759 228.091 159.789 227.289 159.88 226.493C161.308 216.427 166.642 204.879 166.642 204.879C166.642 204.879 141.633 193.824 134.009 191.274Z" fill="#263238"/>
<path d="M137.295 145.476C130.488 157.15 128.594 195.153 135.652 205.381C145.889 220.198 166.902 226.323 180.552 213.041C193.806 200.173 195.396 150.639 187.116 140.914C174.93 126.546 147.344 128.153 137.295 145.476Z" fill="#D3766A"/>
<path d="M167.926 177.157C167.926 177.058 167.719 177.274 167.719 177.382C167.719 179.941 167.217 182.868 164.864 183.614C164.792 183.614 164.792 183.766 164.864 183.757C167.728 183.488 168.312 179.6 167.926 177.157Z" fill="#263238"/>
<path d="M165.771 174.383C161.667 173.889 160.975 182.123 164.774 182.59C168.573 183.057 169.21 174.805 165.771 174.383Z" fill="#263238"/>
<path d="M182.213 178.441C182.213 178.343 182.402 178.576 182.393 178.684C182.096 181.225 182.186 184.189 184.422 185.23C184.494 185.23 184.476 185.392 184.422 185.374C181.603 184.736 181.522 180.803 182.213 178.441Z" fill="#263238"/>
<path d="M184.719 176.008C188.849 176.008 188.472 184.305 184.647 184.269C180.821 184.233 181.252 175.936 184.719 176.008Z" fill="#263238"/>
<path d="M163.059 168.932C164.184 168.807 165.302 168.625 166.408 168.384C167.693 168.159 168.734 168.114 169.722 167.171C169.972 166.878 170.117 166.509 170.135 166.124C170.153 165.739 170.042 165.359 169.821 165.043C168.788 163.741 167.127 163.624 165.591 163.831C164.017 163.986 162.557 164.722 161.496 165.896C160.365 167.091 161.532 169.03 163.059 168.932Z" fill="#263238"/>
<path d="M189.316 171.742C188.208 171.502 187.114 171.202 186.039 170.844C184.79 170.476 183.758 170.314 182.887 169.273C182.679 168.95 182.58 168.569 182.604 168.186C182.628 167.803 182.774 167.438 183.021 167.144C184.189 165.968 185.832 166.031 187.359 166.408C188.905 166.74 190.274 167.632 191.202 168.914C191.395 169.217 191.496 169.571 191.492 169.931C191.488 170.291 191.38 170.642 191.18 170.942C190.98 171.241 190.698 171.476 190.367 171.619C190.036 171.761 189.671 171.804 189.316 171.742Z" fill="#263238"/>
<path d="M160.634 199.688C161.146 200.37 161.631 201.277 162.538 201.484C163.483 201.607 164.444 201.53 165.358 201.259C165.376 201.255 165.395 201.257 165.412 201.264C165.429 201.271 165.444 201.284 165.454 201.299C165.463 201.315 165.468 201.334 165.467 201.352C165.466 201.371 165.459 201.389 165.448 201.403C165.011 201.848 164.463 202.166 163.861 202.324C163.258 202.482 162.624 202.474 162.026 202.301C161.526 202.094 161.1 201.74 160.803 201.287C160.507 200.833 160.354 200.301 160.365 199.76C160.356 199.607 160.553 199.589 160.634 199.688Z" fill="#263238"/>
<path d="M164.433 192.504C164.926 193.603 165.641 194.588 166.532 195.398C167.424 196.208 168.473 196.824 169.614 197.21C170.607 197.558 171.644 197.764 172.694 197.82C172.895 197.833 173.096 197.833 173.296 197.82H173.862C174.001 197.814 174.134 197.762 174.241 197.673C174.348 197.584 174.423 197.462 174.454 197.326C174.467 197.24 174.467 197.152 174.454 197.066V196.841C174.796 194.902 175.056 191.902 175.056 191.902C175.712 192.369 179.097 194.552 179.196 193.519C179.959 185.015 180.812 175.559 179.78 166.92C179.769 166.865 179.739 166.815 179.696 166.779C179.652 166.744 179.598 166.724 179.542 166.724C179.485 166.724 179.431 166.744 179.387 166.779C179.344 166.815 179.314 166.865 179.304 166.92C178.244 175.074 178.63 183.354 177.696 191.552C176.601 190.942 174.832 189.837 173.808 189.711C173.521 189.711 173.413 195.503 173.188 196.366C173.194 196.395 173.194 196.426 173.188 196.455C169.848 196.375 167.531 195.019 164.675 192.343C164.541 192.172 164.334 192.28 164.433 192.504Z" fill="#263238"/>
<path d="M171.689 196.662C170.411 197.895 168.837 198.776 167.118 199.221C166.175 199.431 165.191 199.346 164.298 198.979C162.349 198.135 162.583 196.285 163.194 194.74C163.524 193.93 163.949 193.161 164.46 192.45C166.361 194.586 168.893 196.061 171.689 196.662Z" fill="#263238"/>
<path d="M167.118 199.212C166.175 199.422 165.191 199.337 164.298 198.97C162.349 198.125 162.583 196.276 163.194 194.731C165.322 195.279 167.253 197.075 167.118 199.212Z" fill="#FF98B9"/>
<path d="M130.587 173.538C135.67 175.828 141.525 168.698 143.393 165.6C145.26 162.502 146.311 147.371 149.679 142.809C153.046 138.247 158.955 136.334 163.149 138.319C167.342 140.303 172.084 146.877 175.343 147.074C178.603 147.272 180.453 140.42 182.698 140.788C187.628 141.543 192.145 157.635 192.208 163.175C192.208 163.175 196.887 136.774 171.419 131.18C148.538 126.151 138.094 138.364 135.023 145.018C129.07 157.689 130.587 173.538 130.587 173.538Z" fill="#263238"/>
<path d="M160.526 189.837C158.471 189.468 156.561 188.531 155.012 187.13C153.464 185.729 152.34 183.922 151.768 181.914C151.196 179.906 151.199 177.778 151.777 175.771C152.355 173.765 153.485 171.961 155.037 170.565C156.59 169.169 158.503 168.237 160.559 167.875C162.616 167.512 164.732 167.735 166.668 168.516C168.605 169.297 170.283 170.607 171.511 172.294C172.74 173.982 173.471 175.981 173.619 178.064C173.827 181.013 172.856 183.924 170.92 186.158C168.984 188.392 166.241 189.767 163.292 189.981C162.368 190.051 161.439 190.003 160.526 189.837ZM164.208 169.345C163.417 169.208 162.612 169.165 161.811 169.219C159.361 169.396 157.071 170.501 155.407 172.307C153.743 174.114 152.83 176.487 152.855 178.943C152.879 181.399 153.839 183.754 155.539 185.527C157.238 187.3 159.55 188.359 162.002 188.487C164.455 188.616 166.865 187.805 168.74 186.219C170.616 184.633 171.817 182.392 172.098 179.952C172.379 177.512 171.72 175.057 170.254 173.086C168.788 171.115 166.626 169.777 164.208 169.345Z" fill="#EBEBEB"/>
<path d="M186.075 191.274C181.881 190.52 178.837 185.527 179.196 179.717C179.319 176.94 180.308 174.27 182.025 172.084C182.704 171.098 183.626 170.305 184.702 169.78C185.778 169.256 186.971 169.019 188.166 169.093C189.361 169.166 190.516 169.547 191.52 170.198C192.524 170.85 193.343 171.75 193.896 172.811C195.332 175.191 195.988 177.96 195.773 180.731C195.396 186.874 191.373 191.633 186.793 191.355C186.552 191.341 186.312 191.314 186.075 191.274ZM188.634 170.62C188.447 170.582 188.258 170.558 188.068 170.548C187.117 170.535 186.176 170.749 185.324 171.174C184.472 171.599 183.735 172.222 183.174 172.991C181.658 174.936 180.785 177.306 180.678 179.771C180.354 185.096 183.129 189.604 186.892 189.837C190.654 190.071 193.959 185.922 194.282 180.606C194.483 178.148 193.909 175.689 192.639 173.574C192.215 172.829 191.64 172.181 190.95 171.672C190.26 171.163 189.471 170.805 188.634 170.62Z" fill="#EBEBEB"/>
<path d="M173.17 179.331L172.272 178.127C174.068 176.816 178.064 175.146 180.606 178.226L179.456 179.169C177.193 176.412 173.314 179.214 173.17 179.331Z" fill="#EBEBEB"/>
<path d="M126.079 179.806L124.804 179.043C125.154 178.441 128.396 173.197 131.737 172.856C134.871 172.551 152.022 175.002 152.867 175.137L152.633 176.61C146.949 175.712 134.305 174.104 131.88 174.347C129.671 174.562 126.941 178.361 126.079 179.806Z" fill="#EBEBEB"/>
<path d="M138.112 176.906C138.112 176.906 132.365 163.31 126.367 165.115C120.368 166.92 122.927 185.392 128.728 189.083C129.44 189.607 130.249 189.982 131.109 190.185C131.969 190.389 132.861 190.416 133.732 190.266C134.602 190.116 135.433 189.791 136.176 189.312C136.918 188.832 137.555 188.208 138.05 187.475L138.112 176.906Z" fill="#D3766A"/>
<path d="M127.229 170.431C127.13 170.431 127.085 170.53 127.166 170.593C131.198 173.287 132.653 177.92 133.371 182.509C132.401 180.597 130.812 179.321 128.279 180.417C128.154 180.471 128.225 180.677 128.351 180.677C129.181 180.596 130.016 180.773 130.741 181.185C131.466 181.596 132.046 182.222 132.401 182.976C132.984 184.241 133.427 185.566 133.721 186.927C133.847 187.367 134.619 187.314 134.556 186.829C134.552 186.79 134.552 186.751 134.556 186.712C135.849 181.108 133.155 172.29 127.229 170.431Z" fill="#263238"/>
<path d="M159.844 228.173L148.861 246.878L125.576 218.609L118.761 227.337C118.761 227.337 139.145 268.08 139.468 266.356L149.293 250.73L159.988 263.347L161.873 234.539L159.844 228.173Z" fill="#48ACF0"/>
<path d="M161.757 249.159C161.9 244.39 162.188 239.595 162.098 234.791C162.098 234.62 161.829 234.521 161.775 234.71C160.329 239.2 159.88 257.42 159.431 261.758L159.377 261.704C158.937 261.165 149.409 250.551 149.293 250.694C147.254 253.128 140.052 264.506 139.54 265.556C136.316 259.082 122.478 233.462 118.509 227.257C118.392 227.077 118.114 227.185 118.195 227.391C120.943 234.162 138.768 267.918 139.073 267.864C139.262 268.035 148.197 254.035 149.364 251.341C150.927 253.595 160.437 265.449 160.535 264.748C161.228 259.578 161.636 254.374 161.757 249.159Z" fill="#263238"/>
<path d="M291.922 393.719H149.499V399.466H291.922V393.719Z" fill="#455A64"/>
<path d="M228.308 393.719H149.499V399.466H228.308V393.719Z" fill="#A6A6A6"/>
<path d="M225.919 399.457H350.741L368.387 314.677H243.556L225.919 399.457Z" fill="#A6A6A6"/>
<path d="M231.576 399.457H356.407L374.044 314.677H249.213L231.576 399.457Z" fill="#C7C7C7"/>
<path d="M294.49 358.967C294.35 360.018 294.439 361.087 294.751 362.1C295.063 363.114 295.591 364.048 296.298 364.838C297.006 365.628 297.876 366.256 298.849 366.678C299.822 367.1 300.874 367.306 301.935 367.282C304.211 367.232 306.393 366.364 308.081 364.837C309.77 363.31 310.852 361.226 311.13 358.967C311.27 357.915 311.181 356.846 310.869 355.832C310.557 354.818 310.029 353.883 309.322 353.093C308.615 352.302 307.745 351.673 306.772 351.25C305.799 350.827 304.746 350.62 303.686 350.642C301.408 350.692 299.225 351.562 297.536 353.09C295.847 354.619 294.766 356.705 294.49 358.967Z" fill="#EBEBEB"/>
<path d="M52.524 119.874C53.1909 126.287 55.6273 132.388 59.5611 137.497C63.495 142.605 68.7714 146.519 74.8011 148.802C80.8308 151.086 87.3765 151.648 93.7072 150.426C100.038 149.204 105.904 146.247 110.652 141.884L128.055 144.443L119.344 129.393C121.338 124.495 122.19 119.208 121.834 113.932C121.479 108.656 119.925 103.531 117.291 98.9457C114.658 94.3605 111.013 90.4359 106.636 87.4702C102.258 84.5046 97.2614 82.576 92.0264 81.8309C86.7913 81.0859 81.4553 81.544 76.4239 83.1705C71.3925 84.797 66.798 87.5491 62.9897 91.2176C59.1814 94.886 56.2595 99.3744 54.446 104.341C52.6326 109.309 51.9752 114.624 52.524 119.883V119.874Z" fill="white"/>
<path d="M62.9408 91.1468C66.7281 87.4033 71.3269 84.5827 76.3805 82.9039C81.4341 81.2251 86.8065 80.7332 92.0809 81.4664C97.3925 82.1619 102.474 84.0666 106.934 87.034C113.685 91.5457 118.67 98.251 121.046 106.016C123.422 113.78 123.043 122.127 119.973 129.644V129.042L128.63 144.12L129.267 145.233L128.01 145.045L110.625 142.351L111.029 142.225C106.196 146.603 100.237 149.545 93.823 150.72C92.2349 151.018 90.6252 151.186 89.0098 151.223C87.3993 151.31 85.7846 151.28 84.1785 151.133C77.7368 150.502 71.5923 148.114 66.4161 144.228C65.1291 143.268 63.9025 142.231 62.7433 141.12C61.6247 139.984 60.5723 138.785 59.5913 137.528C54.3887 130.723 51.8611 122.246 52.4866 113.702C53.1122 105.159 56.8474 97.1403 62.9857 91.1648L62.9408 91.1468ZM59.6541 137.394C60.647 138.657 61.7177 139.856 62.86 140.986C63.9923 142.092 65.1919 143.126 66.452 144.084C69.0138 145.987 71.8433 147.5 74.8483 148.574C77.8334 149.684 80.9585 150.373 84.1336 150.621C85.7183 150.729 87.3084 150.729 88.893 150.621C90.4803 150.556 92.0599 150.364 93.6165 150.047C99.8596 148.79 105.628 145.817 110.274 141.462L110.445 141.3H110.687L128.109 143.743L127.48 144.641L118.725 129.626L118.563 129.339L118.689 129.033C120.62 124.225 121.455 119.047 121.131 113.875C120.785 108.734 119.284 103.737 116.74 99.2557C114.14 94.7562 110.588 90.8792 106.332 87.896C102.04 84.9308 97.1244 82.9892 91.9642 82.2207C85.146 81.1652 78.1681 82.1848 71.9369 85.1468C65.7057 88.1088 60.5094 92.8765 57.0232 98.8302C53.5369 104.784 51.9219 111.649 52.3879 118.532C52.8538 125.416 55.3793 132 59.6362 137.43L59.6541 137.394Z" fill="#263238"/>
<path d="M82.8225 135.903L67.9606 120.861L72.9535 115.931L81.6372 124.714L99.669 96.4448L105.587 100.216L82.8225 135.903Z" fill="#48ACF0"/>
</svg>
