<svg width="53" height="53" viewBox="0 0 53 53" fill="none" xmlns="http://www.w3.org/2000/svg">
<path d="M26.5 52.1666C22.1444 52.1666 18.1389 51.1749 14.4833 49.1916C10.8278 47.2083 7.83333 44.5638 5.49999 41.2583V47.4999H0.833328V33.4999H14.8333V38.1666H9.05833C10.925 40.9666 13.3847 43.2221 16.4375 44.9333C19.4903 46.6444 22.8444 47.4999 26.5 47.4999C29.4167 47.4999 32.1486 46.9458 34.6958 45.8374C37.243 44.7291 39.4597 43.2319 41.3458 41.3458C43.2319 39.4596 44.7292 37.243 45.8375 34.6958C46.9458 32.1485 47.5 29.4166 47.5 26.4999H52.1667C52.1667 30.0388 51.4958 33.3638 50.1542 36.4749C48.8125 39.586 46.975 42.3083 44.6417 44.6416C42.3083 46.9749 39.5861 48.8124 36.475 50.1541C33.3639 51.4958 30.0389 52.1666 26.5 52.1666ZM24.4 42.8333V39.7999C22.5722 39.3721 21.0847 38.5846 19.9375 37.4374C18.7903 36.2902 17.9444 34.7833 17.4 32.9166L21.25 31.3999C21.7167 32.9944 22.4458 34.1902 23.4375 34.9874C24.4292 35.7846 25.5667 36.1833 26.85 36.1833C28.1333 36.1833 29.2319 35.8819 30.1458 35.2791C31.0597 34.6763 31.5167 33.7332 31.5167 32.4499C31.5167 31.3221 31.0403 30.4083 30.0875 29.7083C29.1347 29.0083 27.4333 28.211 24.9833 27.3166C22.6889 26.4999 21.0069 25.5277 19.9375 24.3999C18.868 23.2721 18.3333 21.7944 18.3333 19.9666C18.3333 18.3721 18.8875 16.9235 19.9958 15.6208C21.1042 14.318 22.6111 13.4721 24.5167 13.0833V10.1666H28.6V13.0833C30 13.1999 31.2736 13.7638 32.4208 14.7749C33.5681 15.786 34.3555 16.9721 34.7833 18.3333L31.05 19.8499C30.7389 18.9555 30.2333 18.2069 29.5333 17.6041C28.8333 17.0013 27.8611 16.6999 26.6167 16.6999C25.2556 16.6999 24.2153 16.9916 23.4958 17.5749C22.7764 18.1583 22.4167 18.9555 22.4167 19.9666C22.4167 20.9777 22.8639 21.7749 23.7583 22.3583C24.6528 22.9416 26.2667 23.6221 28.6 24.3999C31.4 25.411 33.2667 26.5971 34.2 27.9583C35.1333 29.3194 35.6 30.8166 35.6 32.4499C35.6 33.5777 35.4056 34.5694 35.0167 35.4249C34.6278 36.2805 34.1125 37.0096 33.4708 37.6124C32.8292 38.2152 32.0806 38.7013 31.225 39.0708C30.3694 39.4402 29.4556 39.7221 28.4833 39.9166V42.8333H24.4ZM0.833328 26.4999C0.833328 22.961 1.50416 19.636 2.84583 16.5249C4.18749 13.4138 6.02499 10.6916 8.35833 8.35825C10.6917 6.02492 13.4139 4.18742 16.525 2.84575C19.6361 1.50409 22.9611 0.833252 26.5 0.833252C30.8555 0.833252 34.8611 1.82492 38.5167 3.80825C42.1722 5.79158 45.1667 8.43603 47.5 11.7416V5.49992H52.1667V19.4999H38.1667V14.8333H43.9417C42.075 12.0333 39.6153 9.7777 36.5625 8.06659C33.5097 6.35547 30.1556 5.49992 26.5 5.49992C23.5833 5.49992 20.8514 6.05409 18.3042 7.16242C15.7569 8.27075 13.5403 9.76797 11.6542 11.6541C9.76805 13.5402 8.27083 15.7569 7.1625 18.3041C6.05416 20.8513 5.49999 23.5833 5.49999 26.4999H0.833328Z" fill="#48ACF0"/>
</svg>
