<svg width="475" height="475" viewBox="0 0 475 475" fill="none" xmlns="http://www.w3.org/2000/svg">
<circle cx="237.5" cy="237.5" r="237.5" fill="#C8E6FB" fill-opacity="0.24"/>
<circle cx="238.364" cy="233.182" r="172.727" fill="#A4D6F8" fill-opacity="0.22"/>
<g clip-path="url(#clip0_98_753)">
<path d="M224.32 165.887H142.206C141.803 165.886 141.417 165.726 141.132 165.441C140.846 165.156 140.686 164.77 140.686 164.366V143.997C140.686 143.594 140.846 143.208 141.132 142.923C141.417 142.638 141.803 142.477 142.206 142.477H224.32C224.723 142.477 225.109 142.638 225.395 142.923C225.68 143.208 225.84 143.594 225.84 143.997V164.366C225.84 164.77 225.68 165.156 225.395 165.441C225.109 165.726 224.723 165.886 224.32 165.887ZM142.206 143.085C141.964 143.085 141.732 143.182 141.561 143.353C141.39 143.524 141.294 143.756 141.294 143.997V164.366C141.294 164.608 141.39 164.84 141.561 165.011C141.732 165.182 141.964 165.278 142.206 165.279H224.32C224.562 165.278 224.794 165.182 224.965 165.011C225.136 164.84 225.232 164.608 225.232 164.366V143.997C225.232 143.756 225.136 143.524 224.965 143.353C224.794 143.182 224.562 143.085 224.32 143.085L142.206 143.085Z" fill="#3F3D56"/>
<path d="M154.965 159.595C158.386 159.595 161.159 156.821 161.159 153.4C161.159 149.979 158.386 147.206 154.965 147.206C151.544 147.206 148.771 149.979 148.771 153.4C148.771 156.821 151.544 159.595 154.965 159.595Z" fill="#48ACF0"/>
<path d="M169.271 149.271C168.997 149.271 168.734 149.38 168.541 149.573C168.347 149.767 168.238 150.029 168.238 150.303C168.238 150.577 168.347 150.84 168.541 151.033C168.734 151.227 168.997 151.336 169.271 151.336H217.939C218.213 151.336 218.476 151.227 218.669 151.033C218.863 150.84 218.972 150.577 218.972 150.303C218.972 150.029 218.863 149.767 218.669 149.573C218.476 149.38 218.213 149.271 217.939 149.271H169.271Z" fill="#E6E6E6"/>
<path d="M169.271 155.465C168.997 155.465 168.734 155.574 168.541 155.767C168.347 155.961 168.238 156.224 168.238 156.497C168.238 156.771 168.347 157.034 168.541 157.227C168.734 157.421 168.997 157.53 169.271 157.53H190.213C190.349 157.53 190.483 157.504 190.609 157.452C190.734 157.4 190.848 157.324 190.944 157.228C191.04 157.132 191.116 157.018 191.168 156.893C191.22 156.768 191.247 156.633 191.247 156.497C191.247 156.362 191.22 156.227 191.168 156.102C191.116 155.977 191.04 155.863 190.944 155.767C190.848 155.671 190.734 155.595 190.609 155.543C190.483 155.491 190.349 155.465 190.213 155.465H169.271Z" fill="#E6E6E6"/>
<path d="M188.671 238.493H152.176C151.773 238.492 151.386 238.332 151.101 238.047C150.816 237.762 150.656 237.375 150.655 236.972V198.964C150.656 198.561 150.816 198.174 151.101 197.889C151.386 197.604 151.773 197.444 152.176 197.443H188.671C189.074 197.444 189.461 197.604 189.746 197.889C190.031 198.174 190.191 198.561 190.192 198.964V236.972C190.191 237.375 190.031 237.762 189.746 238.047C189.461 238.332 189.074 238.492 188.671 238.493ZM152.176 198.052C151.934 198.052 151.702 198.148 151.531 198.319C151.36 198.49 151.264 198.722 151.264 198.964V236.972C151.264 237.214 151.36 237.446 151.531 237.617C151.702 237.788 151.934 237.884 152.176 237.884H188.671C188.913 237.884 189.145 237.788 189.316 237.617C189.487 237.446 189.583 237.214 189.583 236.972V198.964C189.583 198.722 189.487 198.49 189.316 198.319C189.145 198.148 188.913 198.052 188.671 198.052H152.176Z" fill="#3F3D56"/>
<path d="M159.952 205.281C159.679 205.281 159.416 205.39 159.222 205.584C159.029 205.777 158.92 206.04 158.92 206.314C158.92 206.587 159.029 206.85 159.222 207.044C159.416 207.237 159.679 207.346 159.952 207.346H180.895C181.168 207.346 181.431 207.237 181.625 207.044C181.818 206.85 181.927 206.587 181.927 206.314C181.927 206.04 181.818 205.777 181.625 205.584C181.431 205.39 181.168 205.281 180.895 205.281H159.952Z" fill="#E6E6E6"/>
<path d="M159.952 211.364C159.817 211.364 159.682 211.39 159.557 211.442C159.431 211.494 159.317 211.57 159.221 211.665C159.125 211.761 159.049 211.875 158.997 212.001C158.945 212.126 158.918 212.26 158.918 212.396C158.918 212.532 158.945 212.666 158.997 212.792C159.049 212.917 159.125 213.031 159.221 213.127C159.317 213.223 159.431 213.299 159.557 213.35C159.682 213.402 159.817 213.429 159.952 213.429H180.895C181.168 213.429 181.431 213.32 181.625 213.126C181.818 212.933 181.927 212.67 181.927 212.396C181.927 212.122 181.818 211.86 181.625 211.666C181.431 211.473 181.168 211.364 180.895 211.364H159.952Z" fill="#E6E6E6"/>
<path d="M170.424 230.655C169.138 230.655 167.882 230.274 166.813 229.56C165.745 228.845 164.912 227.831 164.42 226.643C163.928 225.456 163.799 224.149 164.05 222.889C164.301 221.628 164.92 220.47 165.829 219.561C166.737 218.653 167.895 218.034 169.156 217.783C170.416 217.532 171.723 217.661 172.91 218.153C174.098 218.645 175.113 219.478 175.827 220.546C176.541 221.615 176.922 222.871 176.922 224.156C176.92 225.879 176.235 227.531 175.016 228.749C173.798 229.967 172.146 230.653 170.424 230.655Z" fill="#48ACF0"/>
<path d="M248.456 112.273H284.951C285.354 112.273 285.741 112.434 286.026 112.719C286.311 113.004 286.471 113.39 286.472 113.793V151.801C286.471 152.205 286.311 152.591 286.026 152.876C285.741 153.161 285.354 153.322 284.951 153.322H248.456C248.053 153.322 247.666 153.161 247.381 152.876C247.096 152.591 246.936 152.205 246.935 151.801V113.793C246.936 113.39 247.096 113.004 247.381 112.719C247.666 112.434 248.053 112.273 248.456 112.273ZM284.951 152.714C285.193 152.713 285.425 152.617 285.596 152.446C285.767 152.275 285.863 152.043 285.863 151.801V113.793C285.863 113.551 285.767 113.32 285.596 113.148C285.425 112.977 285.193 112.881 284.951 112.881H248.456C248.214 112.881 247.982 112.977 247.811 113.148C247.64 113.32 247.544 113.551 247.544 113.793V151.801C247.544 152.043 247.64 152.275 247.811 152.446C247.982 152.617 248.214 152.713 248.456 152.714H284.951Z" fill="#3F3D56"/>
<path d="M277.175 145.484C277.448 145.484 277.711 145.375 277.905 145.182C278.098 144.988 278.207 144.725 278.207 144.452C278.207 144.178 278.098 143.915 277.905 143.722C277.711 143.528 277.448 143.419 277.175 143.419H256.232C255.958 143.419 255.696 143.528 255.502 143.722C255.309 143.915 255.2 144.178 255.2 144.452C255.2 144.725 255.309 144.988 255.502 145.182C255.696 145.375 255.958 145.484 256.232 145.484H277.175Z" fill="#E6E6E6"/>
<path d="M277.175 139.402C277.448 139.402 277.711 139.293 277.905 139.099C278.098 138.906 278.207 138.643 278.207 138.369C278.207 138.095 278.098 137.833 277.905 137.639C277.711 137.446 277.448 137.337 277.175 137.337H256.232C255.958 137.337 255.696 137.446 255.502 137.639C255.309 137.833 255.2 138.095 255.2 138.369C255.2 138.643 255.309 138.906 255.502 139.099C255.696 139.293 255.958 139.402 256.232 139.402H277.175Z" fill="#E6E6E6"/>
<path d="M266.703 120.111C267.989 120.111 269.245 120.492 270.314 121.206C271.382 121.92 272.215 122.935 272.707 124.122C273.199 125.31 273.327 126.616 273.077 127.877C272.826 129.137 272.207 130.295 271.298 131.204C270.389 132.113 269.232 132.732 267.971 132.982C266.711 133.233 265.404 133.104 264.217 132.613C263.029 132.121 262.014 131.288 261.3 130.219C260.586 129.151 260.205 127.894 260.205 126.609C260.207 124.886 260.892 123.234 262.11 122.016C263.329 120.798 264.98 120.113 266.703 120.111Z" fill="#48ACF0"/>
<path d="M141.155 190.906C147.613 185.904 155.158 182.493 163.179 180.949C171.264 179.409 179.601 179.837 187.486 182.198C191.449 183.378 195.257 185.028 198.829 187.113C202.468 189.24 205.756 191.859 208.92 194.632C212.125 197.441 215.224 200.375 218.57 203.019C228.122 210.654 239.98 214.826 252.209 214.853C253.219 214.854 254.229 214.826 255.237 214.769C255.784 214.739 255.788 213.884 255.237 213.914C242.772 214.601 230.463 210.881 220.464 203.407C216.997 200.814 213.83 197.849 210.598 194.976C207.464 192.191 204.246 189.481 200.691 187.243C191.994 181.764 181.877 178.968 171.601 179.202C161.325 179.436 151.345 182.691 142.907 188.56C142.105 189.118 141.321 189.701 140.55 190.301C140.117 190.639 140.725 191.24 141.155 190.906Z" fill="#3F3D56"/>
<path d="M140.701 195.036C143.154 195.036 145.142 193.048 145.142 190.595C145.142 188.142 143.154 186.154 140.701 186.154C138.248 186.154 136.26 188.142 136.26 190.595C136.26 193.048 138.248 195.036 140.701 195.036Z" fill="#3F3D56"/>
<path d="M305.915 254C308.368 254 310.356 252.012 310.356 249.559C310.356 247.107 308.368 245.118 305.915 245.118C303.462 245.118 301.474 247.107 301.474 249.559C301.474 252.012 303.462 254 305.915 254Z" fill="#3F3D56"/>
<path d="M329.18 224.261H256.717C256.313 224.261 255.927 224.101 255.642 223.815C255.357 223.53 255.196 223.144 255.196 222.741V185.037C255.196 184.634 255.357 184.247 255.642 183.962C255.927 183.677 256.313 183.517 256.717 183.516H329.18C329.583 183.517 329.97 183.677 330.255 183.962C330.54 184.247 330.7 184.634 330.701 185.037V222.741C330.7 223.144 330.54 223.53 330.255 223.815C329.97 224.101 329.583 224.261 329.18 224.261ZM256.717 184.124C256.475 184.125 256.243 184.221 256.072 184.392C255.901 184.563 255.805 184.795 255.804 185.037V222.741C255.805 222.983 255.901 223.215 256.072 223.386C256.243 223.557 256.475 223.653 256.717 223.653H329.18C329.422 223.653 329.654 223.557 329.825 223.386C329.996 223.215 330.092 222.983 330.093 222.741V185.037C330.092 184.795 329.996 184.563 329.825 184.392C329.654 184.221 329.422 184.125 329.18 184.124H256.717Z" fill="#3F3D56"/>
<path d="M268.867 203.067C272.288 203.067 275.061 200.294 275.061 196.873C275.061 193.452 272.288 190.678 268.867 190.678C265.446 190.678 262.673 193.452 262.673 196.873C262.673 200.294 265.446 203.067 268.867 203.067Z" fill="#48ACF0"/>
<path d="M283.173 192.743C283.037 192.743 282.903 192.769 282.777 192.821C282.652 192.873 282.538 192.949 282.442 193.045C282.346 193.141 282.269 193.255 282.217 193.38C282.165 193.505 282.139 193.64 282.139 193.776C282.139 193.911 282.165 194.046 282.217 194.171C282.269 194.296 282.346 194.41 282.442 194.506C282.538 194.602 282.652 194.678 282.777 194.73C282.903 194.782 283.037 194.808 283.173 194.808H322.192C322.465 194.808 322.728 194.699 322.922 194.506C323.115 194.312 323.224 194.049 323.224 193.776C323.224 193.502 323.115 193.239 322.922 193.046C322.728 192.852 322.465 192.743 322.192 192.743H283.173Z" fill="#E6E6E6"/>
<path d="M283.173 198.937C283.037 198.937 282.903 198.964 282.777 199.015C282.652 199.067 282.538 199.143 282.442 199.239C282.346 199.335 282.269 199.449 282.217 199.574C282.165 199.7 282.139 199.834 282.139 199.97C282.139 200.105 282.165 200.24 282.217 200.365C282.269 200.491 282.346 200.605 282.442 200.7C282.538 200.796 282.652 200.872 282.777 200.924C282.903 200.976 283.037 201.002 283.173 201.002H304.115C304.389 201.002 304.651 200.893 304.845 200.7C305.039 200.506 305.147 200.244 305.147 199.97C305.147 199.696 305.039 199.433 304.845 199.24C304.651 199.046 304.389 198.937 304.115 198.937H283.173Z" fill="#E6E6E6"/>
<path d="M264.116 208.84C263.331 208.84 262.692 209.303 262.692 209.872C262.692 210.442 263.331 210.905 264.116 210.905H321.614C322.399 210.905 323.038 210.442 323.038 209.872C323.038 209.303 322.399 208.84 321.614 208.84H264.116Z" fill="#E6E6E6"/>
<path d="M264.116 215.034C263.331 215.034 262.692 215.497 262.692 216.067C262.692 216.636 263.331 217.099 264.116 217.099H321.614C322.399 217.099 323.038 216.636 323.038 216.067C323.038 215.497 322.399 215.034 321.614 215.034H264.116Z" fill="#E6E6E6"/>
<path d="M250.892 253.694C254.98 251.92 259.544 253.467 263.397 255.101C265.382 255.943 267.345 256.841 269.399 257.506C271.127 258.064 272.896 258.483 274.69 258.76C278.291 259.312 281.953 259.334 285.56 258.827C289.186 258.321 292.719 257.294 296.05 255.776C299.363 254.275 302.425 252.273 305.129 249.841C305.473 249.53 305.81 249.212 306.141 248.887C306.534 248.502 305.93 247.898 305.537 248.283C302.933 250.821 299.943 252.931 296.68 254.535C293.43 256.133 289.963 257.247 286.39 257.841C282.805 258.445 279.15 258.508 275.547 258.028C273.749 257.785 271.974 257.399 270.238 256.874C268.244 256.225 266.287 255.465 264.378 254.598C260.489 252.928 256.168 251.292 251.894 252.444C251.404 252.579 250.925 252.751 250.46 252.956C249.957 253.174 250.392 253.911 250.892 253.694Z" fill="#3F3D56"/>
<path d="M249.312 264.175H215.077L223.133 250.22C223.278 249.97 223.486 249.762 223.736 249.618C223.986 249.473 224.269 249.397 224.558 249.397C224.847 249.397 225.131 249.473 225.381 249.618C225.631 249.762 225.839 249.97 225.983 250.22L229.425 256.181L235.277 246.045C235.458 245.732 235.718 245.472 236.031 245.291C236.344 245.11 236.699 245.015 237.061 245.015C237.422 245.015 237.778 245.11 238.091 245.291C238.404 245.472 238.664 245.732 238.845 246.045L249.312 264.175Z" fill="#48ACF0"/>
<path d="M249.344 264.171H212.849C212.446 264.171 212.06 264.01 211.775 263.725C211.49 263.44 211.329 263.054 211.329 262.65V242.282C211.329 241.878 211.49 241.492 211.775 241.207C212.06 240.922 212.446 240.761 212.849 240.761H249.344C249.748 240.761 250.134 240.922 250.419 241.207C250.704 241.492 250.865 241.878 250.865 242.282V262.65C250.865 263.054 250.704 263.44 250.419 263.725C250.134 264.01 249.748 264.171 249.344 264.171ZM212.849 241.369C212.608 241.37 212.376 241.466 212.205 241.637C212.034 241.808 211.937 242.04 211.937 242.282V262.65C211.937 262.892 212.034 263.124 212.205 263.295C212.376 263.466 212.608 263.563 212.849 263.563H249.344C249.586 263.563 249.818 263.466 249.989 263.295C250.16 263.124 250.257 262.892 250.257 262.65V242.282C250.257 242.04 250.16 241.808 249.989 241.637C249.818 241.466 249.586 241.37 249.344 241.369H212.849Z" fill="#3F3D56"/>
<path d="M320.925 246.244L314.42 249.548C312.098 250.727 309.857 250.525 308.999 248.067C308.795 247.482 308.719 246.859 308.778 246.242C308.836 245.626 309.028 245.029 309.338 244.492C309.649 243.956 310.072 243.494 310.578 243.136C311.084 242.778 311.661 242.535 312.271 242.421L318.453 241.267L344.932 232.482L360.972 221.108L366.851 230.476L348.318 240.477L320.925 246.244Z" fill="#FFB8B8"/>
<path d="M351.291 355.891L346.314 355.061L346.867 345.66H352.121L351.291 355.891Z" fill="#FFB8B8"/>
<path d="M399.596 346.709L394.78 348.211L391.036 339.57L395.726 337.202L399.596 346.709Z" fill="#FFB8B8"/>
<path d="M396.914 338.471L390.831 340.96L361.798 302.802L352.674 347.596L346.59 346.49C342.688 307.872 339.506 268.482 343.411 249.852L365.946 248.884L376.176 281.512L381.153 303.632L396.914 338.471Z" fill="#2F2E41"/>
<path d="M351.017 363.494C350.107 363.689 349.159 363.588 348.31 363.206L345.353 361.876C342.874 361.748 341.186 362.242 339.806 360.441C339.417 359.926 339.172 359.316 339.098 358.675C339.023 358.034 339.122 357.384 339.384 356.794C339.643 356.202 340.055 355.689 340.578 355.309C341.1 354.928 341.715 354.694 342.358 354.63L346.419 352.071L346.632 353.989C348.488 355.041 350.692 354.586 353.027 353.563L354.301 358.024C354.466 358.599 354.51 359.202 354.432 359.795C354.354 360.388 354.154 360.959 353.846 361.472C353.539 361.985 353.128 362.429 352.642 362.777C352.155 363.124 351.602 363.369 351.017 363.494Z" fill="#2F2E41"/>
<path d="M401.567 354.343C400.77 354.823 399.84 355.036 398.913 354.95L395.685 354.652C393.299 355.337 391.863 356.352 389.972 355.096C389.437 354.736 389.007 354.238 388.729 353.656C388.45 353.074 388.333 352.427 388.388 351.784C388.441 351.14 388.664 350.521 389.035 349.992C389.406 349.462 389.911 349.041 390.499 348.771L393.509 345.032L394.333 346.777C396.43 347.169 398.367 346.024 400.243 344.298L402.897 348.103C403.239 348.594 403.477 349.149 403.596 349.736C403.714 350.322 403.711 350.927 403.586 351.512C403.462 352.097 403.218 352.65 402.871 353.137C402.523 353.624 402.08 354.035 401.567 354.343Z" fill="#2F2E41"/>
<path d="M357.651 209.621C363.148 209.621 367.605 205.164 367.605 199.667C367.605 194.169 363.148 189.713 357.651 189.713C352.153 189.713 347.697 194.169 347.697 199.667C347.697 205.164 352.153 209.621 357.651 209.621Z" fill="#FFB8B8"/>
<path d="M369.817 220.681L356.821 217.916L355.162 207.133L364.287 205.197L369.817 220.681Z" fill="#FFB8B8"/>
<path d="M366.222 250.267H342.996L348.231 237.123C347.851 232.6 349.768 229.274 352.511 226.378L355.992 217.639C361.615 213.938 365.855 214.215 370.37 219.022C375.723 226.601 372.017 237.994 366.222 250.267Z" fill="#48ACF0"/>
<path d="M355.715 278.194L355.054 285.459C354.819 288.053 353.457 289.844 350.918 289.263C350.314 289.125 349.747 288.858 349.256 288.481C348.764 288.103 348.36 287.624 348.072 287.076C347.783 286.527 347.616 285.923 347.582 285.305C347.548 284.686 347.648 284.067 347.876 283.491L350.185 277.641L356.821 250.543L355.715 230.912H366.775L365.393 251.926L355.715 278.194Z" fill="#FFB8B8"/>
<path d="M367.605 231.465H354.886L355.777 223.167C355.836 221.732 356.429 220.371 357.44 219.351C358.451 218.331 359.806 217.725 361.241 217.654C362.001 217.616 362.761 217.729 363.477 217.986C364.193 218.244 364.851 218.641 365.413 219.155C365.974 219.669 366.429 220.288 366.749 220.979C367.069 221.669 367.25 222.416 367.28 223.177L367.605 231.465Z" fill="#48ACF0"/>
<path d="M369.97 189.432C372.037 189.432 373.712 187.757 373.712 185.69C373.712 183.624 372.037 181.949 369.97 181.949C367.904 181.949 366.229 183.624 366.229 185.69C366.229 187.757 367.904 189.432 369.97 189.432Z" fill="#2F2E41"/>
<path d="M366.115 184.774C366.176 183.825 366.597 182.935 367.292 182.285C367.987 181.636 368.903 181.275 369.855 181.277C369.777 181.268 369.701 181.256 369.622 181.251C368.632 181.188 367.658 181.52 366.913 182.175C366.168 182.831 365.714 183.755 365.65 184.744C365.587 185.734 365.919 186.709 366.574 187.454C367.228 188.199 368.152 188.654 369.142 188.718C369.221 188.723 369.298 188.721 369.376 188.721C368.432 188.602 367.57 188.127 366.964 187.394C366.358 186.66 366.054 185.724 366.115 184.774Z" fill="#2F2E41"/>
<path d="M366.094 186.372C362.757 183.604 353.186 187.122 352.569 188.983C348.056 189.598 344.64 192.231 344.64 196.912C347.323 198.011 350.374 197.875 353.672 196.912C358.93 201.196 359.29 206.583 356.093 212.769L360.026 212.848L364.902 205.721L365.135 212.95L374.152 212.769V202.41C374.181 198.966 373.389 195.564 371.84 192.488C370.435 189.758 368.254 188.164 366.094 186.372Z" fill="#2F2E41"/>
<path d="M357.697 204.674C358.685 204.674 359.486 203.553 359.486 202.169C359.486 200.786 358.685 199.664 357.697 199.664C356.709 199.664 355.908 200.786 355.908 202.169C355.908 203.553 356.709 204.674 357.697 204.674Z" fill="#FFB8B8"/>
<path d="M132.576 205.348C132.576 205.348 133.653 186.706 139.245 190.942C144.836 195.178 136.803 207.077 136.803 207.077L132.576 205.348Z" fill="#FFB9B9"/>
<path d="M111.774 260.644C111.774 260.644 124.194 274.587 117.245 275.545C110.297 276.504 107.563 262.41 107.563 262.41L111.774 260.644Z" fill="#FFB9B9"/>
<path d="M95.5669 194.643C97.1258 195.053 98.5287 195.915 99.5994 197.12C100.67 198.325 101.361 199.819 101.585 201.415L105.536 229.535L111.075 251.966C111.075 251.966 113.844 254.458 112.736 255.843C111.628 257.227 114.121 263.043 114.121 263.043L107.198 265.258C107.198 265.258 106.367 259.443 104.982 259.166C103.765 258.923 90.1438 222.534 86.8604 213.719C86.4077 212.503 86.1516 211.812 86.1516 211.812C86.1516 211.812 86.7054 193.258 95.5669 194.643Z" fill="#575A89"/>
<path d="M96.8314 341.285L101.084 348.821C104.377 355.851 101.45 357.128 93.3764 353.643L91.5359 344.745L96.8314 341.285Z" fill="#FFB9B9"/>
<path d="M98.977 351.3C98.977 351.3 100.996 348.014 101.726 348.564C102.456 349.114 105.467 351.498 105.467 351.498L109.39 355.255C109.39 355.255 122.643 356.656 114.222 361.299C105.8 365.943 101.147 362.093 101.147 362.093C101.147 362.093 89.3522 362.706 89.5425 359.415C89.7328 356.125 93.5366 350.919 93.5366 350.919C93.5366 350.919 98.3307 354.133 98.977 351.3Z" fill="#2F2E41"/>
<path d="M77.9617 256.105L81.9483 304.343C81.9483 304.343 82.0812 333.179 86.3335 338.76C90.5858 344.341 90.7187 347.132 90.7187 347.132L99.4891 342.614C99.4891 342.614 94.971 335.085 95.9012 333.933C96.4746 333.202 96.8827 332.355 97.0972 331.451L94.7053 301.685L99.2234 249.86L77.9617 256.105Z" fill="#2F2E41"/>
<path d="M88.8582 341.285L85.1374 351.118L76.6992 347.591L81.1509 340.222L88.8582 341.285Z" fill="#FFB9B9"/>
<path d="M82.6509 347.806C82.6509 347.806 85.8157 345.828 86.2113 346.62C86.6069 347.411 88.1893 350.773 88.1893 350.773L89.9695 355.718C89.9695 355.718 100.848 362.641 91.5518 363.037C82.2553 363.432 79.8817 358.092 79.8817 358.092C79.8817 358.092 69.3985 353.542 70.9808 350.773C72.5632 348.004 78.1016 345.132 78.1016 345.132C78.1016 345.132 80.8707 349.982 82.6509 347.806Z" fill="#2F2E41"/>
<path d="M111.715 256.238L113.841 300.622C113.841 300.622 94.4395 340.753 92.3133 341.816C91.6798 342.144 91.1182 342.594 90.6617 343.142C90.2053 343.69 89.8632 344.323 89.6556 345.006L77.9617 342.082L83.2772 333.578L94.9711 305.14C94.9711 305.14 96.8314 304.343 97.363 301.685C97.8945 299.027 98.9576 299.027 96.2999 298.496C93.6422 297.964 93.6422 295.307 93.6422 295.307L84.8718 254.909L111.715 256.238Z" fill="#2F2E41"/>
<path d="M112.64 177.678C113.581 171.883 109.645 166.423 103.85 165.482C98.0543 164.542 92.5938 168.477 91.6533 174.273C90.7128 180.068 94.6486 185.529 100.444 186.469C106.239 187.41 111.7 183.474 112.64 177.678Z" fill="#FFB9B9"/>
<path d="M92.712 176.64C92.712 176.64 91.9147 190.194 90.8517 191.523C89.7886 192.852 102.014 192.586 102.014 192.586C102.014 192.586 101.217 181.158 102.014 180.095C102.811 179.032 92.712 176.64 92.712 176.64Z" fill="#FFB9B9"/>
<path d="M112.511 259.162C112.511 259.162 82.4788 256.505 76.899 259.162C76.899 259.162 78.9531 251.542 78.4224 250.746C78.0364 250.164 79.1013 228.458 78.767 215.937C78.5775 208.872 76.9473 201.972 81.6861 196.727C83.2991 194.945 85.0981 193.449 86.9971 192.718C86.9971 192.718 86.4663 187.669 89.1235 187.404C89.1235 187.404 99.225 186.339 102.944 189.531C104.133 190.544 104.881 193.632 104.96 196.292C103.119 205.343 103.771 215.386 105.46 225.804C105.563 226.466 105.677 227.131 105.79 227.796C107.583 238.129 110.291 248.781 112.511 259.162Z" fill="#575A89"/>
<path d="M96.5932 179.108C97.4922 179.054 98.3701 179.358 99.2629 179.477C102.457 179.901 105.78 177.583 106.485 174.439C106.542 174.02 106.667 173.614 106.855 173.235C107.346 172.433 108.466 172.28 109.389 172.464C110.312 172.649 111.187 173.081 112.127 173.13C113.578 173.206 114.971 172.313 115.745 171.082C116.476 169.813 116.786 168.345 116.633 166.889L115.937 167.619C115.654 167.021 115.545 166.355 115.622 165.698C115.253 165.6 114.866 165.598 114.496 165.693C114.126 165.787 113.787 165.975 113.511 166.238C112.897 166.304 113.36 165.1 112.905 164.685C112.683 164.548 112.419 164.499 112.163 164.546C110.858 164.558 109.802 163.56 108.774 162.757C106.992 161.367 104.908 160.417 102.691 159.982C101.217 159.695 99.6501 159.648 98.2525 160.197C97.1242 160.704 96.106 161.426 95.2551 162.323C93.0671 164.427 91.1295 166.899 90.2192 169.795C89.4792 172.167 89.4582 174.705 90.159 177.089C90.5258 178.327 91.6312 182.567 93.2495 182.665C95.283 182.789 94.0621 179.259 96.5932 179.108Z" fill="#2F2E41"/>
<path d="M100.993 195.948L104.802 196.356C104.802 196.356 108.541 203.609 108.269 205.122C107.998 206.635 107.407 205.717 109.089 208.137C110.772 210.558 115.547 216.815 116.138 217.733C116.73 218.652 132.85 206.353 131.848 202.668C131.848 202.668 136.939 206.32 139.12 206.806C139.12 206.806 122.507 228.594 120.192 231.382C117.877 234.17 116.014 233.598 112.832 231.944C109.651 230.291 93.5553 213.801 93.5553 213.801L100.993 195.948Z" fill="#575A89"/>
<path opacity="0.1" d="M105.79 227.796L92.5527 214.558L95.9026 213.466L105.46 225.804C105.563 226.466 105.677 227.131 105.79 227.796Z" fill="black"/>
</g>
<defs>
<clipPath id="clip0_98_753">
<rect width="332.865" height="251.318" fill="white" transform="translate(70.8182 112.273)"/>
</clipPath>
</defs>
</svg>
