<svg width="53" height="48" viewBox="0 0 53 48" fill="none" xmlns="http://www.w3.org/2000/svg">
<path d="M26.2023 42.6741C26.3579 42.6741 26.5135 42.6352 26.669 42.5574C26.8246 42.4796 26.9412 42.4019 27.019 42.3241L46.1524 23.1907C46.619 22.7241 46.9593 22.1991 47.1732 21.6157C47.3871 21.0324 47.494 20.4491 47.494 19.8657C47.494 19.2435 47.3871 18.6505 47.1732 18.0866C46.9593 17.5227 46.619 17.0269 46.1524 16.5991L36.2357 6.68241C35.8079 6.21574 35.3121 5.87546 34.7482 5.66157C34.1843 5.44768 33.5912 5.34074 32.969 5.34074C32.3857 5.34074 31.8024 5.44768 31.219 5.66157C30.6357 5.87546 30.1107 6.21574 29.644 6.68241L29.0023 7.32407L33.319 11.6991C33.9023 12.2435 34.3301 12.8657 34.6023 13.5657C34.8746 14.2657 35.0107 15.0046 35.0107 15.7824C35.0107 17.4157 34.4565 18.7866 33.3482 19.8949C32.2399 21.0032 30.869 21.5574 29.2357 21.5574C28.4579 21.5574 27.7093 21.4213 26.9898 21.1491C26.2704 20.8769 25.6385 20.4685 25.094 19.9241L20.719 15.6074L10.5107 25.8157C10.394 25.9324 10.3065 26.0588 10.2482 26.1949C10.1898 26.331 10.1607 26.4769 10.1607 26.6324C10.1607 26.9435 10.2773 27.2255 10.5107 27.4782C10.744 27.731 11.0162 27.8574 11.3273 27.8574C11.4829 27.8574 11.6385 27.8185 11.794 27.7407C11.9496 27.663 12.0662 27.5852 12.144 27.5074L20.0773 19.5741L23.344 22.8407L15.469 30.7741C15.3523 30.8907 15.2648 31.0171 15.2065 31.1532C15.1482 31.2894 15.119 31.4352 15.119 31.5907C15.119 31.9019 15.2357 32.1741 15.469 32.4074C15.7023 32.6407 15.9746 32.7574 16.2857 32.7574C16.4412 32.7574 16.5968 32.7185 16.7523 32.6407C16.9079 32.563 17.0246 32.4852 17.1023 32.4074L25.0357 24.5324L28.3023 27.7991L20.4273 35.7324C20.3107 35.8102 20.2232 35.9269 20.1648 36.0824C20.1065 36.238 20.0773 36.3935 20.0773 36.5491C20.0773 36.8602 20.194 37.1324 20.4273 37.3657C20.6607 37.5991 20.9329 37.7157 21.244 37.7157C21.3996 37.7157 21.5454 37.6866 21.6815 37.6282C21.8176 37.5699 21.944 37.4824 22.0607 37.3657L29.994 29.4907L33.2607 32.7574L25.3273 40.6907C25.2107 40.8074 25.1232 40.9338 25.0648 41.0699C25.0065 41.206 24.9773 41.3519 24.9773 41.5074C24.9773 41.8185 25.1037 42.0907 25.3565 42.3241C25.6093 42.5574 25.8912 42.6741 26.2023 42.6741ZM26.144 47.3407C24.7051 47.3407 23.4315 46.8644 22.3232 45.9116C21.2148 44.9588 20.5635 43.763 20.369 42.3241C19.0468 42.1296 17.9385 41.5852 17.044 40.6907C16.1496 39.7963 15.6051 38.688 15.4107 37.3657C14.0885 37.1713 12.9898 36.6171 12.1148 35.7032C11.2398 34.7894 10.7051 33.6907 10.5107 32.4074C9.0329 32.213 7.82735 31.5713 6.89402 30.4824C5.96068 29.3935 5.49402 28.1102 5.49402 26.6324C5.49402 25.8546 5.63985 25.106 5.93152 24.3866C6.22318 23.6671 6.64124 23.0352 7.18568 22.4907L20.719 9.01574L28.3607 16.6574C28.4385 16.7741 28.5551 16.8616 28.7107 16.9199C28.8662 16.9782 29.0218 17.0074 29.1773 17.0074C29.5273 17.0074 29.819 16.9005 30.0523 16.6866C30.2857 16.4727 30.4023 16.1907 30.4023 15.8407C30.4023 15.6852 30.3732 15.5296 30.3148 15.3741C30.2565 15.2185 30.169 15.1019 30.0523 15.0241L21.7107 6.68241C21.2829 6.21574 20.7871 5.87546 20.2232 5.66157C19.6593 5.44768 19.0662 5.34074 18.444 5.34074C17.8607 5.34074 17.2773 5.44768 16.694 5.66157C16.1107 5.87546 15.5857 6.21574 15.119 6.68241L6.89402 14.9657C6.54402 15.3157 6.25235 15.7241 6.01902 16.1907C5.78568 16.6574 5.63013 17.1241 5.55235 17.5907C5.47457 18.0574 5.47457 18.5338 5.55235 19.0199C5.63013 19.506 5.78568 19.963 6.01902 20.3907L2.63568 23.7741C1.97457 22.8796 1.48846 21.8977 1.17735 20.8282C0.866238 19.7588 0.749572 18.6796 0.827349 17.5907C0.905127 16.5019 1.17735 15.4421 1.64402 14.4116C2.11068 13.381 2.75235 12.4574 3.56902 11.6407L11.794 3.41574C12.7273 2.52129 13.7676 1.84074 14.9148 1.37407C16.0621 0.907406 17.2385 0.674072 18.444 0.674072C19.6496 0.674072 20.826 0.907406 21.9732 1.37407C23.1204 1.84074 24.1412 2.52129 25.0357 3.41574L25.6773 4.05741L26.319 3.41574C27.2523 2.52129 28.2926 1.84074 29.4398 1.37407C30.5871 0.907406 31.7635 0.674072 32.969 0.674072C34.1746 0.674072 35.351 0.907406 36.4982 1.37407C37.6454 1.84074 38.6662 2.52129 39.5607 3.41574L49.419 13.2741C50.3135 14.1685 50.994 15.1991 51.4607 16.3657C51.9273 17.5324 52.1607 18.7185 52.1607 19.9241C52.1607 21.1296 51.9273 22.306 51.4607 23.4532C50.994 24.6005 50.3135 25.6213 49.419 26.5157L30.2857 45.5907C29.7412 46.1352 29.1093 46.563 28.3898 46.8741C27.6704 47.1852 26.9218 47.3407 26.144 47.3407Z" fill="#48ACF0"/>
</svg>
