<svg width="326" height="460" viewBox="0 0 326 460" fill="none" xmlns="http://www.w3.org/2000/svg">
<path d="M0.459031 458.169C0.454736 458.377 0.499521 458.583 0.589744 458.77C0.614816 458.836 0.657575 458.894 0.713371 458.938C0.769166 458.981 0.835862 459.009 0.906212 459.017H325.094C325.341 459.017 325.541 458.638 325.541 458.169C325.541 457.701 325.341 457.322 325.094 457.322H0.90392C0.833468 457.33 0.76665 457.357 0.710746 457.401C0.654842 457.445 0.611991 457.503 0.586874 457.569C0.497641 457.756 0.453843 457.962 0.459031 458.169Z" fill="#CCCCCC"/>
<path d="M93.5829 299.75C93.5829 295.93 94.866 292.829 96.4409 292.822H215.105C216.688 292.829 217.963 295.93 217.972 299.75V457.009C217.972 457.364 218.104 457.706 218.342 457.968C218.581 458.231 218.908 458.395 219.261 458.43C220.413 458.541 221.566 458.644 222.719 458.739C222.747 458.739 222.776 458.746 222.804 458.746C223.431 458.803 224.059 458.845 224.686 458.895H224.693C225.016 458.299 225.335 457.697 225.65 457.09C225.757 456.885 225.812 456.658 225.812 456.428V290.763C225.812 289.708 225.769 288.646 225.698 287.598C225.596 286.159 225.418 284.727 225.163 283.308C223.959 276.686 221.236 272.203 218.143 272.189H93.4121C92.9605 272.192 92.5143 272.286 92.1004 272.467C91.4925 272.736 90.943 273.121 90.4825 273.6C89.8575 274.25 89.3229 274.981 88.8933 275.774C87.3683 278.461 86.2778 282.467 85.8926 287.126C85.8926 287.169 85.8857 287.211 85.8857 287.254C85.7859 288.409 85.7361 289.585 85.7429 290.761L85.6432 306.035L85.579 315.144L85.3863 343.725L85.3152 353.872L85.0016 458.075C85.0016 458.453 85.1518 458.815 85.4191 459.083C85.6864 459.35 86.0489 459.5 86.4269 459.5H92.16C92.538 459.5 92.9005 459.35 93.1678 459.083C93.4351 458.815 93.5852 458.453 93.5852 458.075L93.5829 299.75Z" fill="#090814"/>
<path d="M177.439 229.817L185.694 266.135L190.969 271.912H194.774L179.089 205.88L178.314 217.098V217.106L177.439 229.817Z" fill="#090814"/>
<path d="M137.715 266.932L186.138 266.625L190.438 266.597L193.503 266.575L197.073 266.554H197.102C197.62 266.555 198.117 266.76 198.485 267.125L204.514 273.155C204.648 273.287 204.757 273.442 204.835 273.613C204.873 273.661 204.904 273.714 204.928 273.77C205.058 274.073 205.113 274.404 205.085 274.733C205.058 275.062 204.95 275.379 204.771 275.657C204.592 275.935 204.348 276.164 204.059 276.325C203.771 276.486 203.447 276.573 203.117 276.579H140.387C140.011 276.578 139.643 276.47 139.325 276.268C139.007 276.067 138.753 275.779 138.591 275.439L138.099 274.37L137.087 272.196L135.941 269.744C135.818 269.483 135.755 269.198 135.756 268.909C135.758 268.389 135.965 267.891 136.332 267.521C136.698 267.152 137.195 266.941 137.716 266.935L137.715 266.932Z" fill="#090814"/>
<path opacity="0.17" d="M138.098 274.364L138.593 275.437C138.755 275.776 139.008 276.063 139.325 276.265C139.642 276.466 140.009 276.574 140.384 276.576H203.117C203.447 276.571 203.771 276.484 204.06 276.324C204.349 276.163 204.594 275.934 204.773 275.656C204.952 275.378 205.059 275.06 205.086 274.73C205.112 274.401 205.057 274.07 204.924 273.767C204.902 273.711 204.871 273.658 204.833 273.611L138.098 274.364Z" fill="black"/>
<path opacity="0.17" d="M178.314 217.098V217.106L191.743 271.914H194.773L179.09 205.88L178.314 217.098Z" fill="black"/>
<path d="M161.834 227.14L180.842 82.5177C180.912 81.9758 181.194 81.4837 181.626 81.1492L194.712 64.7703L195.888 63.8651C196.324 63.5352 196.871 63.3892 197.413 63.4586L199.38 63.7223C199.923 63.7926 200.415 64.0753 200.749 64.5083C201.083 64.9413 201.232 65.4892 201.162 66.0316L181.463 215.878V215.885L180.259 225.051L178.826 235.935V235.949L176.602 252.884C176.566 253.174 176.468 253.453 176.314 253.701C176.161 253.95 175.955 254.162 175.711 254.323C175.471 254.489 175.198 254.601 174.912 254.652C174.625 254.704 174.331 254.694 174.048 254.623L172.801 254.309C172.323 254.186 171.904 253.898 171.617 253.497L171.061 252.705L170.804 252.335L162.194 228.6C161.894 228.177 161.765 227.655 161.834 227.14Z" fill="#090814"/>
<path opacity="0.17" d="M194.717 64.7709L170.805 252.338L171.065 252.705L171.618 253.494C171.904 253.896 172.324 254.184 172.802 254.307L174.051 254.621C174.334 254.691 174.628 254.701 174.915 254.649C175.202 254.598 175.474 254.486 175.715 254.322C175.956 254.158 176.159 253.945 176.312 253.697C176.465 253.449 176.564 253.172 176.602 252.883L201.159 66.0339C201.231 65.4913 201.083 64.9425 200.75 64.5084C200.417 64.0742 199.925 63.7903 199.382 63.7189L197.41 63.4598C197.142 63.4236 196.87 63.4411 196.61 63.5112C196.349 63.5813 196.105 63.7026 195.891 63.868L194.717 64.7709Z" fill="#090814"/>
<path d="M194.011 70.1354L181.322 88.2468L166.241 202.999L174.417 219.221L194.011 70.1354Z" fill="#48ACF0"/>
<path d="M178.584 161.864C178.562 161.69 178.473 161.532 178.337 161.423C178.2 161.314 178.027 161.262 177.853 161.28L67.8918 161.573C67.7183 161.556 67.5453 161.609 67.4098 161.718C67.2742 161.827 67.1867 161.986 67.166 162.159C67.1875 162.332 67.276 162.49 67.4126 162.599C67.5492 162.708 67.723 162.76 67.8969 162.743L177.858 162.45C178.031 162.466 178.204 162.414 178.34 162.304C178.475 162.195 178.563 162.037 178.584 161.864Z" fill="#090814"/>
<path d="M149.504 229.588L154.173 234.724C154.39 234.906 154.654 235.022 154.934 235.059C155.215 235.095 155.5 235.05 155.756 234.929C156.53 234.655 157.219 234.183 157.754 233.56C161.091 229.772 164.837 226.366 168.924 223.404C169.595 222.931 170.131 222.29 170.477 221.545C170.618 221.305 170.689 221.031 170.683 220.753C170.676 220.475 170.593 220.205 170.442 219.972C170.396 217.162 168.813 215.421 165.737 214.797C165.197 214.236 163.98 214.449 162.888 215.3C158.396 218.805 154.175 222.643 150.26 226.781C149.299 227.798 148.974 229.005 149.504 229.588Z" fill="#48ACF0"/>
<path d="M161.506 218.534L165.436 222.856C165.572 223.005 165.899 222.929 166.167 222.684C166.435 222.439 166.542 222.122 166.407 221.973L162.476 217.65C162.341 217.501 162.014 217.578 161.746 217.822C161.477 218.067 161.369 218.385 161.506 218.534Z" fill="white"/>
<path d="M157.625 222.063L161.555 226.385C161.69 226.534 162.017 226.458 162.286 226.213C162.554 225.968 162.661 225.651 162.525 225.502L158.595 221.18C158.459 221.031 158.133 221.107 157.864 221.352C157.596 221.597 157.489 221.914 157.625 222.063Z" fill="white"/>
<path d="M153.743 225.591L157.673 229.913C157.809 230.063 158.136 229.986 158.404 229.741C158.673 229.497 158.779 229.18 158.644 229.03L154.714 224.708C154.578 224.559 154.251 224.635 153.983 224.88C153.715 225.125 153.608 225.442 153.743 225.591Z" fill="white"/>
<path d="M35.9853 201.696H79.534C80.701 201.694 81.8198 201.23 82.6449 200.405C83.47 199.579 83.934 198.46 83.9353 197.293V139.63C83.9339 138.463 83.4697 137.344 82.6445 136.519C81.8193 135.693 80.7004 135.229 79.5334 135.228H35.9847C34.8177 135.229 33.6989 135.693 32.8737 136.519C32.0485 137.344 31.5843 138.463 31.5829 139.63V197.293C31.5843 198.46 32.0485 199.579 32.8738 200.405C33.6992 201.23 34.8182 201.694 35.9853 201.695V201.696Z" fill="#E6E6E6"/>
<path d="M39.0468 198.006H76.4731C77.5094 198.005 78.5031 197.593 79.2359 196.86C79.9687 196.128 80.3808 195.134 80.3819 194.098V142.786C80.3808 141.75 79.9687 140.756 79.2359 140.024C78.5031 139.291 77.5094 138.879 76.4731 138.878H39.0468C38.0105 138.879 37.0169 139.291 36.2841 140.024C35.5512 140.756 35.1391 141.75 35.138 142.786V194.098C35.1391 195.134 35.5512 196.128 36.2841 196.86C37.0169 197.593 38.0105 198.005 39.0468 198.006Z" fill="white"/>
<path d="M42.7803 148.628H72.7397C72.9989 148.628 73.2474 148.525 73.4307 148.342C73.614 148.158 73.7169 147.91 73.7169 147.651C73.7169 147.391 73.614 147.143 73.4307 146.96C73.2474 146.776 72.9989 146.673 72.7397 146.673H42.7803C42.5211 146.673 42.2725 146.776 42.0893 146.96C41.906 147.143 41.803 147.391 41.803 147.651C41.803 147.91 41.906 148.158 42.0893 148.342C42.2725 148.525 42.5211 148.628 42.7803 148.628Z" fill="#48ACF0"/>
<path d="M42.7803 152.491H72.7397C72.9989 152.491 73.2474 152.388 73.4307 152.205C73.614 152.021 73.7169 151.773 73.7169 151.514C73.7169 151.254 73.614 151.006 73.4307 150.823C73.2474 150.639 72.9989 150.536 72.7397 150.536H42.7803C42.5211 150.536 42.2725 150.639 42.0893 150.823C41.906 151.006 41.803 151.254 41.803 151.514C41.803 151.773 41.906 152.021 42.0893 152.205C42.2725 152.388 42.5211 152.491 42.7803 152.491Z" fill="#48ACF0"/>
<path d="M59.753 156.351H72.7396C72.9988 156.351 73.2474 156.248 73.4306 156.065C73.6139 155.881 73.7168 155.633 73.7168 155.374C73.7168 155.115 73.6139 154.866 73.4306 154.683C73.2474 154.499 72.9988 154.396 72.7396 154.396H59.753C59.4939 154.396 59.2453 154.499 59.0621 154.683C58.8788 154.866 58.7758 155.115 58.7758 155.374C58.7758 155.633 58.8788 155.881 59.0621 156.065C59.2453 156.248 59.4939 156.351 59.753 156.351Z" fill="#48ACF0"/>
<path d="M42.7803 164.435H72.7397C72.9989 164.435 73.2474 164.332 73.4307 164.149C73.614 163.966 73.7169 163.717 73.7169 163.458C73.7169 163.199 73.614 162.95 73.4307 162.767C73.2474 162.584 72.9989 162.481 72.7397 162.481H42.7803C42.5211 162.481 42.2725 162.584 42.0893 162.767C41.906 162.95 41.803 163.199 41.803 163.458C41.803 163.717 41.906 163.966 42.0893 164.149C42.2725 164.332 42.5211 164.435 42.7803 164.435Z" fill="#E4E4E4"/>
<path d="M42.7803 168.296H72.7397C72.9989 168.296 73.2474 168.193 73.4307 168.01C73.614 167.827 73.7169 167.578 73.7169 167.319C73.7169 167.06 73.614 166.811 73.4307 166.628C73.2474 166.445 72.9989 166.342 72.7397 166.342H42.7803C42.5211 166.342 42.2725 166.445 42.0893 166.628C41.906 166.811 41.803 167.06 41.803 167.319C41.803 167.578 41.906 167.827 42.0893 168.01C42.2725 168.193 42.5211 168.296 42.7803 168.296Z" fill="#E4E4E4"/>
<path d="M59.753 172.158H72.7396C72.9988 172.158 73.2474 172.055 73.4306 171.871C73.6139 171.688 73.7168 171.44 73.7168 171.18C73.7168 170.921 73.6139 170.673 73.4306 170.489C73.2474 170.306 72.9988 170.203 72.7396 170.203H59.753C59.4939 170.203 59.2453 170.306 59.0621 170.489C58.8788 170.673 58.7758 170.921 58.7758 171.18C58.7758 171.44 58.8788 171.688 59.0621 171.871C59.2453 172.055 59.4939 172.158 59.753 172.158Z" fill="#E4E4E4"/>
<path d="M184.179 124.844L67.3506 24.915H67.1654V26.3821H66.8088L183.225 125.957L184.179 124.844Z" fill="#090814"/>
<path d="M247.979 447.325C248.437 450.699 250.731 453.746 253.681 455.732C254.384 456.207 255.126 456.622 255.898 456.972C256.748 457.356 257.624 457.678 258.52 457.934C262.451 459.081 266.699 459.133 270.833 459.156L283.366 459.236C286.66 459.255 290.06 459.255 293.102 457.992C293.148 457.975 293.192 457.956 293.236 457.934C296.224 456.644 298.77 453.807 298.697 450.565C298.668 449.422 298.344 448.306 297.758 447.324C297.37 446.665 296.904 446.055 296.369 445.507C294.713 443.787 292.413 442.442 290.263 441.359C286.713 439.576 282.702 437.264 281.663 433.6C281.553 433.214 281.479 432.819 281.442 432.42C281.197 429.901 282.423 427.585 283.984 425.513C284.136 425.307 284.297 425.1 284.461 424.895C284.812 424.455 285.175 424.024 285.533 423.612C285.686 423.437 285.839 423.257 285.996 423.078C287.438 421.406 288.892 419.62 289.651 417.624C289.979 416.788 290.161 415.903 290.19 415.006C290.274 411.765 286.652 408.502 283.912 410.033C282.568 409.903 281.225 409.769 279.881 409.631C278.232 409.467 276.591 409.303 274.946 409.135H274.942C274.572 409.105 274.209 409.067 273.846 409.029C270.423 408.689 267.002 408.347 263.584 408.002C262.065 407.853 260.279 407.796 259.291 408.964C258.215 410.239 258.772 412.254 259.837 413.54C260.901 414.827 262.379 415.731 263.378 417.059C263.987 417.924 264.41 418.905 264.621 419.941C264.832 420.977 264.826 422.045 264.604 423.079C264.496 423.697 264.335 424.305 264.123 424.896C263.749 425.95 263.231 426.948 262.584 427.861C260.34 431.006 257.016 433.174 254.066 435.666C251.115 438.159 248.349 441.33 247.944 445.17C247.932 445.28 247.921 445.395 247.917 445.509C247.874 446.115 247.895 446.724 247.978 447.326L247.979 447.325Z" fill="#E6E6E6"/>
<path d="M271.98 412.379C274.958 409.437 277.495 406.08 279.511 402.411C281.521 398.761 283.006 394.846 283.921 390.781C284.85 386.655 285.157 382.414 284.834 378.197C284.163 369.611 280.99 361.409 275.707 354.606C275.384 354.192 275.054 353.785 274.716 353.384C274.34 352.935 273.699 353.581 274.073 354.027C280.959 362.227 284.501 372.721 283.994 383.417C283.487 394.112 278.968 404.224 271.337 411.736C270.92 412.148 271.563 412.79 271.98 412.379Z" fill="#E6E6E6"/>
<path d="M276.074 355.38C275.706 355.242 275.345 355.085 274.994 354.909L274.941 354.991L276.074 355.38Z" fill="#E6E6E6"/>
<path d="M269.054 347.36C269.203 348.193 269.472 349.001 269.852 349.757C270.902 351.865 272.574 353.6 274.642 354.726C274.756 354.787 274.875 354.852 274.993 354.909C275.134 354.688 275.279 354.467 275.416 354.245C276.39 352.795 277.111 351.19 277.546 349.498C277.989 347.51 277.749 345.277 276.473 343.685C275.198 342.094 272.775 341.38 271.016 342.41C270.507 342.713 270.075 343.13 269.754 343.628C269.93 343.845 270.105 344.059 270.281 344.277C270.297 344.297 270.313 344.316 270.331 344.334C270.484 344.525 270.64 344.712 270.793 344.903C271.431 345.685 272.064 346.471 272.702 347.25C271.803 347.415 270.889 347.478 269.977 347.437L269.755 347.425C269.524 347.41 269.287 347.39 269.054 347.36Z" fill="#E6E6E6"/>
<path d="M281.927 363.01L282.172 366.193L282.236 367.053C282.305 367.019 282.377 366.984 282.446 366.95C284.82 365.772 286.915 364.101 288.591 362.048C290.268 359.996 291.487 357.609 292.167 355.048C292.395 354.16 292.554 353.255 292.644 352.342C291.408 352.151 290.168 351.957 288.931 351.766C289.932 350.464 291.186 349.377 292.618 348.571C292.291 345.386 291.14 342.341 289.278 339.736C288.958 345.072 283.37 348.465 281.325 353.399C280.697 354.944 280.425 356.61 280.529 358.274C280.634 359.937 281.112 361.556 281.927 363.01Z" fill="#E6E6E6"/>
<path d="M282.987 390.966C283.284 390.982 283.582 390.989 283.876 390.985C286.416 390.969 288.926 390.435 291.252 389.414C293.578 388.394 295.671 386.909 297.403 385.051C298.805 383.516 299.932 381.751 300.735 379.834L300.659 379.822C299.422 379.631 298.182 379.437 296.946 379.246C298.259 377.534 300.005 376.204 302.003 375.391C302.273 373.666 302.294 371.912 302.064 370.181C299.27 374.735 292.74 375.101 288.614 378.49C286.647 380.129 285.306 382.397 284.817 384.911C284.695 385.532 284.63 386.163 284.622 386.796C284.618 386.949 284.618 387.098 284.622 387.247L284.53 387.453L282.987 390.966Z" fill="#E6E6E6"/>
<path d="M270.711 396.237C271.501 397.207 272.291 398.186 273.081 399.153C272.11 399.331 271.121 399.39 270.135 399.328C271.01 402.463 272.69 405.314 275.008 407.599C275.225 407.813 275.451 408.023 275.68 408.221C275.726 408.263 275.775 408.305 275.821 408.347L276.027 407.763L276.031 407.759L277.199 404.526C278.68 403.036 279.706 401.155 280.156 399.102V399.095C280.43 397.894 280.493 396.654 280.343 395.431C279.691 390.13 275.21 385.363 276.324 380.138C273.869 382.127 271.964 384.711 270.79 387.645C271.428 388.427 272.061 389.213 272.698 389.992C271.8 390.157 270.886 390.22 269.973 390.179C269.654 391.471 269.48 392.794 269.454 394.125C269.45 394.316 269.45 394.503 269.454 394.694C269.856 395.19 270.257 395.682 270.658 396.179C270.674 396.199 270.691 396.218 270.708 396.236L270.711 396.237Z" fill="#E6E6E6"/>
<path d="M29.5712 49.1494H73.1198C74.2867 49.1477 75.4053 48.6833 76.2303 47.858C77.0553 47.0327 77.5193 45.9139 77.5205 44.7469V4.90187C77.5192 3.73484 77.055 2.616 76.2297 1.79079C75.4045 0.965572 74.2857 0.501366 73.1187 0.5H29.57C28.403 0.501366 27.2842 0.965572 26.4589 1.79079C25.6337 2.616 25.1695 3.73484 25.1682 4.90187V44.7469C25.1695 45.914 25.6337 47.0328 26.4589 47.858C27.2842 48.6832 28.403 49.1474 29.57 49.1488L29.5712 49.1494Z" fill="#E6E6E6"/>
<path d="M32.632 45.4802H70.0583C71.0946 45.4791 72.0883 45.0669 72.8211 44.3341C73.5539 43.6013 73.9661 42.6077 73.9671 41.5713V8.0774C73.9661 7.04104 73.5539 6.04744 72.8211 5.31462C72.0883 4.5818 71.0946 4.16964 70.0583 4.16858H32.632C31.5957 4.16964 30.6021 4.5818 29.8693 5.31462C29.1364 6.04744 28.7243 7.04104 28.7232 8.0774V41.5719C28.7243 42.6083 29.1364 43.6019 29.8693 44.3347C30.6021 45.0675 31.5957 45.4791 32.632 45.4802Z" fill="white"/>
<path d="M36.3655 13.92H66.3249C66.5841 13.92 66.8326 13.8171 67.0159 13.6338C67.1992 13.4506 67.3021 13.202 67.3021 12.9428C67.3021 12.6837 67.1992 12.4351 67.0159 12.2519C66.8326 12.0686 66.5841 11.9656 66.3249 11.9656H36.3655C36.1063 11.9656 35.8577 12.0686 35.6745 12.2519C35.4912 12.4351 35.3882 12.6837 35.3882 12.9428C35.3882 13.202 35.4912 13.4506 35.6745 13.6338C35.8577 13.8171 36.1063 13.92 36.3655 13.92Z" fill="#48ACF0"/>
<path d="M36.3655 17.783H66.3249C66.5841 17.783 66.8326 17.6801 67.0159 17.4968C67.1992 17.3135 67.3021 17.065 67.3021 16.8058C67.3021 16.5466 67.1992 16.2981 67.0159 16.1148C66.8326 15.9316 66.5841 15.8286 66.3249 15.8286H36.3655C36.1063 15.8286 35.8577 15.9316 35.6745 16.1148C35.4912 16.2981 35.3882 16.5466 35.3882 16.8058C35.3882 17.065 35.4912 17.3135 35.6745 17.4968C35.8577 17.6801 36.1063 17.783 36.3655 17.783Z" fill="#48ACF0"/>
<path d="M53.3383 21.6431H66.3249C66.5841 21.6431 66.8326 21.5401 67.0159 21.3569C67.1992 21.1736 67.3021 20.925 67.3021 20.6659C67.3021 20.4067 67.1992 20.1581 67.0159 19.9749C66.8326 19.7916 66.5841 19.6887 66.3249 19.6887H53.3383C53.0791 19.6887 52.8306 19.7916 52.6473 19.9749C52.4641 20.1581 52.3611 20.4067 52.3611 20.6659C52.3611 20.925 52.4641 21.1736 52.6473 21.3569C52.8306 21.5401 53.0791 21.6431 53.3383 21.6431Z" fill="#48ACF0"/>
<path d="M36.3655 29.7273H66.3249C66.5841 29.7273 66.8326 29.6244 67.0159 29.4411C67.1992 29.2579 67.3021 29.0093 67.3021 28.7501C67.3021 28.491 67.1992 28.2424 67.0159 28.0591C66.8326 27.8759 66.5841 27.7729 66.3249 27.7729H36.3655C36.1063 27.7729 35.8577 27.8759 35.6745 28.0591C35.4912 28.2424 35.3882 28.491 35.3882 28.7501C35.3882 29.0093 35.4912 29.2579 35.6745 29.4411C35.8577 29.6244 36.1063 29.7273 36.3655 29.7273Z" fill="#E4E4E4"/>
<path d="M36.3655 33.5886H66.3249C66.5841 33.5886 66.8326 33.4856 67.0159 33.3024C67.1992 33.1191 67.3021 32.8706 67.3021 32.6114C67.3021 32.3522 67.1992 32.1037 67.0159 31.9204C66.8326 31.7371 66.5841 31.6342 66.3249 31.6342H36.3655C36.1063 31.6342 35.8577 31.7371 35.6745 31.9204C35.4912 32.1037 35.3882 32.3522 35.3882 32.6114C35.3882 32.8706 35.4912 33.1191 35.6745 33.3024C35.8577 33.4856 36.1063 33.5886 36.3655 33.5886Z" fill="#E4E4E4"/>
<path d="M53.3383 37.4498H66.3249C66.5841 37.4498 66.8326 37.3469 67.0159 37.1636C67.1992 36.9804 67.3021 36.7318 67.3021 36.4726C67.3021 36.2135 67.1992 35.9649 67.0159 35.7816C66.8326 35.5984 66.5841 35.4954 66.3249 35.4954H53.3383C53.0791 35.4954 52.8306 35.5984 52.6473 35.7816C52.4641 35.9649 52.3611 36.2135 52.3611 36.4726C52.3611 36.7318 52.4641 36.9804 52.6473 37.1636C52.8306 37.3469 53.0791 37.4498 53.3383 37.4498Z" fill="#E4E4E4"/>
<path d="M50.9871 175.417L41.8033 184.487L50.9871 193.556L53.0511 191.492L46.106 184.546L53.1084 177.543L50.9871 175.417Z" fill="#48ACF0"/>
<path d="M64.5333 175.417L73.7172 184.487L64.5333 193.556L62.4694 191.492L69.4145 184.546L62.4075 177.541L64.5333 175.417Z" fill="#48ACF0"/>
<path d="M158.977 123.401C158.695 123.12 158.313 122.962 157.914 122.962C157.516 122.962 157.134 123.12 156.852 123.401L136.437 143.816C136.155 144.098 135.998 144.48 135.998 144.878C135.998 145.277 136.155 145.659 136.437 145.941L137.55 147.054C137.832 147.335 138.214 147.493 138.612 147.493C139.01 147.493 139.392 147.335 139.674 147.054L160.089 126.639C160.371 126.357 160.529 125.975 160.529 125.577C160.529 125.178 160.371 124.796 160.089 124.514L158.976 123.401M160.038 122.339L161.151 123.452C161.715 124.016 162.032 124.78 162.032 125.577C162.032 126.374 161.715 127.138 161.151 127.702L140.737 148.116C140.173 148.68 139.409 148.996 138.612 148.996C137.815 148.996 137.051 148.68 136.487 148.116L135.374 147.003C134.811 146.44 134.494 145.675 134.494 144.878C134.494 144.082 134.811 143.317 135.374 142.754L155.789 122.339C156.353 121.775 157.117 121.459 157.914 121.459C158.711 121.459 159.475 121.775 160.039 122.339L160.038 122.339Z" fill="#090814"/>
<path d="M157.371 131.096C157.177 131.096 156.99 131.021 156.85 130.886L152.447 126.641C152.376 126.572 152.32 126.491 152.28 126.4C152.241 126.31 152.22 126.212 152.218 126.114C152.216 126.015 152.234 125.917 152.27 125.825C152.306 125.733 152.36 125.65 152.429 125.579C152.497 125.508 152.579 125.451 152.669 125.411C152.76 125.372 152.857 125.351 152.956 125.349C153.054 125.347 153.153 125.365 153.244 125.401C153.336 125.437 153.42 125.491 153.491 125.56L157.893 129.802C158.001 129.906 158.075 130.04 158.106 130.186C158.137 130.333 158.124 130.485 158.068 130.624C158.012 130.763 157.915 130.882 157.791 130.965C157.667 131.049 157.521 131.094 157.371 131.094V131.096Z" fill="#090814"/>
<path d="M143.307 128.188C143.107 128.188 142.916 128.109 142.776 127.968C142.635 127.827 142.556 127.636 142.556 127.437C142.555 126.791 142.298 126.172 141.841 125.715C141.384 125.258 140.765 125.001 140.119 125.001C139.92 125.001 139.729 124.921 139.588 124.781C139.447 124.64 139.368 124.449 139.368 124.25C139.368 124.05 139.447 123.859 139.588 123.718C139.729 123.578 139.92 123.499 140.119 123.499C140.765 123.498 141.384 123.241 141.841 122.784C142.298 122.327 142.555 121.708 142.556 121.062C142.556 120.863 142.635 120.672 142.776 120.531C142.916 120.39 143.107 120.311 143.307 120.311C143.506 120.311 143.697 120.39 143.838 120.531C143.979 120.672 144.058 120.863 144.058 121.062C144.058 121.708 144.315 122.327 144.772 122.784C145.229 123.241 145.848 123.498 146.494 123.499C146.693 123.499 146.885 123.578 147.025 123.718C147.166 123.859 147.245 124.05 147.245 124.25C147.245 124.449 147.166 124.64 147.025 124.781C146.885 124.921 146.693 125.001 146.494 125.001C145.848 125.001 145.229 125.258 144.772 125.715C144.315 126.172 144.058 126.791 144.058 127.437C144.058 127.636 143.979 127.827 143.838 127.968C143.697 128.109 143.506 128.188 143.307 128.188ZM142.43 124.25C142.766 124.494 143.062 124.79 143.307 125.127C143.551 124.79 143.847 124.494 144.184 124.25C143.847 124.005 143.551 123.709 143.307 123.373C143.062 123.709 142.766 124.005 142.43 124.25Z" fill="#090814"/>
<path d="M159.244 144.126C159.045 144.126 158.854 144.047 158.713 143.906C158.572 143.765 158.493 143.574 158.493 143.375C158.492 142.729 158.235 142.11 157.779 141.653C157.322 141.196 156.703 140.939 156.057 140.939C155.857 140.939 155.666 140.859 155.525 140.719C155.385 140.578 155.305 140.387 155.305 140.188C155.305 139.988 155.385 139.797 155.525 139.657C155.666 139.516 155.857 139.437 156.057 139.437C156.703 139.436 157.322 139.179 157.779 138.722C158.235 138.265 158.492 137.646 158.493 137C158.493 136.801 158.572 136.61 158.713 136.469C158.854 136.328 159.045 136.249 159.244 136.249C159.443 136.249 159.634 136.328 159.775 136.469C159.916 136.61 159.995 136.801 159.995 137C159.996 137.646 160.253 138.265 160.71 138.722C161.166 139.179 161.786 139.436 162.432 139.437C162.631 139.437 162.822 139.516 162.963 139.657C163.104 139.797 163.183 139.988 163.183 140.188C163.183 140.387 163.104 140.578 162.963 140.719C162.822 140.859 162.631 140.939 162.432 140.939C161.786 140.939 161.166 141.196 160.71 141.653C160.253 142.11 159.996 142.729 159.995 143.375C159.995 143.574 159.916 143.765 159.775 143.906C159.634 144.047 159.443 144.126 159.244 144.126ZM158.368 140.188C158.704 140.432 159 140.728 159.244 141.065C159.489 140.728 159.785 140.432 160.121 140.188C159.785 139.943 159.489 139.647 159.245 139.311C159 139.647 158.704 139.943 158.368 140.188Z" fill="#090814"/>
</svg>
