<svg width="475" height="475" viewBox="0 0 475 475" fill="none" xmlns="http://www.w3.org/2000/svg">
<circle cx="237.5" cy="237.5" r="237.5" fill="#C8E6FB" fill-opacity="0.24"/>
<circle cx="238.364" cy="233.182" r="172.727" fill="#A4D6F8" fill-opacity="0.22"/>
<g clip-path="url(#clip0_16_6)">
<path d="M243.411 130.472C245.063 130.472 246.403 129.133 246.403 127.481C246.403 125.828 245.063 124.489 243.411 124.489C241.759 124.489 240.419 125.828 240.419 127.481C240.419 129.133 241.759 130.472 243.411 130.472Z" fill="#F2F2F2"/>
<path d="M243.411 142.395C245.063 142.395 246.403 141.056 246.403 139.404C246.403 137.751 245.063 136.412 243.411 136.412C241.759 136.412 240.419 137.751 240.419 139.404C240.419 141.056 241.759 142.395 243.411 142.395Z" fill="#F2F2F2"/>
<path d="M255.901 130.472C257.554 130.472 258.893 129.133 258.893 127.481C258.893 125.828 257.554 124.489 255.901 124.489C254.249 124.489 252.91 125.828 252.91 127.481C252.91 129.133 254.249 130.472 255.901 130.472Z" fill="#F2F2F2"/>
<path d="M255.901 142.395C257.554 142.395 258.893 141.056 258.893 139.404C258.893 137.751 257.554 136.412 255.901 136.412C254.249 136.412 252.91 137.751 252.91 139.404C252.91 141.056 254.249 142.395 255.901 142.395Z" fill="#F2F2F2"/>
<path d="M268.392 130.472C270.044 130.472 271.383 129.133 271.383 127.481C271.383 125.828 270.044 124.489 268.392 124.489C266.74 124.489 265.4 125.828 265.4 127.481C265.4 129.133 266.74 130.472 268.392 130.472Z" fill="#F2F2F2"/>
<path d="M268.392 142.395C270.044 142.395 271.383 141.056 271.383 139.404C271.383 137.751 270.044 136.412 268.392 136.412C266.74 136.412 265.4 137.751 265.4 139.404C265.4 141.056 266.74 142.395 268.392 142.395Z" fill="#F2F2F2"/>
<path d="M268.392 154.318C270.044 154.318 271.383 152.979 271.383 151.327C271.383 149.674 270.044 148.335 268.392 148.335C266.74 148.335 265.4 149.674 265.4 151.327C265.4 152.979 266.74 154.318 268.392 154.318Z" fill="#F2F2F2"/>
<path d="M268.392 166.241C270.044 166.241 271.383 164.902 271.383 163.249C271.383 161.597 270.044 160.258 268.392 160.258C266.74 160.258 265.4 161.597 265.4 163.249C265.4 164.902 266.74 166.241 268.392 166.241Z" fill="#F2F2F2"/>
<path d="M280.882 130.472C282.534 130.472 283.874 129.133 283.874 127.481C283.874 125.828 282.534 124.489 280.882 124.489C279.23 124.489 277.891 125.828 277.891 127.481C277.891 129.133 279.23 130.472 280.882 130.472Z" fill="#F2F2F2"/>
<path d="M280.882 142.395C282.534 142.395 283.874 141.056 283.874 139.404C283.874 137.751 282.534 136.412 280.882 136.412C279.23 136.412 277.891 137.751 277.891 139.404C277.891 141.056 279.23 142.395 280.882 142.395Z" fill="#F2F2F2"/>
<path d="M280.882 154.318C282.534 154.318 283.874 152.979 283.874 151.327C283.874 149.674 282.534 148.335 280.882 148.335C279.23 148.335 277.891 149.674 277.891 151.327C277.891 152.979 279.23 154.318 280.882 154.318Z" fill="#F2F2F2"/>
<path d="M280.882 166.241C282.534 166.241 283.874 164.902 283.874 163.249C283.874 161.597 282.534 160.258 280.882 160.258C279.23 160.258 277.891 161.597 277.891 163.249C277.891 164.902 279.23 166.241 280.882 166.241Z" fill="#F2F2F2"/>
<path d="M293.373 130.472C295.025 130.472 296.364 129.133 296.364 127.481C296.364 125.828 295.025 124.489 293.373 124.489C291.72 124.489 290.381 125.828 290.381 127.481C290.381 129.133 291.72 130.472 293.373 130.472Z" fill="#F2F2F2"/>
<path d="M293.373 142.395C295.025 142.395 296.364 141.056 296.364 139.404C296.364 137.751 295.025 136.412 293.373 136.412C291.72 136.412 290.381 137.751 290.381 139.404C290.381 141.056 291.72 142.395 293.373 142.395Z" fill="#F2F2F2"/>
<path d="M305.863 130.472C307.515 130.472 308.855 129.133 308.855 127.481C308.855 125.828 307.515 124.489 305.863 124.489C304.211 124.489 302.871 125.828 302.871 127.481C302.871 129.133 304.211 130.472 305.863 130.472Z" fill="#F2F2F2"/>
<path d="M305.863 142.395C307.515 142.395 308.855 141.056 308.855 139.404C308.855 137.751 307.515 136.412 305.863 136.412C304.211 136.412 302.871 137.751 302.871 139.404C302.871 141.056 304.211 142.395 305.863 142.395Z" fill="#F2F2F2"/>
<path d="M397.192 282.358H374.983C374.983 282.996 352.093 283.514 352.093 283.514C351.733 283.785 351.406 284.095 351.117 284.439C350.247 285.476 349.772 286.787 349.775 288.14V289.065C349.776 290.599 350.385 292.069 351.469 293.154C352.554 294.238 354.024 294.847 355.558 294.848H397.192C398.725 294.847 400.195 294.237 401.28 293.153C402.364 292.069 402.973 290.599 402.975 289.065V288.14C402.973 286.607 402.363 285.138 401.279 284.054C400.195 282.97 398.725 282.36 397.192 282.358Z" fill="#3F3D56"/>
<path d="M379.611 294.618H373.597V333.477H379.611V294.618Z" fill="#3F3D56"/>
<path d="M396.727 333.266C396.727 333.916 387.614 333.517 376.373 333.517C365.131 333.517 356.018 333.916 356.018 333.266C356.018 332.616 365.131 327.463 376.373 327.463C387.614 327.463 396.727 332.616 396.727 333.266Z" fill="#3F3D56"/>
<path d="M346.299 328.155L340.627 328.155L337.929 306.279L346.3 306.279L346.299 328.155Z" fill="#FFB8B8"/>
<path d="M336.576 326.534H347.514V333.421H329.689C329.689 331.594 330.415 329.843 331.706 328.551C332.998 327.26 334.75 326.534 336.576 326.534Z" fill="#2F2E41"/>
<path d="M337.445 324.989L332.034 323.291L336.009 301.611L343.996 304.118L337.445 324.989Z" fill="#FFB8B8"/>
<path d="M328.654 320.532L339.09 323.807L337.028 330.378L320.021 325.041C320.292 324.178 320.73 323.377 321.311 322.684C321.891 321.99 322.602 321.418 323.404 320.999C324.206 320.58 325.082 320.323 325.983 320.243C326.884 320.163 327.791 320.262 328.654 320.532Z" fill="#2F2E41"/>
<path d="M382.003 278.566C381.872 277.463 381.637 276.376 381.3 275.318L380.241 273.986L377.483 270.525L377.363 270.53C377.16 270.539 376.313 270.586 375.004 270.687H374.99C374.18 270.752 373.19 270.835 372.066 270.942C371.77 270.974 371.46 271.002 371.141 271.034V275.864H376.924C377.205 275.864 377.476 275.967 377.687 276.152C377.898 276.338 378.035 276.594 378.071 276.872C378.075 276.923 378.08 276.969 378.08 277.02C378.08 277.327 377.958 277.621 377.741 277.838C377.524 278.055 377.23 278.177 376.924 278.177H343.338C342.91 278.461 342.5 278.77 342.108 279.102C340.925 280.018 340.072 281.294 339.679 282.738C337.718 291.361 334.142 307.441 333.087 312.165C333.01 312.521 333.028 312.89 333.137 313.237C333.247 313.584 333.445 313.897 333.712 314.145C333.908 314.328 334.14 314.471 334.392 314.566L338.564 316.129C338.736 316.193 338.915 316.235 339.096 316.254C339.119 316.254 339.138 316.259 339.161 316.259C339.204 316.263 339.247 316.264 339.291 316.263C339.712 316.262 340.124 316.133 340.472 315.893C340.819 315.654 341.086 315.315 341.238 314.922L344.532 306.28L349.607 292.957L351.614 287.688C353.941 288.234 373.463 292.555 380 285.593C380.645 284.907 381.154 284.104 381.499 283.229C382.049 281.74 382.222 280.138 382.003 278.566Z" fill="#2F2E41"/>
<path d="M387.665 279.824C387.564 279.412 387.448 278.986 387.314 278.556L383.497 273.764L383.377 273.768C383.136 273.782 381.994 273.842 380.241 273.986C378.251 274.152 375.471 274.421 372.348 274.842C372.256 274.851 372.159 274.865 372.066 274.879C371.761 274.92 371.451 274.962 371.141 275.008V275.864H376.924C377.205 275.864 377.476 275.967 377.687 276.152C377.898 276.338 378.035 276.594 378.071 276.872C378.076 276.923 378.08 276.97 378.08 277.02C378.08 277.327 377.958 277.621 377.741 277.838C377.525 278.055 377.23 278.177 376.924 278.177H356.486C355.593 278.468 354.732 278.774 353.909 279.102C349.588 280.814 346.355 283.057 345.693 285.976C345.471 286.957 345.226 288.035 344.967 289.182C344.005 293.448 342.834 298.67 341.775 303.417V303.421C341.557 304.402 341.34 305.355 341.132 306.28C340.248 310.259 339.499 313.631 339.101 315.403C339.092 315.454 339.083 315.5 339.073 315.551V315.56C339.027 315.919 339.072 316.283 339.203 316.62L339.207 316.624V316.629C339.334 316.951 339.541 317.236 339.809 317.457C339.987 317.604 340.189 317.721 340.406 317.804L344.578 319.367C344.811 319.454 345.056 319.5 345.304 319.502C345.652 319.502 345.994 319.415 346.299 319.247C346.736 319.01 347.074 318.625 347.252 318.16L356.236 294.586L357.628 290.926C359.955 291.472 379.477 295.788 386.014 288.831C387.305 287.433 388.042 285.612 388.086 283.71C388.132 282.401 387.99 281.092 387.665 279.824Z" fill="#2F2E41"/>
<path d="M387.152 239.013C387.078 238.925 386.999 238.837 386.916 238.754C385.684 237.458 384.162 236.473 382.476 235.879C380.79 235.285 378.987 235.098 377.215 235.335C375.669 235.538 374.138 235.839 372.631 236.237C370.684 236.738 368.901 237.737 367.459 239.138C366.335 240.227 365.45 241.538 364.86 242.987C364.27 244.436 363.988 245.993 364.031 247.557C364.049 248.191 364.054 248.838 364.045 249.495C364.045 249.801 364.04 250.111 364.036 250.42H368.597C368.795 250.42 368.992 250.443 369.184 250.49C369.741 250.623 370.237 250.939 370.592 251.388C370.946 251.837 371.14 252.393 371.141 252.965V274.485C371.451 274.573 371.761 274.661 372.066 274.754C372.163 274.786 372.256 274.814 372.348 274.841C372.455 274.874 372.561 274.906 372.663 274.939C373.602 275.23 374.52 275.538 375.415 275.864H376.924C377.205 275.864 377.476 275.967 377.687 276.152C377.898 276.338 378.035 276.594 378.071 276.872C378.386 276.997 378.691 277.122 378.991 277.247C380.06 277.691 381.073 278.135 382.003 278.565C383.257 279.139 384.372 279.685 385.306 280.161C385.6 280.311 385.925 280.39 386.254 280.393C386.687 280.391 387.109 280.252 387.457 279.995C387.53 279.942 387.599 279.884 387.665 279.824C387.913 279.592 388.1 279.303 388.21 278.982C388.321 278.661 388.351 278.318 388.299 277.983C387.822 274.349 387.682 270.678 387.883 267.019C388.012 263.942 388.29 260.787 388.651 257.739C388.845 256.087 389.062 254.468 389.289 252.909C389.507 251.42 389.738 249.99 389.965 248.639C390.262 246.927 390.163 245.168 389.676 243.5C389.188 241.831 388.325 240.296 387.152 239.013Z" fill="#48ACF0"/>
<path d="M368.19 239.392C367.952 239.29 367.708 239.205 367.459 239.138C366.226 238.806 364.915 238.928 363.765 239.483C362.615 240.037 361.703 240.987 361.195 242.158L358.017 249.495L357.619 250.42H368.597C368.795 250.42 368.992 250.443 369.184 250.49L369.554 249.634L370.961 246.387C371.519 245.091 371.541 243.628 371.022 242.316C370.502 241.005 369.484 239.953 368.19 239.392Z" fill="#48ACF0"/>
<path d="M378.06 231.723C384.335 231.723 389.422 226.636 389.422 220.361C389.422 214.085 384.335 208.998 378.06 208.998C371.785 208.998 366.698 214.085 366.698 220.361C366.698 226.636 371.785 231.723 378.06 231.723Z" fill="#FFB8B8"/>
<path d="M389.289 252.909L382.803 253.085L382.332 257.642L382.225 258.697L372.066 263.258L371.141 263.674V271.784L372.066 271.52L374.99 270.687H375.004L387.883 267.019L388.031 266.977C389.071 266.677 389.987 266.048 390.642 265.186C391.298 264.323 391.657 263.272 391.667 262.189L391.699 256.809L391.727 252.845L389.289 252.909Z" fill="#FFB8B8"/>
<path d="M391.399 243.898C391.356 243.2 391.176 242.518 390.87 241.89C390.563 241.262 390.136 240.701 389.613 240.238C388.555 239.303 387.17 238.827 385.762 238.913C384.353 239 383.037 239.642 382.102 240.699C381.167 241.756 380.691 243.142 380.777 244.55L381.485 256.097C381.504 256.401 381.59 256.697 381.736 256.964C381.882 257.231 382.086 257.462 382.332 257.642C382.723 257.933 383.205 258.076 383.692 258.044L388.651 257.739L390.154 257.646C390.428 257.633 390.696 257.564 390.943 257.444C391.189 257.324 391.409 257.155 391.588 256.948C391.628 256.904 391.665 256.858 391.699 256.809C391.993 256.416 392.138 255.93 392.106 255.44L391.399 243.898Z" fill="#48ACF0"/>
<path d="M372.663 274.939H372.066V274.879C371.761 274.92 371.451 274.962 371.141 275.008V275.864H375.415C374.518 275.54 373.601 275.232 372.663 274.939ZM372.663 274.939H372.066V274.879C371.761 274.92 371.451 274.962 371.141 275.008V275.864H375.415C374.518 275.54 373.601 275.232 372.663 274.939ZM376.924 274.939H372.066V252.965C372.065 252.213 371.819 251.481 371.366 250.88C370.913 250.28 370.277 249.842 369.554 249.634C369.244 249.54 368.921 249.494 368.597 249.495H327.425C326.505 249.496 325.623 249.862 324.973 250.513C324.322 251.163 323.956 252.045 323.955 252.965V275.633C323.956 276.553 324.321 277.435 324.972 278.086C325.622 278.736 326.505 279.102 327.425 279.102H376.924C377.436 279.101 377.93 278.912 378.312 278.569C378.693 278.227 378.935 277.756 378.991 277.247C379.001 277.172 379.006 277.096 379.005 277.02C379.005 276.469 378.785 275.94 378.395 275.549C378.005 275.159 377.476 274.939 376.924 274.939ZM378.08 277.02C378.08 277.327 377.958 277.621 377.741 277.838C377.524 278.055 377.23 278.177 376.924 278.177H327.425C326.75 278.177 326.103 277.908 325.626 277.431C325.149 276.954 324.881 276.307 324.88 275.633V252.965C324.881 252.29 325.149 251.643 325.626 251.166C326.103 250.689 326.75 250.421 327.425 250.42H368.597C368.795 250.42 368.992 250.443 369.184 250.49C369.741 250.623 370.237 250.939 370.592 251.388C370.947 251.837 371.14 252.393 371.141 252.965V275.864H376.924C377.205 275.864 377.476 275.967 377.687 276.152C377.898 276.338 378.035 276.594 378.071 276.872C378.075 276.923 378.08 276.97 378.08 277.02ZM372.663 274.939H372.066V274.879C371.761 274.92 371.451 274.962 371.141 275.008V275.864H375.415C374.518 275.54 373.601 275.232 372.663 274.939Z" fill="#3F3D56"/>
<path d="M348.009 267.075C349.542 267.075 350.785 265.832 350.785 264.299C350.785 262.766 349.542 261.524 348.009 261.524C346.476 261.524 345.234 262.766 345.234 264.299C345.234 265.832 346.476 267.075 348.009 267.075Z" fill="#48ACF0"/>
<path d="M375.634 215.853C372.995 218.211 369.456 220.742 366.225 219.014C364.103 217.88 363.158 215.393 363.654 213.039C364.545 208.805 368.205 206.517 371.749 204.668C376.356 202.264 381.44 200.167 386.599 200.792C391.758 201.417 396.798 205.68 396.554 210.871C396.358 215.045 392.95 218.939 394.029 222.977C395.115 227.04 400.047 228.613 404.247 228.82C408.448 229.027 413.072 228.669 416.405 231.235C420.656 234.508 420.588 241.353 417.561 245.783C414.535 250.213 409.425 252.706 404.405 254.602C397.755 257.112 390.445 258.927 383.58 257.081C376.716 255.235 370.706 248.649 371.713 241.612C372.138 238.639 373.702 235.971 375.211 233.375C376.72 230.779 378.238 228.072 378.555 225.087C378.819 222.598 378.029 219.852 376.193 218.249C375.861 217.97 375.626 217.592 375.522 217.171C375.417 216.75 375.449 216.307 375.612 215.905L375.634 215.853Z" fill="#2F2E41"/>
<path d="M55.8235 334.102H413.555C413.701 334.102 413.841 334.044 413.944 333.941C414.048 333.837 414.106 333.697 414.106 333.551C414.106 333.405 414.048 333.265 413.944 333.162C413.841 333.058 413.701 333 413.555 333H55.8235C55.7511 333 55.6793 333.014 55.6123 333.042C55.5453 333.069 55.4843 333.11 55.433 333.161C55.3817 333.212 55.341 333.273 55.3132 333.34C55.2854 333.407 55.2711 333.479 55.2711 333.551C55.2711 333.624 55.2854 333.695 55.3132 333.762C55.341 333.829 55.3817 333.89 55.433 333.941C55.4843 333.992 55.5453 334.033 55.6123 334.06C55.6793 334.088 55.7511 334.102 55.8235 334.102Z" fill="#3F3D56"/>
<path d="M73.9759 288.14V289.065C73.9773 290.599 74.5869 292.069 75.6711 293.153C76.7552 294.237 78.2253 294.847 79.7585 294.848H121.393C122.927 294.847 124.397 294.238 125.481 293.154C126.566 292.069 127.175 290.599 127.176 289.065V288.14C127.179 286.787 126.703 285.476 125.834 284.439C125.545 284.095 125.217 283.785 124.858 283.514C124.858 283.514 101.968 282.996 101.968 282.358H79.7585C78.2255 282.36 76.756 282.97 75.672 284.054C74.588 285.138 73.9781 286.607 73.9759 288.14Z" fill="#3F3D56"/>
<path d="M97.3398 333.477H103.354V294.618H97.3398V333.477Z" fill="#3F3D56"/>
<path d="M80.2234 333.266C80.2234 333.916 89.3365 333.517 100.578 333.517C111.82 333.517 120.933 333.916 120.933 333.266C120.933 332.616 111.82 327.463 100.578 327.463C89.3365 327.463 80.2234 332.616 80.2234 333.266Z" fill="#3F3D56"/>
<path d="M130.923 328.507H136.594L139.292 306.631L130.922 306.632L130.923 328.507Z" fill="#A0616A"/>
<path d="M147.532 333.773L129.708 333.774L129.708 326.887L140.645 326.886C142.472 326.886 144.224 327.612 145.515 328.903C146.807 330.195 147.532 331.946 147.532 333.773Z" fill="#2F2E41"/>
<path d="M139.776 325.342L145.187 323.644L141.213 301.964L133.226 304.47L139.776 325.342Z" fill="#A0616A"/>
<path d="M157.2 325.394L140.193 330.731L138.131 324.16L148.567 320.885C150.31 320.338 152.199 320.506 153.818 321.351C155.437 322.197 156.653 323.651 157.2 325.394Z" fill="#2F2E41"/>
<path d="M135.982 315.273L125.607 288.039C123.279 288.586 103.76 292.905 97.2219 285.944C94.9813 283.559 94.5444 280.102 95.923 275.671L99.7384 270.876L99.857 270.883C101.3 270.958 135.217 272.859 137.542 283.09C139.502 291.715 143.082 307.796 144.132 312.519C144.239 313.008 144.166 313.52 143.927 313.96C143.688 314.4 143.299 314.74 142.831 314.917L138.658 316.481C138.426 316.569 138.179 316.614 137.931 316.614C137.509 316.614 137.096 316.486 136.748 316.246C136.4 316.007 136.133 315.668 135.982 315.273Z" fill="#2F2E41"/>
<path d="M129.968 318.512L119.593 291.277C117.265 291.824 97.7457 296.143 91.208 289.183C88.9674 286.797 88.5305 283.34 89.9091 278.909L93.7245 274.114L93.8431 274.121C95.2857 274.197 129.203 276.098 131.528 286.328C133.488 294.953 137.068 311.034 138.119 315.757C138.225 316.247 138.152 316.758 137.913 317.198C137.674 317.638 137.285 317.978 136.817 318.155L132.644 319.72C132.412 319.807 132.166 319.852 131.917 319.852C131.495 319.852 131.082 319.724 130.734 319.484C130.386 319.245 130.119 318.906 129.968 318.512Z" fill="#2F2E41"/>
<path d="M120.636 265.674C119.098 265.673 117.587 265.273 116.25 264.513C114.913 263.753 113.797 262.659 113.01 261.338L109.715 255.756L117.546 251.476L120.872 256.035L143.435 253.658C143.545 253.46 143.668 253.269 143.805 253.087C144.237 252.518 144.786 252.046 145.413 251.702C146.041 251.358 146.734 251.15 147.447 251.092C148.163 251.03 148.884 251.123 149.562 251.363C150.24 251.604 150.858 251.986 151.376 252.485C152.205 253.281 152.742 254.334 152.898 255.473C153.054 256.612 152.821 257.77 152.236 258.76C151.87 259.377 151.378 259.909 150.792 260.322C150.206 260.735 149.539 261.02 148.835 261.158C148.131 261.295 147.407 261.283 146.708 261.121C146.009 260.959 145.353 260.651 144.782 260.217C144.649 260.116 144.522 260.008 144.401 259.894L122.791 265.404C122.086 265.583 121.362 265.674 120.636 265.674Z" fill="#A0616A"/>
<path d="M89.7624 280.347C89.4502 280.122 89.2063 279.815 89.0578 279.46C88.9094 279.105 88.8621 278.716 88.9212 278.335C90.2083 269.85 88.7273 257.694 87.2582 248.991C86.9575 247.225 87.0745 245.413 87.5999 243.701C88.1253 241.988 89.0445 240.423 90.2838 239.129C91.5231 237.836 93.0481 236.851 94.7366 236.253C96.4251 235.655 98.2303 235.46 100.007 235.686C101.553 235.89 103.085 236.192 104.593 236.59C107.098 237.22 109.314 238.685 110.876 240.742C112.438 242.799 113.254 245.326 113.189 247.908C112.97 256.307 114.675 266.785 115.418 270.901C115.469 271.183 115.461 271.473 115.395 271.753C115.328 272.032 115.205 272.295 115.033 272.525C114.864 272.752 114.649 272.941 114.402 273.081C114.156 273.22 113.883 273.307 113.601 273.334C105.362 274.175 96.4785 278.193 91.9161 280.512C91.6229 280.664 91.2979 280.743 90.968 280.744C90.5342 280.743 90.1121 280.604 89.7624 280.347Z" fill="#CCCCCC"/>
<path d="M112 258.46C111.746 258.36 111.513 258.211 111.317 258.02C111.121 257.83 110.964 257.603 110.856 257.351L106.262 246.738C105.983 246.097 105.834 245.407 105.823 244.708C105.811 244.009 105.938 243.315 106.195 242.665C106.452 242.015 106.834 241.422 107.321 240.92C107.807 240.418 108.387 240.016 109.029 239.739C109.67 239.461 110.36 239.312 111.059 239.302C111.758 239.291 112.452 239.418 113.102 239.675C113.752 239.933 114.345 240.316 114.846 240.802C115.348 241.289 115.749 241.87 116.026 242.512L120.62 253.125C120.839 253.632 120.848 254.204 120.645 254.718C120.441 255.231 120.043 255.642 119.537 255.862L113.594 258.435C113.343 258.544 113.073 258.603 112.799 258.607C112.526 258.612 112.254 258.562 112 258.46Z" fill="#CCCCCC"/>
<path d="M99.1618 232.075C105.437 232.075 110.524 226.988 110.524 220.713C110.524 214.438 105.437 209.351 99.1618 209.351C92.8867 209.351 87.7997 214.438 87.7997 220.713C87.7997 226.988 92.8867 232.075 99.1618 232.075Z" fill="#A0616A"/>
<path d="M92.2955 230.807C92.1345 230.993 91.9379 231.145 91.7174 231.253C91.4968 231.362 91.2567 231.425 91.0113 231.439C90.7659 231.453 90.5201 231.418 90.2885 231.335C90.057 231.253 89.8443 231.125 89.6632 230.958C87.1296 228.908 85.1202 226.284 83.8009 223.303C82.3237 219.782 82.1073 215.485 83.7884 212.185C85.2095 209.395 87.7606 207.619 90.3074 206.168C91.2838 205.553 92.3537 205.1 93.4753 204.829C94.0418 204.7 94.6289 204.692 95.1989 204.804C95.7689 204.916 96.3091 205.146 96.7848 205.48C97.2894 205.863 97.68 206.377 97.9146 206.967C98.1492 207.556 98.2189 208.197 98.1161 208.823C99.2811 207.288 100.852 206.11 102.651 205.42C103.754 204.945 104.988 204.862 106.145 205.186C107.781 205.732 108.991 207.383 109.665 209.158C110.21 210.516 110.409 211.989 110.246 213.443C110.174 214.138 109.963 214.811 109.623 215.421C109.284 216.031 108.823 216.565 108.271 216.992C106.937 217.913 105.218 217.819 103.666 217.412C102.115 217.004 100.609 216.314 99.0306 216.121C97.452 215.928 95.7024 216.346 94.7619 217.754C94.0996 218.745 93.9434 220.052 93.8083 221.297L93.1054 227.773C93.0557 228.699 92.8561 229.611 92.5143 230.474C92.4565 230.594 92.3829 230.706 92.2955 230.807Z" fill="#2F2E41"/>
<path d="M133.392 300.786H114.947C114.648 300.787 114.353 300.72 114.084 300.589C113.815 300.459 113.579 300.269 113.395 300.034C113.206 299.795 113.075 299.517 113.01 299.22C112.945 298.923 112.949 298.615 113.021 298.32C114.747 291.093 114.747 283.561 113.021 276.334C112.949 276.039 112.945 275.731 113.01 275.434C113.075 275.137 113.206 274.859 113.395 274.621C113.579 274.386 113.815 274.195 114.084 274.065C114.353 273.935 114.648 273.867 114.947 273.868H133.392C133.864 273.869 134.319 274.038 134.678 274.343C135.037 274.648 135.276 275.071 135.352 275.536C136.555 283.351 136.555 291.304 135.352 299.118C135.276 299.583 135.037 300.006 134.678 300.311C134.319 300.617 133.864 300.785 133.392 300.786Z" fill="#CCCCCC"/>
<path d="M119.235 283.896V283.354C119.236 282.986 119.382 282.633 119.642 282.373C119.902 282.113 120.255 281.967 120.623 281.966H130.303C130.671 281.967 131.023 282.113 131.284 282.373C131.544 282.633 131.69 282.986 131.69 283.354V283.896C131.69 284.264 131.544 284.617 131.284 284.877C131.023 285.137 130.671 285.284 130.303 285.284H120.623C120.255 285.284 119.902 285.137 119.642 284.877C119.382 284.617 119.236 284.264 119.235 283.896Z" fill="white"/>
<path d="M119.235 289.607V289.065C119.236 288.697 119.382 288.344 119.642 288.084C119.902 287.824 120.255 287.677 120.623 287.677H130.303C130.671 287.677 131.023 287.824 131.284 288.084C131.544 288.344 131.69 288.697 131.69 289.065V289.607C131.69 289.975 131.544 290.328 131.284 290.588C131.023 290.848 130.671 290.994 130.303 290.995H120.623C120.255 290.994 119.902 290.848 119.642 290.588C119.382 290.328 119.236 289.975 119.235 289.607Z" fill="white"/>
<path d="M125.186 267.361C124.994 267.119 124.86 266.836 124.794 266.534C124.729 266.232 124.733 265.919 124.806 265.619C126.56 258.273 126.56 250.618 124.806 243.272C124.733 242.972 124.729 242.659 124.794 242.357C124.86 242.055 124.994 241.773 125.186 241.53C125.373 241.291 125.613 241.098 125.886 240.966C126.16 240.833 126.46 240.765 126.763 240.766H145.512C145.991 240.767 146.454 240.938 146.819 241.248C147.183 241.559 147.426 241.988 147.504 242.461C148.727 250.404 148.727 258.487 147.504 266.43C147.426 266.903 147.183 267.333 146.819 267.643C146.454 267.954 145.991 268.125 145.512 268.126H126.763C126.46 268.127 126.16 268.058 125.886 267.926C125.613 267.793 125.373 267.6 125.186 267.361Z" fill="#48ACF0"/>
<path d="M141.894 250.861H132.017C131.649 250.86 131.297 250.714 131.036 250.454C130.776 250.194 130.63 249.841 130.629 249.473V248.883C130.63 248.516 130.776 248.163 131.036 247.903C131.297 247.642 131.649 247.496 132.017 247.496H141.894C142.262 247.496 142.614 247.642 142.875 247.903C143.135 248.163 143.281 248.516 143.281 248.883V249.473C143.281 249.841 143.135 250.194 142.875 250.454C142.614 250.714 142.262 250.86 141.894 250.861Z" fill="white"/>
<path d="M141.894 256.665H132.017C131.649 256.665 131.297 256.518 131.036 256.258C130.776 255.998 130.63 255.645 130.629 255.277V254.688C130.63 254.32 130.776 253.967 131.036 253.707C131.297 253.447 131.649 253.301 132.017 253.3H141.894C142.262 253.301 142.614 253.447 142.875 253.707C143.135 253.967 143.281 254.32 143.281 254.688V255.277C143.281 255.645 143.135 255.998 142.875 256.258C142.614 256.518 142.262 256.665 141.894 256.665Z" fill="white"/>
<path d="M116.583 277.538C115.908 277.302 115.29 276.926 114.769 276.435C114.248 275.944 113.836 275.349 113.561 274.689C113.497 274.535 113.442 274.378 113.395 274.218L89.1902 267.328C88.1501 267.028 87.2345 266.4 86.5794 265.538C85.9243 264.676 85.5646 263.626 85.5536 262.543L85.4945 253.198L94.4163 253.437L94.9977 259.05L115.695 268.342C115.89 268.226 116.093 268.123 116.302 268.035C117.064 267.715 117.893 267.586 118.717 267.658C119.54 267.731 120.334 268.002 121.029 268.45C121.724 268.897 122.3 269.507 122.706 270.227C123.113 270.947 123.338 271.755 123.362 272.581C123.387 273.408 123.21 274.228 122.847 274.97C122.483 275.713 121.945 276.356 121.277 276.844C120.61 277.332 119.834 277.65 119.016 277.771C118.198 277.892 117.363 277.812 116.583 277.538Z" fill="#A0616A"/>
<path d="M85.6333 257.301C85.4516 257.096 85.3122 256.858 85.2233 256.599C85.1344 256.34 85.0976 256.067 85.1152 255.794L85.8249 244.25C85.8666 243.552 86.0457 242.869 86.3517 242.24C86.6577 241.611 87.0847 241.049 87.6083 240.585C88.1318 240.122 88.7417 239.766 89.4029 239.538C90.0642 239.31 90.7639 239.215 91.4619 239.258C92.16 239.301 92.8427 239.481 93.471 239.788C94.0994 240.096 94.661 240.524 95.1238 241.048C95.5866 241.572 95.9415 242.183 96.1681 242.844C96.3947 243.506 96.4886 244.206 96.4445 244.904L95.735 256.447C95.7004 256.998 95.4488 257.512 95.0353 257.878C94.6219 258.243 94.0804 258.43 93.5295 258.397L87.0652 258C86.7922 257.984 86.525 257.914 86.2792 257.794C86.0334 257.674 85.8139 257.506 85.6333 257.301Z" fill="#CCCCCC"/>
<path d="M189.67 195.298H151.737C150.633 195.296 149.574 194.857 148.794 194.077C148.013 193.296 147.574 192.238 147.573 191.134V149.962C147.574 148.858 148.013 147.8 148.794 147.019C149.574 146.239 150.633 145.8 151.737 145.799H189.67C190.774 145.8 191.832 146.239 192.613 147.019C193.393 147.8 193.833 148.858 193.834 149.962V191.134C193.833 192.238 193.393 193.296 192.613 194.077C191.832 194.857 190.774 195.296 189.67 195.298ZM151.737 146.724C150.878 146.725 150.055 147.066 149.448 147.673C148.841 148.28 148.499 149.103 148.498 149.962V191.134C148.499 191.993 148.841 192.816 149.448 193.423C150.055 194.03 150.878 194.371 151.737 194.372H189.67C190.529 194.371 191.352 194.03 191.959 193.423C192.566 192.816 192.908 191.993 192.909 191.134V149.962C192.908 149.103 192.566 148.28 191.959 147.673C191.352 147.066 190.529 146.725 189.67 146.724H151.737Z" fill="#3F3D56"/>
<path d="M259.061 195.298H221.128C220.024 195.296 218.966 194.857 218.185 194.077C217.404 193.296 216.965 192.238 216.964 191.134V149.962C216.965 148.858 217.404 147.8 218.185 147.019C218.966 146.239 220.024 145.8 221.128 145.799H259.061C260.165 145.8 261.223 146.239 262.004 147.019C262.785 147.8 263.224 148.858 263.225 149.962V191.134C263.224 192.238 262.785 193.296 262.004 194.077C261.223 194.857 260.165 195.296 259.061 195.298ZM221.128 146.724C220.269 146.725 219.446 147.066 218.839 147.673C218.232 148.28 217.89 149.103 217.889 149.962V191.134C217.89 191.993 218.232 192.816 218.839 193.423C219.446 194.03 220.269 194.371 221.128 194.372H259.061C259.92 194.371 260.743 194.03 261.35 193.423C261.957 192.816 262.299 191.993 262.3 191.134V149.962C262.299 149.103 261.957 148.28 261.35 147.673C260.743 147.066 259.92 146.725 259.061 146.724H221.128Z" fill="#3F3D56"/>
<path d="M159.376 162.915H155.676C155.124 162.914 154.595 162.695 154.204 162.305C153.814 161.914 153.595 161.385 153.594 160.833V157.132C153.595 156.58 153.814 156.051 154.204 155.661C154.595 155.271 155.124 155.051 155.676 155.051H159.376C159.928 155.051 160.458 155.271 160.848 155.661C161.238 156.051 161.458 156.58 161.458 157.132V160.833C161.458 161.385 161.238 161.914 160.848 162.305C160.458 162.695 159.928 162.914 159.376 162.915Z" fill="#48ACF0"/>
<path d="M159.376 174.48H155.676C155.124 174.48 154.595 174.26 154.204 173.87C153.814 173.479 153.595 172.95 153.594 172.398V168.698C153.595 168.146 153.814 167.617 154.204 167.226C154.595 166.836 155.124 166.616 155.676 166.616H159.376C159.928 166.616 160.458 166.836 160.848 167.226C161.238 167.617 161.458 168.146 161.458 168.698V172.398C161.458 172.95 161.238 173.479 160.848 173.87C160.458 174.26 159.928 174.48 159.376 174.48Z" fill="#CCCCCC"/>
<path d="M186.425 160.665H169.147C168.779 160.665 168.426 160.519 168.166 160.258C167.906 159.998 167.76 159.645 167.759 159.278V158.688C167.76 158.32 167.906 157.967 168.166 157.707C168.426 157.447 168.779 157.301 169.147 157.3H186.425C186.793 157.301 187.146 157.447 187.406 157.707C187.666 157.967 187.813 158.32 187.813 158.688V159.278C187.813 159.645 187.666 159.998 187.406 160.258C187.146 160.519 186.793 160.665 186.425 160.665Z" fill="#48ACF0"/>
<path d="M229.087 162.189H225.386C224.834 162.189 224.305 161.969 223.914 161.579C223.524 161.189 223.305 160.66 223.304 160.108V156.407C223.305 155.855 223.524 155.326 223.914 154.935C224.305 154.545 224.834 154.326 225.386 154.325H229.087C229.639 154.326 230.168 154.545 230.558 154.935C230.948 155.326 231.168 155.855 231.168 156.407V160.108C231.168 160.66 230.948 161.189 230.558 161.579C230.168 161.969 229.639 162.189 229.087 162.189Z" fill="#CCCCCC"/>
<path d="M256.135 159.94H238.857C238.489 159.939 238.136 159.793 237.876 159.533C237.616 159.273 237.47 158.92 237.469 158.552V157.963C237.47 157.595 237.616 157.242 237.876 156.982C238.136 156.722 238.489 156.575 238.857 156.575H256.135C256.503 156.575 256.856 156.722 257.116 156.982C257.376 157.242 257.523 157.595 257.523 157.963V158.552C257.523 158.92 257.376 159.273 257.116 159.533C256.856 159.793 256.503 159.939 256.135 159.94Z" fill="#CCCCCC"/>
<path d="M256.135 171.042H224.054C223.686 171.042 223.333 170.896 223.073 170.635C222.813 170.375 222.666 170.022 222.666 169.654V169.065C222.666 168.697 222.813 168.344 223.073 168.084C223.333 167.824 223.686 167.678 224.054 167.677H256.135C256.503 167.678 256.856 167.824 257.116 168.084C257.376 168.344 257.523 168.697 257.523 169.065V169.654C257.523 170.022 257.376 170.375 257.116 170.635C256.856 170.896 256.503 171.042 256.135 171.042Z" fill="#48ACF0"/>
<path d="M256.135 178.907H224.054C223.686 178.906 223.333 178.76 223.073 178.5C222.813 178.239 222.666 177.887 222.666 177.519V176.929C222.666 176.561 222.813 176.209 223.073 175.949C223.333 175.688 223.686 175.542 224.054 175.542H256.135C256.503 175.542 256.856 175.688 257.116 175.949C257.376 176.209 257.523 176.561 257.523 176.929V177.519C257.523 177.887 257.376 178.239 257.116 178.5C256.856 178.76 256.503 178.906 256.135 178.907Z" fill="#CCCCCC"/>
<path d="M256.135 186.771H224.054C223.686 186.771 223.333 186.624 223.073 186.364C222.813 186.104 222.666 185.751 222.666 185.383V184.794C222.666 184.426 222.813 184.073 223.073 183.813C223.333 183.553 223.686 183.406 224.054 183.406H256.135C256.503 183.406 256.856 183.553 257.116 183.813C257.376 184.073 257.523 184.426 257.523 184.794V185.383C257.523 185.751 257.376 186.104 257.116 186.364C256.856 186.624 256.503 186.771 256.135 186.771Z" fill="#CCCCCC"/>
<path d="M328.452 195.298H290.519C289.415 195.296 288.357 194.857 287.576 194.077C286.796 193.296 286.356 192.238 286.355 191.134V149.962C286.356 148.858 286.796 147.8 287.576 147.019C288.357 146.239 289.415 145.8 290.519 145.799H328.452C329.556 145.8 330.615 146.239 331.395 147.019C332.176 147.8 332.615 148.858 332.616 149.962V191.134C332.615 192.238 332.176 193.296 331.395 194.077C330.615 194.857 329.556 195.296 328.452 195.298ZM290.519 146.724C289.66 146.725 288.837 147.066 288.23 147.673C287.623 148.28 287.281 149.103 287.28 149.962V191.134C287.281 191.993 287.623 192.816 288.23 193.423C288.837 194.03 289.66 194.371 290.519 194.372H328.452C329.311 194.371 330.134 194.03 330.741 193.423C331.348 192.816 331.69 191.993 331.691 191.134V149.962C331.69 149.103 331.348 148.28 330.741 147.673C330.134 147.066 329.311 146.725 328.452 146.724H290.519Z" fill="#3F3D56"/>
<path d="M325.526 159.94H308.248C307.88 159.939 307.528 159.793 307.267 159.533C307.007 159.273 306.861 158.92 306.86 158.552V157.963C306.861 157.595 307.007 157.242 307.267 156.982C307.528 156.722 307.88 156.575 308.248 156.575H325.526C325.894 156.575 326.247 156.722 326.507 156.982C326.767 157.242 326.914 157.595 326.914 157.963V158.552C326.914 158.92 326.767 159.273 326.507 159.533C326.247 159.793 325.894 159.939 325.526 159.94Z" fill="#CCCCCC"/>
<path d="M325.526 171.042H293.445C293.077 171.042 292.724 170.896 292.464 170.635C292.204 170.375 292.057 170.022 292.057 169.654V169.065C292.057 168.697 292.204 168.344 292.464 168.084C292.724 167.824 293.077 167.678 293.445 167.677H325.526C325.894 167.678 326.247 167.824 326.507 168.084C326.767 168.344 326.914 168.697 326.914 169.065V169.654C326.914 170.022 326.767 170.375 326.507 170.635C326.247 170.896 325.894 171.042 325.526 171.042Z" fill="#CCCCCC"/>
<path d="M325.526 178.907H293.445C293.077 178.906 292.724 178.76 292.464 178.5C292.204 178.239 292.057 177.887 292.057 177.519V176.929C292.057 176.561 292.204 176.209 292.464 175.949C292.724 175.688 293.077 175.542 293.445 175.542H325.526C325.894 175.542 326.247 175.688 326.507 175.949C326.767 176.209 326.914 176.561 326.914 176.929V177.519C326.914 177.887 326.767 178.239 326.507 178.5C326.247 178.76 325.894 178.906 325.526 178.907Z" fill="#CCCCCC"/>
<path d="M325.526 186.771H293.445C293.077 186.771 292.724 186.624 292.464 186.364C292.204 186.104 292.057 185.751 292.057 185.383V184.794C292.057 184.426 292.204 184.073 292.464 183.813C292.724 183.553 293.077 183.406 293.445 183.406H325.526C325.894 183.406 326.247 183.553 326.507 183.813C326.767 184.073 326.914 184.426 326.914 184.794V185.383C326.914 185.751 326.767 186.104 326.507 186.364C326.247 186.624 325.894 186.771 325.526 186.771Z" fill="#CCCCCC"/>
<path d="M186.425 172.231H169.147C168.779 172.23 168.426 172.084 168.166 171.824C167.906 171.563 167.76 171.211 167.759 170.843V170.253C167.76 169.885 167.906 169.533 168.166 169.272C168.426 169.012 168.779 168.866 169.147 168.866H186.425C186.793 168.866 187.146 169.012 187.406 169.272C187.666 169.533 187.813 169.885 187.813 170.253V170.843C187.813 171.211 187.666 171.563 187.406 171.824C187.146 172.084 186.793 172.23 186.425 172.231Z" fill="#CCCCCC"/>
<path d="M159.376 186.045H155.676C155.124 186.045 154.595 185.825 154.204 185.435C153.814 185.045 153.595 184.516 153.594 183.964V180.263C153.595 179.711 153.814 179.182 154.204 178.791C154.595 178.401 155.124 178.182 155.676 178.181H159.376C159.928 178.182 160.458 178.401 160.848 178.791C161.238 179.182 161.458 179.711 161.458 180.263V183.964C161.458 184.516 161.238 185.045 160.848 185.435C160.458 185.825 159.928 186.045 159.376 186.045Z" fill="#CCCCCC"/>
<path d="M186.425 183.796H169.147C168.779 183.795 168.426 183.649 168.166 183.389C167.906 183.129 167.76 182.776 167.759 182.408V181.819C167.76 181.451 167.906 181.098 168.166 180.838C168.426 180.577 168.779 180.431 169.147 180.431H186.425C186.793 180.431 187.146 180.577 187.406 180.838C187.666 181.098 187.813 181.451 187.813 181.819V182.408C187.813 182.776 187.666 183.129 187.406 183.389C187.146 183.649 186.793 183.795 186.425 183.796Z" fill="#CCCCCC"/>
<path d="M300.694 157.826C300.694 157.816 300.696 157.805 300.696 157.795C300.696 157.248 300.588 156.706 300.379 156.201C300.17 155.696 299.863 155.237 299.477 154.851C299.09 154.464 298.631 154.157 298.126 153.948C297.621 153.739 297.079 153.631 296.533 153.631V157.826H300.694Z" fill="#48ACF0"/>
<path d="M296.07 158.289V154.094C295.248 154.093 294.444 154.337 293.76 154.793C293.076 155.248 292.542 155.897 292.225 156.656C291.909 157.415 291.825 158.25 291.983 159.057C292.14 159.864 292.534 160.606 293.113 161.19C293.692 161.773 294.431 162.172 295.236 162.337C296.042 162.501 296.878 162.423 297.639 162.113C298.401 161.803 299.053 161.274 299.515 160.593C299.976 159.913 300.226 159.111 300.232 158.289H296.07Z" fill="#CCCCCC"/>
</g>
<defs>
<clipPath id="clip0_16_6">
<rect width="364.455" height="209.613" fill="white" transform="translate(55.2727 124.489)"/>
</clipPath>
</defs>
</svg>
