<svg width="100" height="101" viewBox="0 0 100 101" fill="none" xmlns="http://www.w3.org/2000/svg">
<circle cx="50" cy="50.9487" r="50" fill="#EDF7FE"/>
<path d="M49.4444 52.3097C47.0717 52.3097 45.055 51.4792 43.3941 49.8184C41.7332 48.1575 40.9028 46.1407 40.9028 43.768C40.9028 41.3953 41.7332 39.3785 43.3941 37.7177C45.055 36.0568 47.0717 35.2263 49.4444 35.2263C51.8171 35.2263 53.8339 36.0568 55.4948 37.7177C57.1557 39.3785 57.9861 41.3953 57.9861 43.768C57.9861 46.1407 57.1557 48.1575 55.4948 49.8184C53.8339 51.4792 51.8171 52.3097 49.4444 52.3097ZM32.3611 80.7819V58.7871C30.5579 56.7941 29.158 54.5163 28.1614 51.9538C27.1649 49.3913 26.6667 46.6627 26.6667 43.768C26.6667 37.4092 28.8733 32.0232 33.2864 27.61C37.6996 23.1968 43.0856 20.9902 49.4444 20.9902C55.8032 20.9902 61.1892 23.1968 65.6024 27.61C70.0156 32.0232 72.2222 37.4092 72.2222 43.768C72.2222 46.6627 71.724 49.3913 70.7274 51.9538C69.7309 54.5163 68.331 56.7941 66.5278 58.7871V80.7819L49.4444 75.0875L32.3611 80.7819ZM49.4444 60.8513C54.1898 60.8513 58.2234 59.1905 61.5451 55.8687C64.8669 52.5469 66.5278 48.5134 66.5278 43.768C66.5278 39.0226 64.8669 34.9891 61.5451 31.6673C58.2234 28.3456 54.1898 26.6847 49.4444 26.6847C44.6991 26.6847 40.6655 28.3456 37.3437 31.6673C34.022 34.9891 32.3611 39.0226 32.3611 43.768C32.3611 48.5134 34.022 52.5469 37.3437 55.8687C40.6655 59.1905 44.6991 60.8513 49.4444 60.8513ZM38.0555 72.3114L49.4444 69.393L60.8333 72.3114V63.485C59.1724 64.4341 57.3811 65.1815 55.4592 65.7272C53.5373 66.2729 51.5324 66.5458 49.4444 66.5458C47.3565 66.5458 45.3516 66.2729 43.4297 65.7272C41.5078 65.1815 39.7164 64.4341 38.0555 63.485V72.3114Z" fill="#48ACF0"/>
</svg>
