<svg width="24" height="24" viewBox="0 0 24 24" fill="none" xmlns="http://www.w3.org/2000/svg">
<g clip-path="url(#clip0_245_1980)">
<path d="M23.98 21.566L16.756 1.96698C16.48 1.21498 15.928 0.614984 15.2 0.278984C14.473 -0.0590156 13.658 -0.0920156 12.906 0.184984L11.967 0.529984C11.684 0.633984 11.423 0.775984 11.189 0.952984C10.641 0.367984 9.863 0.000984365 9 0.000984365H3C1.346 -1.56347e-05 0 1.34598 0 2.99998V24H12V9.30499L17.408 23.977L23.98 21.566ZM18.593 21.412L17.628 18.793L20.444 17.76L21.409 20.379L18.593 21.412ZM16.936 16.917L13.447 7.45098L16.263 6.41698L19.752 15.883L16.936 16.917ZM12.093 2.92498C12.205 2.68298 12.405 2.49798 12.656 2.40598L13.595 2.06098C13.707 2.01998 13.824 1.99898 13.94 1.99898C14.083 1.99898 14.225 2.02998 14.359 2.09198C14.602 2.20398 14.786 2.40398 14.879 2.65598L15.573 4.53998L12.757 5.57398L12.062 3.68898C11.97 3.43798 11.981 3.16798 12.093 2.92498ZM10 2.99998V4.99998H7V1.99998H9C9.551 1.99998 10 2.44798 10 2.99998ZM7 6.99998H10V17H7V6.99998ZM5 17H2V6.99998H5V17ZM3 1.99998H5V4.99998H2V2.99998C2 2.44798 2.449 1.99998 3 1.99998ZM2 19H5V22H2V19ZM7 22V19H10V22H7Z" fill="#48ACF0"/>
</g>
<defs>
<clipPath id="clip0_245_1980">
<rect width="24" height="24" fill="white"/>
</clipPath>
</defs>
</svg>
