<svg width="100" height="101" viewBox="0 0 100 101" fill="none" xmlns="http://www.w3.org/2000/svg">
<circle cx="50" cy="50.9487" r="50" fill="#EDF7FE"/>
<path d="M46.592 57.4105L62.75 41.3237L58.6927 37.2664L46.592 49.3671L40.5416 43.3168L36.5555 47.3029L46.592 57.4105ZM18.3333 77.1987V71.5043H80.9722V77.1987H18.3333ZM26.875 68.6571C25.309 68.6571 23.9684 68.0995 22.8533 66.9843C21.7381 65.8692 21.1805 64.5286 21.1805 62.9626V31.6432C21.1805 30.0772 21.7381 28.7366 22.8533 27.6215C23.9684 26.5063 25.309 25.9487 26.875 25.9487H72.4305C73.9965 25.9487 75.3371 26.5063 76.4522 27.6215C77.5674 28.7366 78.125 30.0772 78.125 31.6432V62.9626C78.125 64.5286 77.5674 65.8692 76.4522 66.9843C75.3371 68.0995 73.9965 68.6571 72.4305 68.6571H26.875ZM26.875 62.9626H72.4305V31.6432H26.875V62.9626Z" fill="#48ACF0"/>
</svg>
