<svg width="48" height="48" viewBox="0 0 48 48" fill="none" xmlns="http://www.w3.org/2000/svg">
<path d="M8.67745 18.899L13.2275 20.824C13.7719 19.7351 14.3358 18.6851 14.9191 17.674C15.5025 16.6629 16.1441 15.6518 16.8441 14.6407L13.5775 13.999L8.67745 18.899ZM16.9608 23.7407L23.6108 30.3323C25.2441 29.7101 26.9941 28.7573 28.8608 27.474C30.7275 26.1907 32.4775 24.7323 34.1108 23.099C36.833 20.3768 38.9622 17.3532 40.4983 14.0282C42.0344 10.7032 42.7052 7.64066 42.5108 4.84066C39.7108 4.64622 36.6386 5.31705 33.2941 6.85316C29.9497 8.38927 26.9163 10.5184 24.1941 13.2407C22.5608 14.874 21.1025 16.624 19.8191 18.4907C18.5358 20.3573 17.583 22.1073 16.9608 23.7407ZM27.3441 19.949C26.4497 19.0546 26.0025 17.9559 26.0025 16.6532C26.0025 15.3504 26.4497 14.2518 27.3441 13.3573C28.2386 12.4629 29.3469 12.0157 30.6691 12.0157C31.9913 12.0157 33.0997 12.4629 33.9941 13.3573C34.8886 14.2518 35.3358 15.3504 35.3358 16.6532C35.3358 17.9559 34.8886 19.0546 33.9941 19.949C33.0997 20.8434 31.9913 21.2907 30.6691 21.2907C29.3469 21.2907 28.2386 20.8434 27.3441 19.949ZM28.4525 38.674L33.3525 33.774L32.7108 30.5073C31.6997 31.2073 30.6886 31.8393 29.6775 32.4032C28.6663 32.9671 27.6163 33.5212 26.5275 34.0657L28.4525 38.674ZM46.7108 0.582326C47.4497 5.28788 46.9927 9.86705 45.34 14.3198C43.6872 18.7726 40.8386 23.0212 36.7941 27.0657L37.9608 32.8407C38.1163 33.6184 38.0775 34.3768 37.8441 35.1157C37.6108 35.8545 37.2219 36.4962 36.6775 37.0407L26.8775 46.8407L21.9775 35.349L12.0025 25.374L0.510784 20.474L10.2525 10.674C10.7969 10.1295 11.4483 9.74066 12.2066 9.50733C12.965 9.27399 13.733 9.2351 14.5108 9.39066L20.2858 10.5573C24.3302 6.51288 28.5691 3.65455 33.0025 1.98233C37.4358 0.310104 42.0052 -0.156563 46.7108 0.582326ZM4.65245 32.7823C6.01356 31.4212 7.67606 30.7309 9.63995 30.7115C11.6038 30.6921 13.2663 31.3629 14.6275 32.724C15.9886 34.0851 16.6594 35.7476 16.64 37.7115C16.6205 39.6754 15.9302 41.3379 14.5691 42.699C13.5969 43.6712 11.9733 44.5073 9.69828 45.2073C7.42328 45.9073 4.28301 46.5296 0.277451 47.074C0.821895 43.0684 1.44412 39.9282 2.14412 37.6532C2.84412 35.3782 3.68023 33.7546 4.65245 32.7823ZM7.97745 36.049C7.58856 36.4379 7.19967 37.1476 6.81078 38.1782C6.4219 39.2087 6.14967 40.249 5.99412 41.299C7.04412 41.1434 8.0844 40.8809 9.11495 40.5115C10.1455 40.1421 10.8552 39.7629 11.2441 39.374C11.7108 38.9073 11.9636 38.3434 12.0025 37.6823C12.0413 37.0212 11.8275 36.4573 11.3608 35.9907C10.8941 35.524 10.3302 35.3004 9.66912 35.3198C9.00801 35.3393 8.44412 35.5823 7.97745 36.049Z" fill="#48ACF0"/>
</svg>
