<svg width="24" height="24" viewBox="0 0 24 24" fill="none" xmlns="http://www.w3.org/2000/svg">
<g clip-path="url(#clip0_214_81)">
<path d="M17 13H11V7C11 5.346 9.654 4 8 4H4C1.794 4 0 5.794 0 8V20C0 22.206 1.794 24 4 24H16C18.206 24 20 22.206 20 20V16C20 14.346 18.654 13 17 13ZM2 8C2 6.897 2.897 6 4 6H8C8.551 6 9 6.448 9 7V13H6.715C6.893 12.413 7 11.828 7 11.5C7 10.672 6.328 10 5.5 10C4.672 10 4 10.672 4 11.5C4 11.828 4.106 12.413 4.285 13H2V8ZM9 22H4C2.897 22 2 21.103 2 20V15H9V17.285C8.413 17.107 7.828 17 7.5 17C6.672 17 6 17.672 6 18.5C6 19.328 6.672 20 7.5 20C7.828 20 8.413 19.894 9 19.715V22ZM18 20C18 21.103 17.103 22 16 22H11V15H13.285C13.107 15.587 13 16.172 13 16.5C13 17.328 13.672 18 14.5 18C15.328 18 16 17.328 16 16.5C16 16.172 15.894 15.587 15.715 15H17C17.551 15 18 15.448 18 16V20ZM24 4V7.5C24 8.328 23.328 9 22.5 9H20.715C20.893 9.587 21 10.172 21 10.5C21 11.328 20.328 12 19.5 12C18.672 12 18 11.328 18 10.5C18 10.172 18.106 9.587 18.285 9H16.5C15.672 9 15 8.328 15 7.5V5.715C15.587 5.893 16.172 6 16.5 6C17.328 6 18 5.328 18 4.5C18 3.672 17.328 3 16.5 3C16.172 3 15.587 3.106 15 3.285V1.5C15 0.672 15.672 0 16.5 0H20C22.209 0 24 1.791 24 4Z" fill="#48ACF0"/>
</g>
<defs>
<clipPath id="clip0_214_81">
<rect width="24" height="24" fill="white"/>
</clipPath>
</defs>
</svg>
