<svg width="43" height="47" viewBox="0 0 43 47" fill="none" xmlns="http://www.w3.org/2000/svg">
<path d="M19.494 46.8407C14.0884 45.4796 9.62594 42.3782 6.1065 37.5366C2.58705 32.6949 0.827332 27.3185 0.827332 21.4074V7.17407L19.494 0.174072L38.1607 7.17407V20.4157C37.4218 20.1046 36.6634 19.8227 35.8857 19.5699C35.1079 19.3171 34.3107 19.1324 33.494 19.0157V10.4407L19.494 5.19074L5.494 10.4407V21.4074C5.494 23.2352 5.73705 25.063 6.22316 26.8907C6.70928 28.7185 7.38983 30.4588 8.26483 32.1116C9.13983 33.7644 10.1996 35.2907 11.444 36.6907C12.6884 38.0907 14.069 39.2574 15.5857 40.1907C16.0134 41.4352 16.5773 42.6213 17.2773 43.7491C17.9773 44.8769 18.7746 45.888 19.669 46.7824C19.6301 46.7824 19.6009 46.7921 19.5815 46.8116C19.5621 46.831 19.5329 46.8407 19.494 46.8407ZM31.1607 46.8407C27.9329 46.8407 25.1815 45.7032 22.9065 43.4282C20.6315 41.1532 19.494 38.4019 19.494 35.1741C19.494 31.9463 20.6315 29.1949 22.9065 26.9199C25.1815 24.6449 27.9329 23.5074 31.1607 23.5074C34.3884 23.5074 37.1398 24.6449 39.4148 26.9199C41.6898 29.1949 42.8273 31.9463 42.8273 35.1741C42.8273 38.4019 41.6898 41.1532 39.4148 43.4282C37.1398 45.7032 34.3884 46.8407 31.1607 46.8407ZM29.994 42.1741H32.3273V36.3407H38.1607V34.0074H32.3273V28.1741H29.994V34.0074H24.1607V36.3407H29.994V42.1741Z" fill="#48ACF0"/>
</svg>
