<svg width="475" height="475" viewBox="0 0 475 475" fill="none" xmlns="http://www.w3.org/2000/svg">
<circle cx="237.5" cy="237.5" r="237.5" fill="#C8E6FB" fill-opacity="0.24"/>
<circle cx="238.364" cy="233.182" r="172.727" fill="#A4D6F8" fill-opacity="0.22"/>
<g clip-path="url(#clip0_98_1087)">
<path d="M352.919 350.319L349.155 349.436L351.431 332.084L356.987 333.386L352.919 350.319Z" fill="#FFB6B6"/>
<path d="M338.056 354.794C337.891 355.426 338.207 356.055 338.76 356.198L346.188 358.126C346.188 358.126 347.681 355.377 350.989 354.886L350.104 359.142L353.936 360.136L355.225 353.259C355.225 353.259 357.188 349.909 355.539 347.509C353.89 345.109 355.548 345.813 355.548 345.813L355.796 341.414L349.829 340.592L348.083 347.146L343.582 352.934L338.932 353.9C338.519 353.986 338.174 354.337 338.056 354.794Z" fill="#2F2E41"/>
<path d="M389.011 346.224L385.577 348.003L376.02 333.342L381.087 330.717L389.011 346.224Z" fill="#FFB6B6"/>
<path d="M380.632 359.292C380.919 359.879 381.567 360.151 382.081 359.9L388.976 356.533C388.976 356.533 388.323 353.474 390.516 350.949L392.612 354.757L396.169 353.02L392.675 346.958C392.675 346.958 391.987 343.137 389.173 342.386C386.359 341.636 388.077 341.093 388.077 341.093L385.403 337.59L380.337 340.847L383.274 346.961L383.62 354.284L380.717 358.042C380.458 358.377 380.425 358.868 380.632 359.292Z" fill="#2F2E41"/>
<path d="M187.639 281.776H287.43C288.687 281.776 289.705 280.757 289.705 279.501V138.291C289.705 137.035 288.687 136.016 287.43 136.016H187.639C186.382 136.016 185.364 137.035 185.364 138.291V279.501C185.364 280.757 186.382 281.776 187.639 281.776Z" fill="white"/>
<path d="M290.131 282.201H184.938V135.591H290.131V282.201ZM185.789 281.35H289.28V136.442H185.789V281.35Z" fill="#E6E6E6"/>
<path d="M266.491 159.077C266.895 159.077 267.224 159.406 267.224 159.81V161.277C267.224 161.682 266.895 162.01 266.491 162.01H208.579C208.174 162.01 207.846 161.682 207.846 161.277V159.81C207.846 159.406 208.174 159.077 208.579 159.077H266.491Z" fill="#E6E6E6"/>
<path d="M266.491 166.041C266.895 166.041 267.224 166.369 267.224 166.774V168.241C267.224 168.646 266.895 168.974 266.491 168.974H208.579C208.174 168.974 207.846 168.645 207.846 168.241V166.774C207.846 166.369 208.174 166.041 208.579 166.041H266.491Z" fill="#E6E6E6"/>
<path d="M266.491 173.005C266.895 173.005 267.224 173.334 267.224 173.739V175.205C267.224 175.61 266.895 175.938 266.491 175.938H208.579C208.174 175.938 207.846 175.61 207.846 175.205V173.739C207.846 173.334 208.174 173.006 208.579 173.006L266.491 173.005Z" fill="#48ACF0"/>
<path d="M373.084 191.276H392.32C392.292 190.372 392.484 189.475 392.88 188.662C392.891 189.564 393.09 190.454 393.463 191.276H394.336C395.673 191.275 396.756 190.192 396.757 188.855V176.355C396.757 170.234 391.523 161.059 385.837 164.898C385.654 164.889 382.771 163.612 382.588 163.612C377.585 163.616 375.865 168.13 374.354 172.899C372.633 172.106 371.447 175.417 370.589 181.245C370.339 182.946 370.116 184.861 369.916 186.951C369.365 188.704 370.339 190.573 372.093 191.124C372.414 191.225 372.748 191.277 373.085 191.278L373.084 191.276Z" fill="#2F2E41"/>
<path d="M335.335 262.742C334.382 265.003 334.775 267.327 336.213 267.934C337.652 268.541 339.591 267.2 340.545 264.939C340.938 264.041 341.111 263.061 341.048 262.083L344.969 252.452L340.41 250.709L337.028 260.388C336.283 261.026 335.703 261.833 335.334 262.742L335.335 262.742Z" fill="#FFB6B6"/>
<path d="M377.484 187.045L386.679 188.968L385.269 193.199L388.089 225.559L383.388 235.978L354.712 233.628L361.764 219.524C361.764 219.524 358.943 207.771 362.704 205.42C366.465 203.068 372.576 191.316 372.576 191.316L377.484 187.045Z" fill="#48ACF0"/>
<path d="M386.055 190.84L394.201 194.138L391.38 235.507L397.491 271.235L377.747 274.526C377.747 274.526 380.098 195.548 381.508 194.138C382.918 192.727 386.055 190.838 386.055 190.838V190.84Z" fill="#2F2E41"/>
<path d="M370.102 195.999C370.102 195.999 364.802 192.646 361.938 195.129C359.075 197.612 337.028 257.632 337.028 257.632L342.974 260.215L356.612 231.621L370.102 195.999Z" fill="#2F2E41"/>
<path d="M354.919 297.126L349.542 338.462L357.063 338.932C357.063 338.932 360.974 328.26 365.436 315.69C366.386 313.024 367.358 310.274 368.322 307.519C369.366 304.53 370.405 301.54 371.392 298.654C373.832 291.536 375.971 285.058 377.193 280.827C377.404 280.085 377.592 279.413 377.748 278.82C381.036 266.183 382.918 233.16 382.918 233.16L355.652 230.81L355.361 231.172L349.542 238.444L349.814 239.981L357.063 280.641L354.92 297.128L354.919 297.126Z" fill="#2F2E41"/>
<path d="M357.062 280.64L354.919 297.127L364.561 314.102L365.434 315.691L378.71 339.816L385.268 336.098C385.268 336.098 376.736 316.489 371.39 298.653C370.798 296.693 370.248 294.751 369.755 292.862C368.302 287.328 370.681 277.231 369.75 274.447C366.605 265.055 356.357 246.265 351.599 237.752L349.813 239.981L357.062 280.64Z" fill="#2F2E41"/>
<path d="M372.695 190.962L363.176 194.61L338.26 267.476L353.303 269.827L360.355 227.517L372.695 190.962Z" fill="#2F2E41"/>
<path d="M396.5 269.615C396.742 272.056 398.198 273.911 399.752 273.756C401.306 273.602 402.369 271.498 402.127 269.055C402.043 268.078 401.727 267.135 401.204 266.305L400.048 255.973L395.21 256.619L396.864 266.736C396.515 267.653 396.39 268.64 396.5 269.615Z" fill="#FFB6B6"/>
<path d="M390.909 194.14C390.909 194.14 397.021 192.729 398.901 196.02C400.782 199.311 401.722 263.245 401.722 263.245L395.255 263.716L391.85 232.22L390.91 194.141L390.909 194.14Z" fill="#2F2E41"/>
<path d="M383.11 185.905C388.507 185.905 392.882 181.529 392.882 176.132C392.882 170.735 388.507 166.36 383.11 166.36C377.713 166.36 373.338 170.735 373.338 176.132C373.338 181.529 377.713 185.905 383.11 185.905Z" fill="#FFB6B6"/>
<path d="M387.033 191.276H391.859C392.104 191.276 392.312 191.087 392.324 190.842L392.325 190.815C392.351 190.304 393.068 190.218 393.234 190.702C393.301 190.896 393.377 191.088 393.463 191.276H393.937V176.21C393.937 173.626 391.843 171.531 389.259 171.531C387.052 171.531 385.146 173.073 384.684 175.23C384.684 175.23 381.404 179.252 383.337 181.514C385.27 183.776 382.458 185.617 382.458 185.617C381.834 188.529 384.054 191.276 387.033 191.276Z" fill="#2F2E41"/>
<path d="M227.025 208.824C228.108 208.126 228.336 206.631 227.579 205.589L224.03 200.706C223.201 199.565 221.604 199.311 220.462 200.14C220.361 200.213 220.266 200.294 220.176 200.381C214.168 203.594 210.933 208.285 214.529 213.83C214.529 214.756 214.597 215.681 214.731 216.597C214.79 216.995 214.924 217.384 215.15 217.715C215.824 218.7 217.012 219.062 218.058 218.721L223.862 216.835C225.095 216.435 225.762 215.088 225.307 213.874C224.718 212.306 224.961 210.156 227.025 208.824Z" fill="#F2F2F2"/>
<path d="M240.8 223.228C239.13 223.063 237.704 224.439 237.704 226.117V231.124C237.704 231.253 237.714 231.383 237.734 231.511C237.949 232.906 239.253 233.863 240.649 233.648C248.782 234.651 254.34 231.114 254.675 223.354C254.728 223.245 254.773 223.132 254.811 223.017C255.244 221.676 254.509 220.238 253.168 219.804L248.308 218.225C246.632 217.681 244.89 218.769 244.596 220.507C244.331 222.077 243.295 223.474 240.8 223.228Z" fill="#E6E6E6"/>
<path d="M210.757 228.123C212.444 238.134 221.228 241.932 230.389 242.532C230.568 242.56 230.75 242.574 230.931 242.574C232.907 242.575 234.51 240.974 234.511 238.998V230.627C234.511 228.285 232.591 226.461 230.25 226.438C227.986 226.415 226.511 225.344 225.905 223.377C225.212 221.131 222.744 219.946 220.509 220.672L212.867 223.156C211.877 223.477 211.076 224.213 210.672 225.172C210.271 226.122 210.302 227.199 210.757 228.123Z" fill="#3F3D56"/>
<path d="M257.833 193.508C256.423 192.126 254.16 192.15 252.779 193.56C252.656 193.686 252.542 193.82 252.439 193.962L245.649 203.308C244.781 204.503 245.277 206.167 246.634 206.751C249.813 208.118 249.479 211.186 248.444 213.063C247.937 213.983 248.355 215.135 249.355 215.459L260.796 219.177C262.678 219.785 264.697 218.751 265.305 216.869C265.366 216.68 265.411 216.485 265.44 216.288C265.637 214.978 265.735 213.656 265.735 212.331C267.671 205.114 264.992 198.31 257.833 193.508Z" fill="#48ACF0"/>
<path d="M238.185 204.344C239.453 205.058 241.052 204.712 241.907 203.536L244.182 200.405C244.623 199.798 244.777 199.028 244.601 198.298C244.432 197.582 243.957 196.975 243.301 196.64C237.949 191.804 231.613 191.507 226.241 196.615C225.566 196.956 225.075 197.576 224.897 198.311C224.722 199.036 224.874 199.801 225.312 200.404L227.971 204.063C228.883 205.319 230.652 205.648 231.91 204.737C233.738 203.414 236.394 203.336 238.185 204.344Z" fill="#E6E6E6"/>
<path d="M418.259 359.393H56.1364V360.109H418.259V359.393Z" fill="#E6E6E6"/>
<path d="M208.217 267.41C208.421 266.546 209.38 266.261 210.165 266.294C210.66 266.327 211.152 266.405 211.633 266.526C212.137 266.639 212.636 266.773 213.133 266.914C214.043 267.174 214.944 267.488 215.869 267.691C216.646 267.903 217.463 267.915 218.246 267.725C218.998 267.519 219.59 266.938 219.811 266.189C220.036 265.474 219.713 264.701 219.045 264.36C218.428 264.019 217.652 264.244 217.311 264.862C217.306 264.871 217.301 264.88 217.297 264.889C217.011 265.651 217.235 266.51 217.857 267.034C218.176 267.333 218.525 267.599 218.899 267.825C219.279 268.084 219.701 268.273 220.147 268.384C220.905 268.585 221.706 268.272 222.127 267.611C222.211 267.453 222.261 267.279 222.275 267.1C222.297 266.857 221.918 266.859 221.896 267.1C221.832 267.797 221.016 268.122 220.406 268.046C219.995 267.978 219.602 267.825 219.252 267.598C218.915 267.401 218.595 267.175 218.296 266.923C217.779 266.476 217.294 265.74 217.642 265.041C217.912 264.593 218.495 264.448 218.944 264.718C219.003 264.754 219.059 264.797 219.11 264.845C219.653 265.289 219.556 266.095 219.198 266.623C218.768 267.173 218.104 267.49 217.405 267.477C216.668 267.479 215.936 267.364 215.235 267.137C214.361 266.889 213.495 266.611 212.617 266.377C212.118 266.244 211.616 266.125 211.108 266.032C210.628 265.926 210.135 265.892 209.645 265.93C208.817 265.969 208.101 266.519 207.85 267.308C207.795 267.547 208.161 267.648 208.217 267.41Z" fill="#3F3D56"/>
<path d="M223.245 257.517C223.36 257.517 223.452 257.845 223.452 258.25V259.716C223.452 260.121 223.36 260.449 223.245 260.449H206.877C206.762 260.449 206.67 260.121 206.67 259.716V258.25C206.67 257.845 206.762 257.517 206.877 257.517H223.245Z" fill="#E6E6E6"/>
<path d="M267.016 257.517C267.131 257.517 267.224 257.845 267.224 258.25V259.716C267.224 260.121 267.131 260.449 267.016 260.449H250.648C250.534 260.449 250.441 260.121 250.441 259.716V258.25C250.441 257.845 250.534 257.517 250.648 257.517H267.016Z" fill="#E6E6E6"/>
<path d="M259.728 265.776L256.479 266.85L254.855 267.387C254.356 267.6 253.815 267.699 253.273 267.677C252.873 267.651 252.522 267.402 252.364 267.033C252.294 266.663 252.453 266.288 252.767 266.08C253.542 265.49 254.523 266.091 255.072 266.701C255.744 267.448 256.125 268.413 256.755 269.195C257.316 269.897 258.027 270.464 258.836 270.855C260.454 271.657 262.383 271.492 263.84 270.427C265.553 269.106 265.728 266.816 265.737 264.818C265.73 264.626 265.569 264.476 265.377 264.483C265.195 264.489 265.049 264.636 265.042 264.818C265.034 266.629 264.931 268.848 263.28 269.981C261.698 271.067 259.621 270.779 258.164 269.622C257.414 268.954 256.789 268.156 256.321 267.267C255.801 266.416 255.155 265.595 254.177 265.264C253.311 264.95 252.344 265.288 251.863 266.073C251.449 266.771 251.678 267.673 252.376 268.088C252.43 268.12 252.486 268.148 252.544 268.173C253.679 268.714 254.977 268.08 256.069 267.719L259.914 266.449C260.337 266.309 260.156 265.638 259.73 265.778L259.728 265.776Z" fill="#48ACF0"/>
<path d="M115.345 346.643C115.302 346.606 115.27 346.587 115.248 346.587C114.718 346.592 114.245 346.87 113.985 347.33L108.277 357.93C108.147 358.161 108.083 358.413 108.085 358.665C108.087 358.917 108.156 359.168 108.29 359.396C108.559 359.853 121.164 360.017 121.164 360.017C121.694 360.012 123.149 353.491 115.345 346.643Z" fill="#E6E6E6"/>
<path d="M93.53 357.449L97.8621 357.411L99.7771 340.683L93.3832 340.739L93.53 357.449Z" fill="#FFB6B6"/>
<path d="M108.372 357.221C108.509 357.447 108.586 358.18 108.588 358.444C108.595 359.256 107.943 359.92 107.131 359.927L93.7147 360.044C93.1607 360.049 92.7077 359.604 92.7029 359.05L92.698 358.491C92.698 358.491 92.0196 356.818 93.368 354.737C93.368 354.737 95.0804 356.343 97.5959 353.783L98.3324 352.421L103.784 356.335L106.79 356.678C107.447 356.753 108.029 356.655 108.372 357.221Z" fill="#2F2E41"/>
<path d="M110.011 343.007L114.127 344.358L121.299 329.125L115.224 327.13L110.011 343.007Z" fill="#FFB6B6"/>
<path d="M124.144 347.544C124.201 347.802 124.04 348.521 123.958 348.772C123.704 349.544 122.874 349.964 122.102 349.71L109.355 345.525C108.829 345.352 108.542 344.785 108.715 344.259L108.889 343.728C108.889 343.728 108.782 341.926 110.726 340.386C110.726 340.386 111.834 342.455 115.037 340.836L116.171 339.781L120.082 345.236L122.819 346.524C123.418 346.805 124.001 346.898 124.144 347.544Z" fill="#2F2E41"/>
<path d="M115.823 246.014L124.479 273.766L134.625 298.707L119.245 334.597L110.687 331.263L118.347 300.2L105.254 277.008L99.0666 346.631L91.5396 345.73L81.7529 262.33L83.2877 244.194L115.823 246.014Z" fill="#2F2E41"/>
<path d="M106.968 182.825L97.6159 180.567L95.036 186.695C95.036 186.695 82.3988 188.829 81.7529 198.504C81.7529 198.504 79.2343 211.203 80.8465 214.751C82.4588 218.298 86.4335 230.842 86.4335 230.842C86.4335 230.842 80.1402 246.471 81.7529 247.437C83.3656 248.403 117.921 251.925 117.921 249.99C117.921 248.056 118.316 225.068 118.316 225.068L116.962 190.24L108.258 187.017L106.968 182.825Z" fill="#E6E6E6"/>
<path d="M105.385 181.266C110.59 181.266 114.809 177.047 114.809 171.842C114.809 166.638 110.59 162.418 105.385 162.418C100.18 162.418 95.961 166.638 95.961 171.842C95.961 177.047 100.18 181.266 105.385 181.266Z" fill="#FFB6B6"/>
<path d="M99.1448 173.243C99.8969 173.655 99.1841 175.62 99.6542 175.79C100.198 175.986 102.178 173.731 102.201 171.206C102.208 170.441 102.032 170.074 102.201 169.168C102.422 167.982 103.101 166.584 103.729 166.621C104.102 166.643 104.466 167.17 104.493 167.64C104.532 168.299 103.892 168.558 103.984 168.913C104.16 169.589 106.848 170.055 107.805 168.913C108.555 168.018 107.979 166.447 108.314 166.366C108.561 166.307 108.827 167.172 109.842 168.149C110.225 168.517 110.794 169.065 111.116 168.913C111.581 168.694 111.242 167.151 111.37 167.13C111.476 167.113 111.543 168.198 112.135 169.168C112.894 170.414 114.46 171.374 115.191 170.951C115.639 170.692 115.674 169.97 115.7 169.423C115.757 168.269 117.433 165.614 116.998 164.379C116.114 161.867 114.602 163.639 113.917 162.8C112.991 161.666 112.16 162.276 110.606 161.018C109.089 159.788 109.075 158.552 108.059 158.471C107.144 158.398 106.819 159.374 105.767 159.235C104.875 159.117 104.681 158.36 103.984 158.471C103.346 158.572 103.304 159.238 102.456 159.489C101.914 159.65 101.795 159.418 101.182 159.489C99.9068 159.638 99.0505 160.8 98.8901 161.018C98.2717 161.857 98.5118 162.21 97.8713 163.055C97.3189 163.784 96.0941 163.475 95.6338 163.839C94.1296 165.028 93.4839 167.22 93.4717 169.718C93.4631 171.465 93.6913 172.348 94.2004 174.553C94.587 176.228 96.3758 178.391 97.3619 179.356C97.6265 179.615 98.3686 180.341 98.8901 180.12C99.3842 179.911 99.3989 178.971 99.3995 178.847C99.4015 178.42 99.2877 177.891 98.3807 176.554C97.4279 175.15 97.0496 174.99 97.1072 174.517C97.2089 173.681 98.5452 172.915 99.1448 173.243Z" fill="#2F2E41"/>
<path d="M72.495 267.242C72.1668 269.982 73.3144 272.373 75.0582 272.582C76.8021 272.791 78.4818 270.739 78.8099 267.998C78.9536 266.799 78.8144 265.666 78.4663 264.754L79.7112 253.125L74.2417 252.657L73.5949 264.171C73.0413 264.975 72.6386 266.042 72.495 267.242Z" fill="#FFB6B6"/>
<path d="M88.2442 190.014C88.2442 190.014 85.4105 190.054 83.5329 193.717C82.5352 195.664 76.0499 230.56 76.0499 230.56L74.228 241.597L75.1643 243.422C73.6758 245.699 73.2661 248.515 74.0442 251.122L72.2641 261.905L80.6346 261.95L87.1669 233.702L92.6595 217.32L88.2442 190.014Z" fill="#E6E6E6"/>
<path d="M131.009 266.816C131.337 269.557 130.189 271.947 128.445 272.156C126.702 272.365 125.022 270.313 124.694 267.573C124.55 266.373 124.689 265.241 125.037 264.329L123.792 252.7L129.262 252.232L129.909 263.745C130.462 264.549 130.865 265.617 131.009 266.816Z" fill="#FFB6B6"/>
<path d="M115.259 189.589C115.259 189.589 118.093 189.628 119.971 193.292C120.968 195.239 127.454 230.134 127.454 230.134L129.276 241.171L128.339 242.996C129.828 245.273 130.238 248.09 129.459 250.696L131.24 261.479L122.869 261.524L116.337 233.277L110.844 216.894L115.259 189.589Z" fill="#E6E6E6"/>
<path d="M371.364 174.681C371.711 175.25 373.556 173.168 376.388 172.939C377.109 172.879 378.734 175.64 380.599 175.68C381.835 175.705 382.596 175.695 384.117 175.68C385.916 175.66 386.408 175.62 386.756 175.18C387.429 174.327 386.875 172.809 387.196 172.685C387.464 172.58 388.159 173.518 388.515 174.681C389.263 177.122 386.58 180.522 386.316 183.666C386.035 187.056 388.805 180.562 388.515 183.666C388.19 187.161 387.024 186.896 387.037 188.159C387.042 188.349 387.09 188.513 387.196 188.658C387.288 188.788 387.38 188.838 388.955 189.157C390.837 189.542 391.782 189.731 392.033 189.656C392.68 189.467 393.335 188.414 393.792 187.66C394.549 186.427 394.012 187.67 393.792 186.162C393.581 184.705 392.921 184.515 392.913 183.167C392.904 181.47 393.946 180.956 394.672 179.174C396.013 175.879 394.703 172.066 394.232 170.688C394.006 170.027 393.596 169.191 392.878 167.809C392.301 166.7 391.536 165.723 390.602 164.991C389.203 163.894 387.578 163.142 385.821 162.844C384.858 162.681 383.877 162.767 382.931 163.025L380.48 163.693C379.45 163.974 378.478 164.483 377.622 165.192C376.824 165.195 376.132 165.78 375.858 166.631C375.829 166.72 375.803 166.772 375.782 166.765C371.364 165.197 371.367 169.84 371.415 172.74C371.42 173.037 371.411 173.3 371.377 173.513V173.528C371.289 174.102 371.267 174.522 371.364 174.681Z" fill="#2F2E41"/>
<path d="M313.933 200.323H267.422V201.174H313.933V200.323Z" fill="#3F3D56"/>
<path d="M323.295 206.267C320.01 206.267 317.338 203.595 317.338 200.31C317.338 197.025 320.01 194.353 323.295 194.353C326.579 194.353 329.252 197.025 329.252 200.31C329.252 203.595 326.579 206.267 323.295 206.267ZM323.295 195.204C320.479 195.204 318.189 197.495 318.189 200.31C318.189 203.126 320.479 205.416 323.295 205.416C326.11 205.416 328.401 203.126 328.401 200.31C328.401 197.495 326.11 195.204 323.295 195.204Z" fill="#3F3D56"/>
<path d="M323.295 203.289C324.94 203.289 326.273 201.955 326.273 200.31C326.273 198.665 324.94 197.332 323.295 197.332C321.65 197.332 320.316 198.665 320.316 200.31C320.316 201.955 321.65 203.289 323.295 203.289Z" fill="#48ACF0"/>
<path d="M207.687 231.81H161.176V232.661H207.687V231.81Z" fill="#3F3D56"/>
<path d="M145.857 231.798C145.857 228.513 148.53 225.841 151.814 225.841C155.099 225.841 157.772 228.513 157.772 231.798C157.772 235.083 155.099 237.755 151.814 237.755C148.53 237.755 145.857 235.083 145.857 231.798ZM146.708 231.798C146.708 234.613 148.999 236.904 151.814 236.904C154.63 236.904 156.921 234.613 156.921 231.798C156.921 228.982 154.63 226.692 151.814 226.692C148.999 226.692 146.708 228.982 146.708 231.798Z" fill="#3F3D56"/>
<path d="M151.814 234.776C153.459 234.776 154.793 233.443 154.793 231.798C154.793 230.153 153.459 228.819 151.814 228.819C150.169 228.819 148.836 230.153 148.836 231.798C148.836 233.443 150.169 234.776 151.814 234.776Z" fill="#48ACF0"/>
</g>
<defs>
<clipPath id="clip0_98_1087">
<rect width="362.123" height="224.545" fill="white" transform="translate(56.1364 135.591)"/>
</clipPath>
</defs>
</svg>
