<svg width="19" height="19" viewBox="0 0 19 19" fill="none" xmlns="http://www.w3.org/2000/svg">
<path d="M6.31267 18.7296C4.58807 18.7296 3.12217 18.126 1.91495 16.9188C0.707734 15.7116 0.104126 14.2457 0.104126 12.5211V6.31255C0.104126 4.58795 0.707734 3.12205 1.91495 1.91483C3.12217 0.707612 4.58807 0.104004 6.31267 0.104004H12.5212C14.2458 0.104004 15.7117 0.707612 16.9189 1.91483C18.1262 3.12205 18.7298 4.58795 18.7298 6.31255V12.5211C18.7298 14.2457 18.1262 15.7116 16.9189 16.9188C15.7117 18.126 14.2458 18.7296 12.5212 18.7296H6.31267ZM8.38218 13.5558L14.5907 7.3473L13.1421 5.89864L8.38218 10.6585L6.10572 8.38206L4.65706 9.83072L8.38218 13.5558Z" fill="#48ACF0"/>
</svg>
